<svg width="700" height="700" viewBox="0 0 700 700" fill="none" xmlns="http://www.w3.org/2000/svg">
<rect width="700" height="700" fill="white"/>
<g filter="url(#filter0_d)">
<rect x="95" y="142" width="220" height="90" rx="20" fill="white"/>
</g>
<path d="M316 189L385 509" stroke="#FF8989" stroke-width="3" stroke-linecap="round" stroke-linejoin="round"/>
<g filter="url(#filter1_d)">
<rect x="95" y="303" width="220" height="90" rx="20" fill="white"/>
</g>
<g filter="url(#filter2_d)">
<rect x="95" y="464" width="220" height="90" rx="20" fill="white"/>
</g>
<g filter="url(#filter3_d)">
<rect x="385" y="142" width="220" height="90" rx="20" fill="white"/>
</g>
<g filter="url(#filter4_d)">
<rect x="385" y="303" width="220" height="90" rx="20" fill="white"/>
</g>
<g filter="url(#filter5_d)">
<rect x="385" y="464" width="220" height="90" rx="20" fill="white"/>
</g>
<path d="M157.152 198H165.984C170.98 198 173.43 195.454 173.43 192.055C173.43 188.753 171.087 186.814 168.764 186.697V186.484C170.895 185.983 172.578 184.491 172.578 181.839C172.578 178.589 170.234 176.182 165.504 176.182H157.152V198ZM161.104 194.697V188.305H165.462C167.901 188.305 169.414 189.797 169.414 191.746C169.414 193.483 168.221 194.697 165.355 194.697H161.104ZM161.104 185.461V179.442H165.099C167.422 179.442 168.626 180.667 168.626 182.35C168.626 184.268 167.07 185.461 165.014 185.461H161.104ZM183.943 198.32C187.757 198.32 190.377 196.455 191.059 193.611L187.458 193.206C186.936 194.591 185.658 195.315 183.996 195.315C181.503 195.315 179.852 193.675 179.82 190.873H191.219V189.69C191.219 183.948 187.767 181.423 183.74 181.423C179.053 181.423 175.995 184.864 175.995 189.914C175.995 195.049 179.01 198.32 183.943 198.32ZM179.83 188.273C179.948 186.185 181.492 184.428 183.794 184.428C186.009 184.428 187.501 186.047 187.522 188.273H179.83ZM198.338 176.182H194.482V198H198.338V176.182ZM207.013 198.33C209.58 198.33 211.114 197.126 211.817 195.752H211.945V198H215.653V187.048C215.653 182.723 212.126 181.423 209.005 181.423C205.564 181.423 202.922 182.957 202.069 185.94L205.67 186.452C206.054 185.333 207.14 184.374 209.026 184.374C210.816 184.374 211.796 185.29 211.796 186.899V186.963C211.796 188.071 210.635 188.124 207.748 188.433C204.573 188.774 201.537 189.722 201.537 193.408C201.537 196.626 203.891 198.33 207.013 198.33ZM208.014 195.496C206.405 195.496 205.255 194.761 205.255 193.344C205.255 191.864 206.544 191.246 208.27 191.001C209.282 190.862 211.306 190.607 211.807 190.202V192.13C211.807 193.952 210.336 195.496 208.014 195.496ZM219.53 181.636V198.884C219.53 200.259 218.944 200.994 217.464 200.994C217.272 200.994 217.123 200.983 216.91 200.972V204.115C217.187 204.136 217.421 204.136 217.698 204.136C221.309 204.136 223.387 202.474 223.387 198.938V181.636H219.53ZM221.448 179.314C222.673 179.314 223.675 178.376 223.675 177.226C223.675 176.065 222.673 175.127 221.448 175.127C220.212 175.127 219.211 176.065 219.211 177.226C219.211 178.376 220.212 179.314 221.448 179.314ZM232.061 198.33C234.629 198.33 236.163 197.126 236.866 195.752H236.994V198H240.701V187.048C240.701 182.723 237.175 181.423 234.054 181.423C230.613 181.423 227.971 182.957 227.118 185.94L230.719 186.452C231.103 185.333 232.189 184.374 234.075 184.374C235.865 184.374 236.845 185.29 236.845 186.899V186.963C236.845 188.071 235.684 188.124 232.797 188.433C229.622 188.774 226.586 189.722 226.586 193.408C226.586 196.626 228.94 198.33 232.061 198.33ZM233.063 195.496C231.454 195.496 230.304 194.761 230.304 193.344C230.304 191.864 231.593 191.246 233.319 191.001C234.331 190.862 236.355 190.607 236.855 190.202V192.13C236.855 193.952 235.385 195.496 233.063 195.496ZM244.579 198H248.436V188.38C248.436 186.303 250.002 184.832 252.122 184.832C252.772 184.832 253.581 184.95 253.912 185.056V181.509C253.56 181.445 252.953 181.402 252.527 181.402C250.652 181.402 249.086 182.467 248.489 184.364H248.319V181.636H244.579V198Z" fill="#151515"/>
<path d="M423.152 198H427.104V191.501L429.523 188.646L436.032 198H440.783L432.271 185.972L440.709 176.182H435.883L427.371 186.207H427.104V176.182H423.152V198ZM447.993 198.33C450.561 198.33 452.095 197.126 452.798 195.752H452.926V198H456.633V187.048C456.633 182.723 453.107 181.423 449.985 181.423C446.544 181.423 443.902 182.957 443.05 185.94L446.651 186.452C447.034 185.333 448.121 184.374 450.007 184.374C451.796 184.374 452.776 185.29 452.776 186.899V186.963C452.776 188.071 451.615 188.124 448.728 188.433C445.553 188.774 442.517 189.722 442.517 193.408C442.517 196.626 444.872 198.33 447.993 198.33ZM448.994 195.496C447.386 195.496 446.235 194.761 446.235 193.344C446.235 191.864 447.524 191.246 449.25 191.001C450.262 190.862 452.286 190.607 452.787 190.202V192.13C452.787 193.952 451.317 195.496 448.994 195.496ZM464.367 176.182H460.511V198H464.367V176.182ZM468.333 198H472.19V192.503L473.596 191.001L478.603 198H483.216L476.504 188.7L482.843 181.636H478.337L472.456 188.21H472.19V176.182H468.333V198ZM495.843 191.118C495.843 193.611 494.064 194.847 492.359 194.847C490.506 194.847 489.27 193.536 489.27 191.459V181.636H485.413V192.055C485.413 195.987 487.65 198.213 490.868 198.213C493.318 198.213 495.044 196.924 495.79 195.092H495.96V198H499.699V181.636H495.843V191.118ZM507.522 176.182H503.665V198H507.522V176.182ZM516.196 198.33C518.764 198.33 520.298 197.126 521.001 195.752H521.129V198H524.836V187.048C524.836 182.723 521.31 181.423 518.188 181.423C514.747 181.423 512.105 182.957 511.253 185.94L514.854 186.452C515.237 185.333 516.324 184.374 518.21 184.374C519.999 184.374 520.98 185.29 520.98 186.899V186.963C520.98 188.071 519.818 188.124 516.931 188.433C513.757 188.774 510.72 189.722 510.72 193.408C510.72 196.626 513.075 198.33 516.196 198.33ZM517.198 195.496C515.589 195.496 514.438 194.761 514.438 193.344C514.438 191.864 515.727 191.246 517.453 191.001C518.465 190.862 520.49 190.607 520.99 190.202V192.13C520.99 193.952 519.52 195.496 517.198 195.496ZM536.885 181.636H533.657V177.716H529.801V181.636H527.478V184.619H529.801V193.717C529.779 196.796 532.017 198.309 534.914 198.224C536.012 198.192 536.768 197.979 537.183 197.84L536.534 194.825C536.32 194.879 535.884 194.974 535.404 194.974C534.435 194.974 533.657 194.634 533.657 193.078V184.619H536.885V181.636ZM547.072 198.32C551.866 198.32 554.913 194.942 554.913 189.882C554.913 184.811 551.866 181.423 547.072 181.423C542.278 181.423 539.232 184.811 539.232 189.882C539.232 194.942 542.278 198.32 547.072 198.32ZM547.094 195.23C544.441 195.23 543.141 192.865 543.141 189.871C543.141 186.878 544.441 184.481 547.094 184.481C549.704 184.481 551.004 186.878 551.004 189.871C551.004 192.865 549.704 195.23 547.094 195.23ZM558.187 198H562.043V188.38C562.043 186.303 563.609 184.832 565.729 184.832C566.379 184.832 567.189 184.95 567.519 185.056V181.509C567.167 181.445 566.56 181.402 566.134 181.402C564.259 181.402 562.693 182.467 562.096 184.364H561.926V181.636H558.187V198Z" fill="#151515"/>
<path d="M167.152 359H171.104V352.501L173.523 349.646L180.032 359H184.783L176.271 346.972L184.709 337.182H179.883L171.371 347.207H171.104V337.182H167.152V359ZM191.993 359.33C194.561 359.33 196.095 358.126 196.798 356.752H196.926V359H200.633V348.048C200.633 343.723 197.107 342.423 193.985 342.423C190.544 342.423 187.902 343.957 187.05 346.94L190.651 347.452C191.034 346.333 192.121 345.374 194.007 345.374C195.796 345.374 196.776 346.29 196.776 347.899V347.963C196.776 349.071 195.615 349.124 192.728 349.433C189.553 349.774 186.517 350.722 186.517 354.408C186.517 357.626 188.872 359.33 191.993 359.33ZM192.994 356.496C191.386 356.496 190.235 355.761 190.235 354.344C190.235 352.864 191.524 352.246 193.25 352.001C194.262 351.862 196.286 351.607 196.787 351.202V353.13C196.787 354.952 195.317 356.496 192.994 356.496ZM204.511 359H208.367V349.38C208.367 347.303 209.933 345.832 212.053 345.832C212.703 345.832 213.513 345.95 213.843 346.056V342.509C213.492 342.445 212.884 342.402 212.458 342.402C210.583 342.402 209.017 343.467 208.421 345.364H208.25V342.636H204.511V359ZM225.455 342.636H222.227V338.716H218.371V342.636H216.048V345.619H218.371V354.717C218.35 357.796 220.587 359.309 223.485 359.224C224.582 359.192 225.338 358.979 225.754 358.84L225.104 355.825C224.891 355.879 224.454 355.974 223.975 355.974C223.005 355.974 222.227 355.634 222.227 354.078V345.619H225.455V342.636ZM239.11 352.118C239.11 354.611 237.331 355.847 235.627 355.847C233.773 355.847 232.537 354.536 232.537 352.459V342.636H228.681V353.055C228.681 356.987 230.918 359.213 234.135 359.213C236.586 359.213 238.311 357.924 239.057 356.092H239.228V359H242.967V342.636H239.11V352.118Z" fill="#151515"/>
<path d="M472.009 343.18H475.812C475.738 339.494 472.595 336.884 467.95 336.884C463.369 336.884 459.928 339.462 459.939 343.318C459.939 346.45 462.165 348.251 465.756 349.178L468.238 349.817C470.592 350.413 472.148 351.148 472.158 352.842C472.148 354.707 470.379 355.953 467.801 355.953C465.33 355.953 463.412 354.845 463.252 352.555H459.364C459.523 356.891 462.751 359.33 467.833 359.33C473.064 359.33 476.1 356.72 476.111 352.874C476.1 349.092 472.979 347.366 469.697 346.589L467.652 346.077C465.862 345.651 463.923 344.895 463.945 343.073C463.955 341.433 465.425 340.229 467.897 340.229C470.251 340.229 471.807 341.326 472.009 343.18ZM486.602 359.32C490.714 359.32 493.335 356.88 493.612 353.407H489.926C489.595 355.165 488.328 356.177 486.634 356.177C484.226 356.177 482.671 354.163 482.671 350.818C482.671 347.516 484.258 345.534 486.634 345.534C488.487 345.534 489.627 346.727 489.926 348.304H493.612C493.345 344.756 490.575 342.423 486.58 342.423C481.786 342.423 478.761 345.886 478.761 350.882C478.761 355.836 481.712 359.32 486.602 359.32ZM501.487 359.33C504.055 359.33 505.589 358.126 506.292 356.752H506.42V359H510.127V348.048C510.127 343.723 506.601 342.423 503.479 342.423C500.038 342.423 497.396 343.957 496.544 346.94L500.145 347.452C500.528 346.333 501.615 345.374 503.501 345.374C505.29 345.374 506.271 346.29 506.271 347.899V347.963C506.271 349.071 505.109 349.124 502.222 349.433C499.048 349.774 496.011 350.722 496.011 354.408C496.011 357.626 498.366 359.33 501.487 359.33ZM502.489 356.496C500.88 356.496 499.729 355.761 499.729 354.344C499.729 352.864 501.018 352.246 502.744 352.001C503.756 351.862 505.781 351.607 506.281 351.202V353.13C506.281 354.952 504.811 356.496 502.489 356.496ZM517.862 349.412C517.862 347.047 519.289 345.683 521.324 345.683C523.316 345.683 524.509 346.994 524.509 349.178V359H528.366V348.581C528.376 344.661 526.139 342.423 522.762 342.423C520.312 342.423 518.629 343.595 517.883 345.417H517.691V342.636H514.005V359H517.862V349.412Z" fill="#151515"/>
<path d="M135.954 520L137.754 514.62H145.957L147.768 520H151.987L144.295 498.182H139.416L131.735 520H135.954ZM138.82 511.445L141.771 502.656H141.941L144.892 511.445H138.82ZM158.547 510.412C158.547 508.047 159.975 506.683 162.009 506.683C164.002 506.683 165.195 507.994 165.195 510.178V520H169.051V509.581C169.062 505.661 166.825 503.423 163.448 503.423C160.997 503.423 159.314 504.595 158.568 506.417H158.377V503.636H154.691V520H158.547V510.412ZM172.972 520H176.828V503.636H172.972V520ZM174.911 501.314C176.136 501.314 177.137 500.376 177.137 499.226C177.137 498.065 176.136 497.127 174.911 497.127C173.675 497.127 172.673 498.065 172.673 499.226C172.673 500.376 173.675 501.314 174.911 501.314ZM180.794 520H184.651V510.05C184.651 508.036 185.993 506.673 187.655 506.673C189.285 506.673 190.403 507.77 190.403 509.453V520H194.185V509.794C194.185 507.951 195.283 506.673 197.147 506.673C198.702 506.673 199.938 507.589 199.938 509.613V520H203.805V509.016C203.805 505.362 201.696 503.423 198.692 503.423C196.316 503.423 194.505 504.595 193.781 506.417H193.61C192.982 504.563 191.394 503.423 189.189 503.423C186.994 503.423 185.354 504.553 184.672 506.417H184.48V503.636H180.794V520ZM212.427 520.33C214.994 520.33 216.528 519.126 217.231 517.752H217.359V520H221.067V509.048C221.067 504.723 217.54 503.423 214.419 503.423C210.978 503.423 208.336 504.957 207.483 507.94L211.084 508.452C211.468 507.333 212.555 506.374 214.44 506.374C216.23 506.374 217.21 507.29 217.21 508.899V508.963C217.21 510.071 216.049 510.124 213.162 510.433C209.987 510.774 206.951 511.722 206.951 515.408C206.951 518.626 209.305 520.33 212.427 520.33ZM213.428 517.496C211.819 517.496 210.669 516.761 210.669 515.344C210.669 513.864 211.958 513.246 213.684 513.001C214.696 512.862 216.72 512.607 217.221 512.202V514.13C217.221 515.952 215.751 517.496 213.428 517.496ZM233.116 503.636H229.888V499.716H226.031V503.636H223.709V506.619H226.031V515.717C226.01 518.796 228.247 520.309 231.145 520.224C232.242 520.192 232.998 519.979 233.414 519.84L232.764 516.825C232.551 516.879 232.114 516.974 231.635 516.974C230.665 516.974 229.888 516.634 229.888 515.078V506.619H233.116V503.636ZM236.341 520H240.197V503.636H236.341V520ZM238.28 501.314C239.505 501.314 240.506 500.376 240.506 499.226C240.506 498.065 239.505 497.127 238.28 497.127C237.044 497.127 236.043 498.065 236.043 499.226C236.043 500.376 237.044 501.314 238.28 501.314ZM251.301 520.32C256.095 520.32 259.142 516.942 259.142 511.882C259.142 506.811 256.095 503.423 251.301 503.423C246.507 503.423 243.46 506.811 243.46 511.882C243.46 516.942 246.507 520.32 251.301 520.32ZM251.322 517.23C248.67 517.23 247.37 514.865 247.37 511.871C247.37 508.878 248.67 506.481 251.322 506.481C253.932 506.481 255.232 508.878 255.232 511.871C255.232 514.865 253.932 517.23 251.322 517.23ZM266.272 510.412C266.272 508.047 267.699 506.683 269.734 506.683C271.726 506.683 272.919 507.994 272.919 510.178V520H276.776V509.581C276.787 505.661 274.549 503.423 271.172 503.423C268.722 503.423 267.039 504.595 266.293 506.417H266.101V503.636H262.415V520H266.272V510.412Z" fill="#151515"/>
<path d="M460.768 505.149H464.795C464.124 500.866 460.417 497.884 455.591 497.884C449.881 497.884 445.598 502.081 445.598 509.112C445.598 516.016 449.689 520.298 455.708 520.298C461.109 520.298 464.977 516.825 464.977 511.2V508.58H456.124V511.669H461.152C461.088 514.78 459.011 516.751 455.729 516.751C452.075 516.751 449.572 514.013 449.572 509.07C449.572 504.158 452.118 501.431 455.644 501.431C458.276 501.431 460.065 502.837 460.768 505.149ZM473.337 520.33C475.904 520.33 477.438 519.126 478.142 517.752H478.269V520H481.977V509.048C481.977 504.723 478.45 503.423 475.329 503.423C471.888 503.423 469.246 504.957 468.394 507.94L471.994 508.452C472.378 507.333 473.465 506.374 475.35 506.374C477.14 506.374 478.12 507.29 478.12 508.899V508.963C478.12 510.071 476.959 510.124 474.072 510.433C470.897 510.774 467.861 511.722 467.861 515.408C467.861 518.626 470.215 520.33 473.337 520.33ZM474.338 517.496C472.73 517.496 471.579 516.761 471.579 515.344C471.579 513.864 472.868 513.246 474.594 513.001C475.606 512.862 477.63 512.607 478.131 512.202V514.13C478.131 515.952 476.661 517.496 474.338 517.496ZM485.855 520H489.711V510.05C489.711 508.036 491.053 506.673 492.715 506.673C494.345 506.673 495.464 507.77 495.464 509.453V520H499.246V509.794C499.246 507.951 500.343 506.673 502.208 506.673C503.763 506.673 504.999 507.589 504.999 509.613V520H508.866V509.016C508.866 505.362 506.757 503.423 503.752 503.423C501.377 503.423 499.566 504.595 498.841 506.417H498.671C498.042 504.563 496.455 503.423 494.249 503.423C492.055 503.423 490.414 504.553 489.732 506.417H489.541V503.636H485.855V520ZM520.023 520.32C523.837 520.32 526.457 518.455 527.139 515.611L523.538 515.206C523.016 516.591 521.738 517.315 520.076 517.315C517.583 517.315 515.932 515.675 515.9 512.873H527.299V511.69C527.299 505.948 523.847 503.423 519.82 503.423C515.133 503.423 512.075 506.864 512.075 511.914C512.075 517.049 515.09 520.32 520.023 520.32ZM515.911 510.273C516.028 508.185 517.572 506.428 519.874 506.428C522.089 506.428 523.581 508.047 523.602 510.273H515.911ZM543.495 507.962C542.962 505.192 540.746 503.423 536.911 503.423C532.969 503.423 530.285 505.362 530.295 508.388C530.285 510.774 531.755 512.351 534.898 513.001L537.689 513.587C539.191 513.917 539.894 514.524 539.894 515.451C539.894 516.57 538.68 517.411 536.847 517.411C535.079 517.411 533.928 516.644 533.598 515.174L529.837 515.536C530.317 518.54 532.841 520.32 536.858 520.32C540.949 520.32 543.836 518.2 543.846 515.099C543.836 512.766 542.334 511.339 539.244 510.668L536.453 510.071C534.791 509.698 534.131 509.123 534.141 508.175C534.131 507.067 535.356 506.3 536.964 506.3C538.743 506.3 539.681 507.269 539.979 508.345L543.495 507.962Z" fill="#151515"/>
<path d="M205.061 232.939C204.475 232.354 203.525 232.354 202.939 232.939L193.393 242.485C192.808 243.071 192.808 244.021 193.393 244.607C193.979 245.192 194.929 245.192 195.515 244.607L204 236.121L212.485 244.607C213.071 245.192 214.021 245.192 214.607 244.607C215.192 244.021 215.192 243.071 214.607 242.485L205.061 232.939ZM202.939 302.061C203.525 302.646 204.475 302.646 205.061 302.061L214.607 292.515C215.192 291.929 215.192 290.979 214.607 290.393C214.021 289.808 213.071 289.808 212.485 290.393L204 298.879L195.515 290.393C194.929 289.808 193.979 289.808 193.393 290.393C192.808 290.979 192.808 291.929 193.393 292.515L202.939 302.061ZM202.5 234V301H205.5V234H202.5Z" fill="#FF8989"/>
<path d="M314.939 348.939C314.354 349.525 314.354 350.475 314.939 351.061L324.485 360.607C325.071 361.192 326.021 361.192 326.607 360.607C327.192 360.021 327.192 359.071 326.607 358.485L318.121 350L326.607 341.515C327.192 340.929 327.192 339.979 326.607 339.393C326.021 338.808 325.071 338.808 324.485 339.393L314.939 348.939ZM386.061 351.061C386.646 350.475 386.646 349.525 386.061 348.939L376.515 339.393C375.929 338.808 374.979 338.808 374.393 339.393C373.808 339.979 373.808 340.929 374.393 341.515L382.879 350L374.393 358.485C373.808 359.071 373.808 360.021 374.393 360.607C374.979 361.192 375.929 361.192 376.515 360.607L386.061 351.061ZM316 351.5H385V348.5H316V351.5Z" fill="#FF8989"/>
<path d="M315 187L385 350" stroke="#FF8989" stroke-width="3" stroke-linecap="round" stroke-linejoin="round"/>
<path d="M385 187L316 509" stroke="#FF8989" stroke-width="3" stroke-linecap="round" stroke-linejoin="round"/>
<path d="M384 187L316 350" stroke="#FF8989" stroke-width="3" stroke-linecap="round" stroke-linejoin="round"/>
<path d="M385 349L316 509" stroke="#FF8989" stroke-width="3" stroke-linecap="round" stroke-linejoin="round"/>
<path d="M385 509L316 350" stroke="#FF8989" stroke-width="3" stroke-linecap="round" stroke-linejoin="round"/>
<path d="M314.939 507.939C314.354 508.525 314.354 509.475 314.939 510.061L324.485 519.607C325.071 520.192 326.021 520.192 326.607 519.607C327.192 519.021 327.192 518.071 326.607 517.485L318.121 509L326.607 500.515C327.192 499.929 327.192 498.979 326.607 498.393C326.021 497.808 325.071 497.808 324.485 498.393L314.939 507.939ZM386.061 510.061C386.646 509.475 386.646 508.525 386.061 507.939L376.515 498.393C375.929 497.808 374.979 497.808 374.393 498.393C373.808 498.979 373.808 499.929 374.393 500.515L382.879 509L374.393 517.485C373.808 518.071 373.808 519.021 374.393 519.607C374.979 520.192 375.929 520.192 376.515 519.607L386.061 510.061ZM316 510.5H385V507.5H316V510.5Z" fill="#FF8989"/>
<path d="M313.939 185.939C313.354 186.525 313.354 187.475 313.939 188.061L323.485 197.607C324.071 198.192 325.021 198.192 325.607 197.607C326.192 197.021 326.192 196.071 325.607 195.485L317.121 187L325.607 178.515C326.192 177.929 326.192 176.979 325.607 176.393C325.021 175.808 324.071 175.808 323.485 176.393L313.939 185.939ZM385.061 188.061C385.646 187.475 385.646 186.525 385.061 185.939L375.515 176.393C374.929 175.808 373.979 175.808 373.393 176.393C372.808 176.979 372.808 177.929 373.393 178.515L381.879 187L373.393 195.485C372.808 196.071 372.808 197.021 373.393 197.607C373.979 198.192 374.929 198.192 375.515 197.607L385.061 188.061ZM315 188.5H384V185.5H315V188.5Z" fill="#FF8989"/>
<path d="M496.061 393.939C495.475 393.354 494.525 393.354 493.939 393.939L484.393 403.485C483.808 404.071 483.808 405.021 484.393 405.607C484.979 406.192 485.929 406.192 486.515 405.607L495 397.121L503.485 405.607C504.071 406.192 505.021 406.192 505.607 405.607C506.192 405.021 506.192 404.071 505.607 403.485L496.061 393.939ZM493.939 464.061C494.525 464.646 495.475 464.646 496.061 464.061L505.607 454.515C506.192 453.929 506.192 452.979 505.607 452.393C505.021 451.808 504.071 451.808 503.485 452.393L495 460.879L486.515 452.393C485.929 451.808 484.979 451.808 484.393 452.393C483.808 452.979 483.808 453.929 484.393 454.515L493.939 464.061ZM493.5 395V463H496.5V395H493.5Z" fill="#FF8989"/>
<path d="M496.061 232.939C495.475 232.354 494.525 232.354 493.939 232.939L484.393 242.485C483.808 243.071 483.808 244.021 484.393 244.607C484.979 245.192 485.929 245.192 486.515 244.607L495 236.121L503.485 244.607C504.071 245.192 505.021 245.192 505.607 244.607C506.192 244.021 506.192 243.071 505.607 242.485L496.061 232.939ZM493.939 304.061C494.525 304.646 495.475 304.646 496.061 304.061L505.607 294.515C506.192 293.929 506.192 292.979 505.607 292.393C505.021 291.808 504.071 291.808 503.485 292.393L495 300.879L486.515 292.393C485.929 291.808 484.979 291.808 484.393 292.393C483.808 292.979 483.808 293.929 484.393 294.515L493.939 304.061ZM493.5 234V303H496.5V234H493.5Z" fill="#FF8989"/>
<path d="M205.061 393.939C204.475 393.354 203.525 393.354 202.939 393.939L193.393 403.485C192.808 404.071 192.808 405.021 193.393 405.607C193.979 406.192 194.929 406.192 195.515 405.607L204 397.121L212.485 405.607C213.071 406.192 214.021 406.192 214.607 405.607C215.192 405.021 215.192 404.071 214.607 403.485L205.061 393.939ZM202.939 463.061C203.525 463.646 204.475 463.646 205.061 463.061L214.607 453.515C215.192 452.929 215.192 451.979 214.607 451.393C214.021 450.808 213.071 450.808 212.485 451.393L204 459.879L195.515 451.393C194.929 450.808 193.979 450.808 193.393 451.393C192.808 451.979 192.808 452.929 193.393 453.515L202.939 463.061ZM202.5 395V462H205.5V395H202.5Z" fill="#FF8989"/>
<defs>
<filter id="filter0_d" x="54" y="112" width="302" height="172" filterUnits="userSpaceOnUse" color-interpolation-filters="sRGB">
<feFlood flood-opacity="0" result="BackgroundImageFix"/>
<feColorMatrix in="SourceAlpha" type="matrix" values="0 0 0 0 0 0 0 0 0 0 0 0 0 0 0 0 0 0 127 0"/>
<feMorphology radius="2" operator="dilate" in="SourceAlpha" result="effect1_dropShadow"/>
<feOffset dy="11"/>
<feGaussianBlur stdDeviation="19.5"/>
<feColorMatrix type="matrix" values="0 0 0 0 0.966667 0 0 0 0 0.585478 0 0 0 0 0.233611 0 0 0 0.83 0"/>
<feBlend mode="normal" in2="BackgroundImageFix" result="effect1_dropShadow"/>
<feBlend mode="normal" in="SourceGraphic" in2="effect1_dropShadow" result="shape"/>
</filter>
<filter id="filter1_d" x="54" y="273" width="302" height="172" filterUnits="userSpaceOnUse" color-interpolation-filters="sRGB">
<feFlood flood-opacity="0" result="BackgroundImageFix"/>
<feColorMatrix in="SourceAlpha" type="matrix" values="0 0 0 0 0 0 0 0 0 0 0 0 0 0 0 0 0 0 127 0"/>
<feMorphology radius="2" operator="dilate" in="SourceAlpha" result="effect1_dropShadow"/>
<feOffset dy="11"/>
<feGaussianBlur stdDeviation="19.5"/>
<feColorMatrix type="matrix" values="0 0 0 0 0.966667 0 0 0 0 0.585478 0 0 0 0 0.233611 0 0 0 0.83 0"/>
<feBlend mode="normal" in2="BackgroundImageFix" result="effect1_dropShadow"/>
<feBlend mode="normal" in="SourceGraphic" in2="effect1_dropShadow" result="shape"/>
</filter>
<filter id="filter2_d" x="54" y="434" width="302" height="172" filterUnits="userSpaceOnUse" color-interpolation-filters="sRGB">
<feFlood flood-opacity="0" result="BackgroundImageFix"/>
<feColorMatrix in="SourceAlpha" type="matrix" values="0 0 0 0 0 0 0 0 0 0 0 0 0 0 0 0 0 0 127 0"/>
<feMorphology radius="2" operator="dilate" in="SourceAlpha" result="effect1_dropShadow"/>
<feOffset dy="11"/>
<feGaussianBlur stdDeviation="19.5"/>
<feColorMatrix type="matrix" values="0 0 0 0 0.966667 0 0 0 0 0.585478 0 0 0 0 0.233611 0 0 0 0.83 0"/>
<feBlend mode="normal" in2="BackgroundImageFix" result="effect1_dropShadow"/>
<feBlend mode="normal" in="SourceGraphic" in2="effect1_dropShadow" result="shape"/>
</filter>
<filter id="filter3_d" x="344" y="112" width="302" height="172" filterUnits="userSpaceOnUse" color-interpolation-filters="sRGB">
<feFlood flood-opacity="0" result="BackgroundImageFix"/>
<feColorMatrix in="SourceAlpha" type="matrix" values="0 0 0 0 0 0 0 0 0 0 0 0 0 0 0 0 0 0 127 0"/>
<feMorphology radius="2" operator="dilate" in="SourceAlpha" result="effect1_dropShadow"/>
<feOffset dy="11"/>
<feGaussianBlur stdDeviation="19.5"/>
<feColorMatrix type="matrix" values="0 0 0 0 0.966667 0 0 0 0 0.585478 0 0 0 0 0.233611 0 0 0 0.83 0"/>
<feBlend mode="normal" in2="BackgroundImageFix" result="effect1_dropShadow"/>
<feBlend mode="normal" in="SourceGraphic" in2="effect1_dropShadow" result="shape"/>
</filter>
<filter id="filter4_d" x="344" y="273" width="302" height="172" filterUnits="userSpaceOnUse" color-interpolation-filters="sRGB">
<feFlood flood-opacity="0" result="BackgroundImageFix"/>
<feColorMatrix in="SourceAlpha" type="matrix" values="0 0 0 0 0 0 0 0 0 0 0 0 0 0 0 0 0 0 127 0"/>
<feMorphology radius="2" operator="dilate" in="SourceAlpha" result="effect1_dropShadow"/>
<feOffset dy="11"/>
<feGaussianBlur stdDeviation="19.5"/>
<feColorMatrix type="matrix" values="0 0 0 0 0.966667 0 0 0 0 0.585478 0 0 0 0 0.233611 0 0 0 0.83 0"/>
<feBlend mode="normal" in2="BackgroundImageFix" result="effect1_dropShadow"/>
<feBlend mode="normal" in="SourceGraphic" in2="effect1_dropShadow" result="shape"/>
</filter>
<filter id="filter5_d" x="344" y="434" width="302" height="172" filterUnits="userSpaceOnUse" color-interpolation-filters="sRGB">
<feFlood flood-opacity="0" result="BackgroundImageFix"/>
<feColorMatrix in="SourceAlpha" type="matrix" values="0 0 0 0 0 0 0 0 0 0 0 0 0 0 0 0 0 0 127 0"/>
<feMorphology radius="2" operator="dilate" in="SourceAlpha" result="effect1_dropShadow"/>
<feOffset dy="11"/>
<feGaussianBlur stdDeviation="19.5"/>
<feColorMatrix type="matrix" values="0 0 0 0 0.966667 0 0 0 0 0.585478 0 0 0 0 0.233611 0 0 0 0.83 0"/>
<feBlend mode="normal" in2="BackgroundImageFix" result="effect1_dropShadow"/>
<feBlend mode="normal" in="SourceGraphic" in2="effect1_dropShadow" result="shape"/>
</filter>
</defs>
</svg>
