<svg width="881" height="650" viewBox="0 0 881 650" fill="none" xmlns="http://www.w3.org/2000/svg">
<rect width="881" height="650" fill="white"/>
<g filter="url(#filter0_d)">
<rect x="602" y="153" width="133" height="162" rx="10" fill="white"/>
</g>
<path d="M620.644 206.825V211H619.238V200.336H623.171C624.338 200.336 625.251 200.634 625.91 201.229C626.574 201.825 626.906 202.614 626.906 203.595C626.906 204.63 626.582 205.429 625.932 205.99C625.288 206.547 624.362 206.825 623.156 206.825H620.644ZM620.644 205.675H623.171C623.923 205.675 624.499 205.5 624.899 205.148C625.3 204.792 625.5 204.279 625.5 203.61C625.5 202.975 625.3 202.467 624.899 202.086C624.499 201.706 623.95 201.508 623.251 201.493H620.644V205.675ZM631.674 211.146C630.6 211.146 629.726 210.795 629.052 210.092C628.378 209.384 628.042 208.439 628.042 207.257V207.008C628.042 206.222 628.19 205.521 628.488 204.906C628.791 204.286 629.211 203.803 629.748 203.456C630.29 203.104 630.876 202.929 631.506 202.929C632.536 202.929 633.337 203.268 633.908 203.947C634.479 204.625 634.765 205.597 634.765 206.862V207.426H629.396C629.416 208.207 629.643 208.839 630.078 209.323C630.517 209.801 631.074 210.041 631.748 210.041C632.226 210.041 632.631 209.943 632.963 209.748C633.295 209.552 633.586 209.293 633.835 208.971L634.663 209.616C633.999 210.636 633.002 211.146 631.674 211.146ZM631.506 204.042C630.959 204.042 630.5 204.242 630.129 204.643C629.758 205.038 629.528 205.595 629.44 206.312H633.41V206.21C633.371 205.521 633.186 204.989 632.854 204.613C632.521 204.232 632.072 204.042 631.506 204.042ZM637.622 203.075L637.666 204.071C638.271 203.31 639.062 202.929 640.039 202.929C641.713 202.929 642.558 203.874 642.573 205.763V211H641.218V205.756C641.213 205.185 641.081 204.762 640.822 204.489C640.568 204.215 640.17 204.079 639.628 204.079C639.189 204.079 638.803 204.196 638.471 204.43C638.139 204.665 637.88 204.972 637.695 205.353V211H636.34V203.075H637.622ZM644.294 206.972C644.294 205.736 644.58 204.755 645.151 204.027C645.722 203.295 646.479 202.929 647.421 202.929C648.388 202.929 649.143 203.271 649.685 203.954L649.75 203.075H650.988V210.81C650.988 211.835 650.683 212.643 650.073 213.234C649.467 213.825 648.652 214.12 647.626 214.12C647.055 214.12 646.496 213.998 645.949 213.754C645.402 213.51 644.985 213.175 644.697 212.75L645.4 211.938C645.981 212.655 646.691 213.014 647.531 213.014C648.19 213.014 648.703 212.829 649.069 212.458C649.44 212.086 649.626 211.564 649.626 210.89V210.209C649.084 210.834 648.344 211.146 647.407 211.146C646.479 211.146 645.727 210.773 645.151 210.026C644.58 209.279 644.294 208.261 644.294 206.972ZM645.656 207.125C645.656 208.019 645.839 208.722 646.206 209.235C646.572 209.743 647.084 209.997 647.744 209.997C648.598 209.997 649.226 209.608 649.626 208.832V205.214C649.211 204.457 648.588 204.079 647.758 204.079C647.099 204.079 646.584 204.335 646.213 204.848C645.842 205.36 645.656 206.12 645.656 207.125ZM656.328 211.146C655.253 211.146 654.379 210.795 653.706 210.092C653.032 209.384 652.695 208.439 652.695 207.257V207.008C652.695 206.222 652.844 205.521 653.142 204.906C653.444 204.286 653.864 203.803 654.401 203.456C654.943 203.104 655.529 202.929 656.159 202.929C657.189 202.929 657.99 203.268 658.562 203.947C659.133 204.625 659.418 205.597 659.418 206.862V207.426H654.05C654.069 208.207 654.296 208.839 654.731 209.323C655.17 209.801 655.727 210.041 656.401 210.041C656.879 210.041 657.285 209.943 657.617 209.748C657.949 209.552 658.239 209.293 658.488 208.971L659.316 209.616C658.652 210.636 657.656 211.146 656.328 211.146ZM656.159 204.042C655.612 204.042 655.153 204.242 654.782 204.643C654.411 205.038 654.182 205.595 654.094 206.312H658.063V206.21C658.024 205.521 657.839 204.989 657.507 204.613C657.175 204.232 656.726 204.042 656.159 204.042ZM662.275 203.075L662.319 204.071C662.924 203.31 663.715 202.929 664.692 202.929C666.367 202.929 667.211 203.874 667.226 205.763V211H665.871V205.756C665.866 205.185 665.734 204.762 665.476 204.489C665.222 204.215 664.824 204.079 664.282 204.079C663.842 204.079 663.457 204.196 663.125 204.43C662.792 204.665 662.534 204.972 662.348 205.353V211H660.993V203.075H662.275ZM674.162 211C674.084 210.844 674.021 210.565 673.972 210.165C673.342 210.819 672.59 211.146 671.716 211.146C670.935 211.146 670.292 210.927 669.79 210.487C669.292 210.043 669.042 209.481 669.042 208.803C669.042 207.978 669.355 207.338 669.98 206.884C670.61 206.425 671.494 206.195 672.631 206.195H673.95V205.573C673.95 205.099 673.808 204.723 673.525 204.445C673.242 204.162 672.824 204.02 672.272 204.02C671.789 204.02 671.384 204.142 671.057 204.386C670.729 204.63 670.566 204.926 670.566 205.272H669.204C669.204 204.877 669.343 204.496 669.621 204.13C669.904 203.759 670.285 203.466 670.764 203.251C671.247 203.036 671.777 202.929 672.353 202.929C673.266 202.929 673.981 203.158 674.499 203.617C675.017 204.071 675.285 204.699 675.305 205.5V209.147C675.305 209.875 675.397 210.453 675.583 210.883V211H674.162ZM671.914 209.967C672.338 209.967 672.741 209.857 673.122 209.638C673.503 209.418 673.779 209.132 673.95 208.781V207.155H672.888C671.228 207.155 670.397 207.641 670.397 208.612C670.397 209.037 670.539 209.369 670.822 209.608C671.105 209.848 671.469 209.967 671.914 209.967ZM678.901 211H677.546V199.75H678.901V211ZM685.969 211C685.891 210.844 685.827 210.565 685.778 210.165C685.148 210.819 684.396 211.146 683.522 211.146C682.741 211.146 682.099 210.927 681.596 210.487C681.098 210.043 680.849 209.481 680.849 208.803C680.849 207.978 681.162 207.338 681.787 206.884C682.417 206.425 683.3 206.195 684.438 206.195H685.756V205.573C685.756 205.099 685.615 204.723 685.332 204.445C685.048 204.162 684.631 204.02 684.079 204.02C683.596 204.02 683.19 204.142 682.863 204.386C682.536 204.63 682.373 204.926 682.373 205.272H681.01C681.01 204.877 681.149 204.496 681.428 204.13C681.711 203.759 682.092 203.466 682.57 203.251C683.054 203.036 683.583 202.929 684.16 202.929C685.073 202.929 685.788 203.158 686.306 203.617C686.823 204.071 687.092 204.699 687.111 205.5V209.147C687.111 209.875 687.204 210.453 687.39 210.883V211H685.969ZM683.72 209.967C684.145 209.967 684.548 209.857 684.929 209.638C685.31 209.418 685.585 209.132 685.756 208.781V207.155H684.694C683.034 207.155 682.204 207.641 682.204 208.612C682.204 209.037 682.346 209.369 682.629 209.608C682.912 209.848 683.276 209.967 683.72 209.967ZM690.517 203.075L690.561 204.071C691.167 203.31 691.958 202.929 692.934 202.929C694.609 202.929 695.454 203.874 695.468 205.763V211H694.113V205.756C694.108 205.185 693.977 204.762 693.718 204.489C693.464 204.215 693.066 204.079 692.524 204.079C692.084 204.079 691.699 204.196 691.367 204.43C691.035 204.665 690.776 204.972 690.59 205.353V211H689.235V203.075H690.517Z" fill="black"/>
<path d="M623.098 170.781L626.75 181.094L630.383 170.781H634.23V185H631.291V181.113L631.584 174.404L627.746 185H625.734L621.906 174.414L622.199 181.113V185H619.27V170.781H623.098ZM642.727 185C642.596 184.746 642.502 184.43 642.443 184.053C641.76 184.814 640.871 185.195 639.777 185.195C638.742 185.195 637.883 184.896 637.199 184.297C636.522 183.698 636.184 182.943 636.184 182.031C636.184 180.911 636.597 180.052 637.424 179.453C638.257 178.854 639.458 178.551 641.027 178.545H642.326V177.939C642.326 177.451 642.199 177.061 641.945 176.768C641.698 176.475 641.304 176.328 640.764 176.328C640.288 176.328 639.914 176.442 639.641 176.67C639.374 176.898 639.24 177.21 639.24 177.607H636.418C636.418 176.995 636.607 176.429 636.984 175.908C637.362 175.387 637.896 174.98 638.586 174.688C639.276 174.388 640.051 174.238 640.91 174.238C642.212 174.238 643.244 174.567 644.006 175.225C644.774 175.876 645.158 176.794 645.158 177.979V182.559C645.165 183.561 645.305 184.32 645.578 184.834V185H642.727ZM640.393 183.037C640.809 183.037 641.193 182.946 641.545 182.764C641.896 182.575 642.157 182.324 642.326 182.012V180.195H641.271C639.859 180.195 639.107 180.684 639.016 181.66L639.006 181.826C639.006 182.178 639.13 182.467 639.377 182.695C639.624 182.923 639.963 183.037 640.393 183.037ZM650.705 171.836V174.434H652.512V176.504H650.705V181.777C650.705 182.168 650.78 182.448 650.93 182.617C651.079 182.786 651.366 182.871 651.789 182.871C652.102 182.871 652.378 182.848 652.619 182.803V184.941C652.066 185.111 651.496 185.195 650.91 185.195C648.931 185.195 647.922 184.196 647.883 182.197V176.504H646.34V174.434H647.883V171.836H650.705ZM660.021 177.08C659.637 177.028 659.299 177.002 659.006 177.002C657.938 177.002 657.238 177.363 656.906 178.086V185H654.084V174.434H656.75L656.828 175.693C657.395 174.723 658.179 174.238 659.182 174.238C659.494 174.238 659.787 174.281 660.061 174.365L660.021 177.08ZM664.367 185H661.535V174.434H664.367V185ZM661.369 171.699C661.369 171.276 661.509 170.928 661.789 170.654C662.076 170.381 662.463 170.244 662.951 170.244C663.433 170.244 663.817 170.381 664.104 170.654C664.39 170.928 664.533 171.276 664.533 171.699C664.533 172.129 664.387 172.48 664.094 172.754C663.807 173.027 663.426 173.164 662.951 173.164C662.476 173.164 662.092 173.027 661.799 172.754C661.512 172.48 661.369 172.129 661.369 171.699ZM670.539 180.762L669.523 181.777V185H666.701V170H669.523V178.311L670.07 177.607L672.775 174.434H676.164L672.346 178.838L676.496 185H673.254L670.539 180.762ZM683.107 182.08C683.107 181.735 682.935 181.465 682.59 181.27C682.251 181.068 681.704 180.889 680.949 180.732C678.436 180.205 677.18 179.137 677.18 177.529C677.18 176.592 677.567 175.811 678.342 175.186C679.123 174.554 680.142 174.238 681.398 174.238C682.74 174.238 683.811 174.554 684.611 175.186C685.419 175.817 685.822 176.637 685.822 177.646H683C683 177.243 682.87 176.911 682.609 176.65C682.349 176.383 681.942 176.25 681.389 176.25C680.913 176.25 680.546 176.357 680.285 176.572C680.025 176.787 679.895 177.061 679.895 177.393C679.895 177.705 680.041 177.959 680.334 178.154C680.633 178.343 681.135 178.509 681.838 178.652C682.541 178.789 683.133 178.945 683.615 179.121C685.106 179.668 685.852 180.615 685.852 181.963C685.852 182.926 685.438 183.708 684.611 184.307C683.785 184.899 682.717 185.195 681.408 185.195C680.523 185.195 679.735 185.039 679.045 184.727C678.361 184.408 677.824 183.975 677.434 183.428C677.043 182.874 676.848 182.279 676.848 181.641H679.523C679.549 182.142 679.735 182.526 680.08 182.793C680.425 183.06 680.887 183.193 681.467 183.193C682.007 183.193 682.414 183.092 682.688 182.891C682.967 182.682 683.107 182.412 683.107 182.08Z" fill="black"/>
<path d="M622.768 239.132L625.815 230.336H627.353L623.398 241H622.153L618.205 230.336H619.736L622.768 239.132ZM633.132 241C633.054 240.844 632.99 240.565 632.941 240.165C632.312 240.819 631.56 241.146 630.686 241.146C629.904 241.146 629.262 240.927 628.759 240.487C628.261 240.043 628.012 239.481 628.012 238.803C628.012 237.978 628.325 237.338 628.95 236.884C629.58 236.425 630.463 236.195 631.601 236.195H632.919V235.573C632.919 235.099 632.778 234.723 632.495 234.445C632.211 234.162 631.794 234.02 631.242 234.02C630.759 234.02 630.354 234.142 630.026 234.386C629.699 234.63 629.536 234.926 629.536 235.272H628.173C628.173 234.877 628.312 234.496 628.591 234.13C628.874 233.759 629.255 233.466 629.733 233.251C630.217 233.036 630.747 232.929 631.323 232.929C632.236 232.929 632.951 233.158 633.469 233.617C633.986 234.071 634.255 234.699 634.274 235.5V239.147C634.274 239.875 634.367 240.453 634.553 240.883V241H633.132ZM630.883 239.967C631.308 239.967 631.711 239.857 632.092 239.638C632.473 239.418 632.749 239.132 632.919 238.781V237.155H631.857C630.197 237.155 629.367 237.641 629.367 238.612C629.367 239.037 629.509 239.369 629.792 239.608C630.075 239.848 630.439 239.967 630.883 239.967ZM640.229 234.291C640.024 234.257 639.802 234.24 639.562 234.24C638.674 234.24 638.071 234.618 637.753 235.375V241H636.398V233.075H637.717L637.739 233.991C638.183 233.283 638.813 232.929 639.628 232.929C639.892 232.929 640.092 232.963 640.229 233.031V234.291ZM642.954 241H641.599V233.075H642.954V241ZM641.489 230.973C641.489 230.753 641.555 230.568 641.687 230.417C641.823 230.265 642.023 230.189 642.287 230.189C642.551 230.189 642.751 230.265 642.888 230.417C643.024 230.568 643.093 230.753 643.093 230.973C643.093 231.193 643.024 231.376 642.888 231.522C642.751 231.669 642.551 231.742 642.287 231.742C642.023 231.742 641.823 231.669 641.687 231.522C641.555 231.376 641.489 231.193 641.489 230.973ZM650.021 241C649.943 240.844 649.88 240.565 649.831 240.165C649.201 240.819 648.449 241.146 647.575 241.146C646.794 241.146 646.152 240.927 645.649 240.487C645.151 240.043 644.902 239.481 644.902 238.803C644.902 237.978 645.214 237.338 645.839 236.884C646.469 236.425 647.353 236.195 648.491 236.195H649.809V235.573C649.809 235.099 649.667 234.723 649.384 234.445C649.101 234.162 648.684 234.02 648.132 234.02C647.648 234.02 647.243 234.142 646.916 234.386C646.589 234.63 646.425 234.926 646.425 235.272H645.063C645.063 234.877 645.202 234.496 645.48 234.13C645.764 233.759 646.145 233.466 646.623 233.251C647.106 233.036 647.636 232.929 648.212 232.929C649.125 232.929 649.841 233.158 650.358 233.617C650.876 234.071 651.145 234.699 651.164 235.5V239.147C651.164 239.875 651.257 240.453 651.442 240.883V241H650.021ZM647.773 239.967C648.198 239.967 648.601 239.857 648.981 239.638C649.362 239.418 649.638 239.132 649.809 238.781V237.155H648.747C647.087 237.155 646.257 237.641 646.257 238.612C646.257 239.037 646.398 239.369 646.682 239.608C646.965 239.848 647.329 239.967 647.773 239.967ZM659.997 237.125C659.997 238.336 659.719 239.311 659.162 240.048C658.605 240.78 657.858 241.146 656.921 241.146C655.92 241.146 655.146 240.792 654.599 240.084L654.533 241H653.288V229.75H654.643V233.947C655.19 233.268 655.944 232.929 656.906 232.929C657.868 232.929 658.623 233.292 659.169 234.02C659.721 234.748 659.997 235.744 659.997 237.008V237.125ZM658.642 236.972C658.642 236.049 658.464 235.336 658.107 234.833C657.751 234.33 657.238 234.079 656.569 234.079C655.676 234.079 655.034 234.494 654.643 235.324V238.751C655.058 239.582 655.705 239.997 656.584 239.997C657.233 239.997 657.739 239.745 658.1 239.242C658.461 238.739 658.642 237.982 658.642 236.972ZM665 241.146C663.925 241.146 663.051 240.795 662.377 240.092C661.704 239.384 661.367 238.439 661.367 237.257V237.008C661.367 236.222 661.516 235.521 661.813 234.906C662.116 234.286 662.536 233.803 663.073 233.456C663.615 233.104 664.201 232.929 664.831 232.929C665.861 232.929 666.662 233.268 667.233 233.947C667.805 234.625 668.09 235.597 668.09 236.862V237.426H662.722C662.741 238.207 662.968 238.839 663.403 239.323C663.842 239.801 664.399 240.041 665.073 240.041C665.551 240.041 665.957 239.943 666.289 239.748C666.621 239.552 666.911 239.293 667.16 238.971L667.988 239.616C667.324 240.636 666.328 241.146 665 241.146ZM664.831 234.042C664.284 234.042 663.825 234.242 663.454 234.643C663.083 235.038 662.854 235.595 662.766 236.312H666.735V236.21C666.696 235.521 666.511 234.989 666.179 234.613C665.847 234.232 665.397 234.042 664.831 234.042ZM671.137 241H669.782V229.75H671.137V241Z" fill="black"/>
<path d="M623.149 266.686H620.644V271H619.23V260.336H622.761C623.962 260.336 624.885 260.609 625.529 261.156C626.179 261.703 626.503 262.499 626.503 263.544C626.503 264.208 626.323 264.787 625.961 265.28C625.605 265.773 625.107 266.142 624.467 266.386L626.972 270.912V271H625.463L623.149 266.686ZM620.644 265.536H622.805C623.503 265.536 624.057 265.355 624.467 264.994C624.882 264.633 625.09 264.149 625.09 263.544C625.09 262.885 624.892 262.379 624.497 262.028C624.106 261.676 623.54 261.498 622.797 261.493H620.644V265.536ZM633.161 270.216C632.634 270.836 631.86 271.146 630.839 271.146C629.995 271.146 629.35 270.902 628.906 270.414C628.466 269.921 628.244 269.193 628.239 268.231V263.075H629.594V268.195C629.594 269.396 630.083 269.997 631.059 269.997C632.094 269.997 632.783 269.611 633.125 268.839V263.075H634.479V271H633.19L633.161 270.216ZM637.819 263.075L637.856 263.954C638.437 263.271 639.221 262.929 640.207 262.929C641.315 262.929 642.07 263.354 642.47 264.203C642.734 263.822 643.076 263.515 643.496 263.28C643.92 263.046 644.421 262.929 644.997 262.929C646.735 262.929 647.619 263.849 647.648 265.69V271H646.293V265.771C646.293 265.204 646.164 264.782 645.905 264.503C645.646 264.22 645.212 264.079 644.602 264.079C644.099 264.079 643.681 264.23 643.349 264.533C643.017 264.831 642.824 265.233 642.771 265.741V271H641.408V265.807C641.408 264.655 640.844 264.079 639.716 264.079C638.828 264.079 638.22 264.457 637.893 265.214V271H636.538V263.075H637.819ZM654.592 270.216C654.064 270.836 653.291 271.146 652.27 271.146C651.425 271.146 650.781 270.902 650.336 270.414C649.897 269.921 649.675 269.193 649.67 268.231V263.075H651.025V268.195C651.025 269.396 651.513 269.997 652.49 269.997C653.525 269.997 654.213 269.611 654.555 268.839V263.075H655.91V271H654.621L654.592 270.216ZM662.59 268.898C662.59 268.532 662.451 268.249 662.172 268.048C661.899 267.843 661.418 267.667 660.729 267.521C660.046 267.375 659.501 267.199 659.096 266.994C658.696 266.789 658.398 266.544 658.203 266.261C658.012 265.978 657.917 265.641 657.917 265.25C657.917 264.601 658.19 264.052 658.737 263.603C659.289 263.153 659.992 262.929 660.847 262.929C661.745 262.929 662.473 263.161 663.029 263.625C663.591 264.088 663.872 264.682 663.872 265.404H662.509C662.509 265.033 662.351 264.713 662.033 264.445C661.721 264.176 661.325 264.042 660.847 264.042C660.354 264.042 659.968 264.149 659.689 264.364C659.411 264.579 659.272 264.86 659.272 265.207C659.272 265.534 659.401 265.78 659.66 265.946C659.919 266.112 660.385 266.271 661.059 266.422C661.738 266.574 662.287 266.754 662.707 266.964C663.127 267.174 663.437 267.428 663.637 267.726C663.842 268.019 663.945 268.378 663.945 268.803C663.945 269.511 663.662 270.08 663.095 270.509C662.529 270.934 661.794 271.146 660.891 271.146C660.256 271.146 659.694 271.034 659.206 270.81C658.718 270.585 658.334 270.272 658.056 269.872C657.783 269.467 657.646 269.03 657.646 268.561H659.001C659.025 269.015 659.206 269.376 659.543 269.645C659.885 269.909 660.334 270.041 660.891 270.041C661.403 270.041 661.813 269.938 662.121 269.733C662.434 269.523 662.59 269.245 662.59 268.898Z" fill="black"/>
<path d="M627.082 297.616C626.95 298.744 626.533 299.616 625.83 300.231C625.131 300.841 624.201 301.146 623.039 301.146C621.779 301.146 620.769 300.695 620.007 299.792C619.25 298.888 618.872 297.68 618.872 296.166V295.141C618.872 294.149 619.047 293.278 619.399 292.526C619.755 291.774 620.258 291.198 620.908 290.797C621.557 290.392 622.309 290.189 623.164 290.189C624.296 290.189 625.205 290.507 625.888 291.142C626.572 291.771 626.97 292.646 627.082 293.764H625.668C625.546 292.914 625.28 292.299 624.87 291.918C624.465 291.537 623.896 291.347 623.164 291.347C622.265 291.347 621.56 291.679 621.047 292.343C620.539 293.007 620.285 293.952 620.285 295.177V296.21C620.285 297.367 620.527 298.288 621.01 298.971C621.494 299.655 622.17 299.997 623.039 299.997C623.82 299.997 624.418 299.821 624.833 299.469C625.253 299.113 625.532 298.495 625.668 297.616H627.082ZM628.437 296.964C628.437 296.188 628.588 295.49 628.891 294.87C629.199 294.25 629.624 293.771 630.166 293.434C630.712 293.097 631.335 292.929 632.033 292.929C633.112 292.929 633.984 293.302 634.648 294.049C635.317 294.796 635.651 295.79 635.651 297.03V297.125C635.651 297.897 635.502 298.59 635.205 299.206C634.912 299.816 634.489 300.292 633.938 300.634C633.391 300.976 632.761 301.146 632.048 301.146C630.974 301.146 630.102 300.773 629.433 300.026C628.769 299.279 628.437 298.29 628.437 297.06V296.964ZM629.799 297.125C629.799 298.004 630.002 298.71 630.407 299.242C630.817 299.774 631.364 300.041 632.048 300.041C632.736 300.041 633.283 299.772 633.688 299.235C634.094 298.693 634.296 297.936 634.296 296.964C634.296 296.095 634.089 295.392 633.674 294.855C633.264 294.313 632.717 294.042 632.033 294.042C631.364 294.042 630.825 294.308 630.415 294.84C630.004 295.373 629.799 296.134 629.799 297.125ZM638.632 293.075L638.676 294.071C639.282 293.31 640.073 292.929 641.049 292.929C642.724 292.929 643.569 293.874 643.583 295.763V301H642.229V295.756C642.224 295.185 642.092 294.762 641.833 294.489C641.579 294.215 641.181 294.079 640.639 294.079C640.2 294.079 639.814 294.196 639.482 294.43C639.15 294.665 638.891 294.972 638.706 295.353V301H637.351V293.075H638.632ZM647.465 291.156V293.075H648.945V294.123H647.465V299.037C647.465 299.354 647.531 299.594 647.663 299.755C647.795 299.911 648.02 299.989 648.337 299.989C648.493 299.989 648.708 299.96 648.981 299.901V301C648.625 301.098 648.278 301.146 647.941 301.146C647.336 301.146 646.879 300.963 646.572 300.597C646.264 300.231 646.11 299.711 646.11 299.037V294.123H644.667V293.075H646.11V291.156H647.465ZM650.029 296.964C650.029 296.188 650.18 295.49 650.483 294.87C650.791 294.25 651.215 293.771 651.757 293.434C652.304 293.097 652.927 292.929 653.625 292.929C654.704 292.929 655.576 293.302 656.24 294.049C656.909 294.796 657.243 295.79 657.243 297.03V297.125C657.243 297.897 657.094 298.59 656.796 299.206C656.503 299.816 656.081 300.292 655.529 300.634C654.982 300.976 654.353 301.146 653.64 301.146C652.565 301.146 651.694 300.773 651.025 300.026C650.361 299.279 650.029 298.29 650.029 297.06V296.964ZM651.391 297.125C651.391 298.004 651.594 298.71 651.999 299.242C652.409 299.774 652.956 300.041 653.64 300.041C654.328 300.041 654.875 299.772 655.28 299.235C655.686 298.693 655.888 297.936 655.888 296.964C655.888 296.095 655.681 295.392 655.266 294.855C654.855 294.313 654.309 294.042 653.625 294.042C652.956 294.042 652.417 294.308 652.006 294.84C651.596 295.373 651.391 296.134 651.391 297.125ZM660.297 294.035C660.898 293.297 661.679 292.929 662.641 292.929C664.316 292.929 665.161 293.874 665.175 295.763V301H663.82V295.756C663.815 295.185 663.684 294.762 663.425 294.489C663.171 294.215 662.773 294.079 662.231 294.079C661.792 294.079 661.406 294.196 661.074 294.43C660.742 294.665 660.483 294.972 660.297 295.353V301H658.942V289.75H660.297V294.035ZM674.279 296.247C673.073 295.9 672.194 295.475 671.643 294.972C671.096 294.464 670.822 293.839 670.822 293.097C670.822 292.257 671.157 291.564 671.826 291.017C672.5 290.465 673.374 290.189 674.448 290.189C675.18 290.189 675.832 290.331 676.403 290.614C676.979 290.897 677.424 291.288 677.736 291.786C678.054 292.284 678.212 292.829 678.212 293.419H676.799C676.799 292.775 676.594 292.27 676.184 291.903C675.773 291.532 675.195 291.347 674.448 291.347C673.754 291.347 673.212 291.5 672.822 291.808C672.436 292.111 672.243 292.533 672.243 293.075C672.243 293.51 672.426 293.878 672.792 294.181C673.164 294.479 673.791 294.752 674.675 295.001C675.563 295.25 676.257 295.526 676.755 295.829C677.258 296.127 677.629 296.476 677.868 296.876C678.112 297.277 678.234 297.748 678.234 298.29C678.234 299.154 677.897 299.848 677.224 300.37C676.55 300.888 675.649 301.146 674.521 301.146C673.789 301.146 673.105 301.007 672.47 300.729C671.835 300.446 671.345 300.06 670.998 299.572C670.656 299.083 670.485 298.529 670.485 297.909H671.899C671.899 298.554 672.136 299.064 672.609 299.44C673.088 299.811 673.725 299.997 674.521 299.997C675.263 299.997 675.832 299.845 676.228 299.542C676.623 299.24 676.821 298.827 676.821 298.305C676.821 297.782 676.638 297.379 676.271 297.096C675.905 296.808 675.241 296.525 674.279 296.247ZM679.472 296.964C679.472 296.188 679.624 295.49 679.926 294.87C680.234 294.25 680.659 293.771 681.201 293.434C681.748 293.097 682.37 292.929 683.068 292.929C684.147 292.929 685.019 293.302 685.683 294.049C686.352 294.796 686.687 295.79 686.687 297.03V297.125C686.687 297.897 686.538 298.59 686.24 299.206C685.947 299.816 685.524 300.292 684.973 300.634C684.426 300.976 683.796 301.146 683.083 301.146C682.009 301.146 681.137 300.773 680.468 300.026C679.804 299.279 679.472 298.29 679.472 297.06V296.964ZM680.834 297.125C680.834 298.004 681.037 298.71 681.442 299.242C681.853 299.774 682.399 300.041 683.083 300.041C683.771 300.041 684.318 299.772 684.724 299.235C685.129 298.693 685.332 297.936 685.332 296.964C685.332 296.095 685.124 295.392 684.709 294.855C684.299 294.313 683.752 294.042 683.068 294.042C682.399 294.042 681.86 294.308 681.45 294.84C681.04 295.373 680.834 296.134 680.834 297.125ZM693.278 301C693.2 300.844 693.137 300.565 693.088 300.165C692.458 300.819 691.706 301.146 690.832 301.146C690.051 301.146 689.409 300.927 688.906 300.487C688.408 300.043 688.159 299.481 688.159 298.803C688.159 297.978 688.471 297.338 689.096 296.884C689.726 296.425 690.61 296.195 691.748 296.195H693.066V295.573C693.066 295.099 692.924 294.723 692.641 294.445C692.358 294.162 691.94 294.02 691.389 294.02C690.905 294.02 690.5 294.142 690.173 294.386C689.846 294.63 689.682 294.926 689.682 295.272H688.32C688.32 294.877 688.459 294.496 688.737 294.13C689.021 293.759 689.401 293.466 689.88 293.251C690.363 293.036 690.893 292.929 691.469 292.929C692.382 292.929 693.098 293.158 693.615 293.617C694.133 294.071 694.401 294.699 694.421 295.5V299.147C694.421 299.875 694.514 300.453 694.699 300.883V301H693.278ZM691.03 299.967C691.455 299.967 691.857 299.857 692.238 299.638C692.619 299.418 692.895 299.132 693.066 298.781V297.155H692.004C690.344 297.155 689.514 297.641 689.514 298.612C689.514 299.037 689.655 299.369 689.938 299.608C690.222 299.848 690.585 299.967 691.03 299.967ZM698.017 301H696.662V289.75H698.017V301Z" fill="black"/>
<g filter="url(#filter1_d)">
<rect x="203" y="385" width="133" height="162" rx="10" fill="white"/>
</g>
<path d="M221.644 438.825V443H220.238V432.336H224.171C225.338 432.336 226.251 432.634 226.91 433.229C227.574 433.825 227.906 434.614 227.906 435.595C227.906 436.63 227.582 437.429 226.932 437.99C226.288 438.547 225.362 438.825 224.156 438.825H221.644ZM221.644 437.675H224.171C224.923 437.675 225.499 437.5 225.899 437.148C226.3 436.792 226.5 436.279 226.5 435.61C226.5 434.975 226.3 434.467 225.899 434.086C225.499 433.706 224.95 433.508 224.251 433.493H221.644V437.675ZM232.674 443.146C231.6 443.146 230.726 442.795 230.052 442.092C229.378 441.384 229.042 440.439 229.042 439.257V439.008C229.042 438.222 229.19 437.521 229.488 436.906C229.791 436.286 230.211 435.803 230.748 435.456C231.29 435.104 231.876 434.929 232.506 434.929C233.536 434.929 234.337 435.268 234.908 435.947C235.479 436.625 235.765 437.597 235.765 438.862V439.426H230.396C230.416 440.207 230.643 440.839 231.078 441.323C231.517 441.801 232.074 442.041 232.748 442.041C233.226 442.041 233.631 441.943 233.963 441.748C234.295 441.552 234.586 441.293 234.835 440.971L235.663 441.616C234.999 442.636 234.002 443.146 232.674 443.146ZM232.506 436.042C231.959 436.042 231.5 436.242 231.129 436.643C230.758 437.038 230.528 437.595 230.44 438.312H234.41V438.21C234.371 437.521 234.186 436.989 233.854 436.613C233.521 436.232 233.072 436.042 232.506 436.042ZM238.622 435.075L238.666 436.071C239.271 435.31 240.062 434.929 241.039 434.929C242.713 434.929 243.558 435.874 243.573 437.763V443H242.218V437.756C242.213 437.185 242.081 436.762 241.822 436.489C241.568 436.215 241.17 436.079 240.628 436.079C240.189 436.079 239.803 436.196 239.471 436.43C239.139 436.665 238.88 436.972 238.695 437.353V443H237.34V435.075H238.622ZM245.294 438.972C245.294 437.736 245.58 436.755 246.151 436.027C246.722 435.295 247.479 434.929 248.421 434.929C249.388 434.929 250.143 435.271 250.685 435.954L250.75 435.075H251.988V442.81C251.988 443.835 251.683 444.643 251.073 445.234C250.467 445.825 249.652 446.12 248.626 446.12C248.055 446.12 247.496 445.998 246.949 445.754C246.402 445.51 245.985 445.175 245.697 444.75L246.4 443.938C246.981 444.655 247.691 445.014 248.531 445.014C249.19 445.014 249.703 444.829 250.069 444.458C250.44 444.086 250.626 443.564 250.626 442.89V442.209C250.084 442.834 249.344 443.146 248.407 443.146C247.479 443.146 246.727 442.773 246.151 442.026C245.58 441.279 245.294 440.261 245.294 438.972ZM246.656 439.125C246.656 440.019 246.839 440.722 247.206 441.235C247.572 441.743 248.084 441.997 248.744 441.997C249.598 441.997 250.226 441.608 250.626 440.832V437.214C250.211 436.457 249.588 436.079 248.758 436.079C248.099 436.079 247.584 436.335 247.213 436.848C246.842 437.36 246.656 438.12 246.656 439.125ZM257.328 443.146C256.253 443.146 255.379 442.795 254.706 442.092C254.032 441.384 253.695 440.439 253.695 439.257V439.008C253.695 438.222 253.844 437.521 254.142 436.906C254.444 436.286 254.864 435.803 255.401 435.456C255.943 435.104 256.529 434.929 257.159 434.929C258.189 434.929 258.99 435.268 259.562 435.947C260.133 436.625 260.418 437.597 260.418 438.862V439.426H255.05C255.069 440.207 255.296 440.839 255.731 441.323C256.17 441.801 256.727 442.041 257.401 442.041C257.879 442.041 258.285 441.943 258.617 441.748C258.949 441.552 259.239 441.293 259.488 440.971L260.316 441.616C259.652 442.636 258.656 443.146 257.328 443.146ZM257.159 436.042C256.612 436.042 256.153 436.242 255.782 436.643C255.411 437.038 255.182 437.595 255.094 438.312H259.063V438.21C259.024 437.521 258.839 436.989 258.507 436.613C258.175 436.232 257.726 436.042 257.159 436.042ZM263.275 435.075L263.319 436.071C263.924 435.31 264.715 434.929 265.692 434.929C267.367 434.929 268.211 435.874 268.226 437.763V443H266.871V437.756C266.866 437.185 266.734 436.762 266.476 436.489C266.222 436.215 265.824 436.079 265.282 436.079C264.842 436.079 264.457 436.196 264.125 436.43C263.792 436.665 263.534 436.972 263.348 437.353V443H261.993V435.075H263.275ZM275.162 443C275.084 442.844 275.021 442.565 274.972 442.165C274.342 442.819 273.59 443.146 272.716 443.146C271.935 443.146 271.292 442.927 270.79 442.487C270.292 442.043 270.042 441.481 270.042 440.803C270.042 439.978 270.355 439.338 270.98 438.884C271.61 438.425 272.494 438.195 273.631 438.195H274.95V437.573C274.95 437.099 274.808 436.723 274.525 436.445C274.242 436.162 273.824 436.02 273.272 436.02C272.789 436.02 272.384 436.142 272.057 436.386C271.729 436.63 271.566 436.926 271.566 437.272H270.204C270.204 436.877 270.343 436.496 270.621 436.13C270.904 435.759 271.285 435.466 271.764 435.251C272.247 435.036 272.777 434.929 273.353 434.929C274.266 434.929 274.981 435.158 275.499 435.617C276.017 436.071 276.285 436.699 276.305 437.5V441.147C276.305 441.875 276.397 442.453 276.583 442.883V443H275.162ZM272.914 441.967C273.338 441.967 273.741 441.857 274.122 441.638C274.503 441.418 274.779 441.132 274.95 440.781V439.155H273.888C272.228 439.155 271.397 439.641 271.397 440.612C271.397 441.037 271.539 441.369 271.822 441.608C272.105 441.848 272.469 441.967 272.914 441.967ZM279.901 443H278.546V431.75H279.901V443ZM286.969 443C286.891 442.844 286.827 442.565 286.778 442.165C286.148 442.819 285.396 443.146 284.522 443.146C283.741 443.146 283.099 442.927 282.596 442.487C282.098 442.043 281.849 441.481 281.849 440.803C281.849 439.978 282.162 439.338 282.787 438.884C283.417 438.425 284.3 438.195 285.438 438.195H286.756V437.573C286.756 437.099 286.615 436.723 286.332 436.445C286.048 436.162 285.631 436.02 285.079 436.02C284.596 436.02 284.19 436.142 283.863 436.386C283.536 436.63 283.373 436.926 283.373 437.272H282.01C282.01 436.877 282.149 436.496 282.428 436.13C282.711 435.759 283.092 435.466 283.57 435.251C284.054 435.036 284.583 434.929 285.16 434.929C286.073 434.929 286.788 435.158 287.306 435.617C287.823 436.071 288.092 436.699 288.111 437.5V441.147C288.111 441.875 288.204 442.453 288.39 442.883V443H286.969ZM284.72 441.967C285.145 441.967 285.548 441.857 285.929 441.638C286.31 441.418 286.585 441.132 286.756 440.781V439.155H285.694C284.034 439.155 283.204 439.641 283.204 440.612C283.204 441.037 283.346 441.369 283.629 441.608C283.912 441.848 284.276 441.967 284.72 441.967ZM291.517 435.075L291.561 436.071C292.167 435.31 292.958 434.929 293.934 434.929C295.609 434.929 296.454 435.874 296.468 437.763V443H295.113V437.756C295.108 437.185 294.977 436.762 294.718 436.489C294.464 436.215 294.066 436.079 293.524 436.079C293.084 436.079 292.699 436.196 292.367 436.43C292.035 436.665 291.776 436.972 291.59 437.353V443H290.235V435.075H291.517Z" fill="black"/>
<path d="M223.199 414.646H229.42V417H220.27V402.781H223.199V414.646ZM233.902 417H231.07V406.434H233.902V417ZM230.904 403.699C230.904 403.276 231.044 402.928 231.324 402.654C231.611 402.381 231.998 402.244 232.486 402.244C232.968 402.244 233.352 402.381 233.639 402.654C233.925 402.928 234.068 403.276 234.068 403.699C234.068 404.129 233.922 404.48 233.629 404.754C233.342 405.027 232.962 405.164 232.486 405.164C232.011 405.164 231.627 405.027 231.334 404.754C231.048 404.48 230.904 404.129 230.904 403.699ZM238.834 406.434L238.922 407.654C239.677 406.71 240.689 406.238 241.959 406.238C243.079 406.238 243.912 406.567 244.459 407.225C245.006 407.882 245.286 408.865 245.299 410.174V417H242.477V410.242C242.477 409.643 242.346 409.21 242.086 408.943C241.826 408.67 241.393 408.533 240.787 408.533C239.993 408.533 239.397 408.872 239 409.549V417H236.178V406.434H238.834ZM252.311 417.195C250.761 417.195 249.498 416.72 248.521 415.77C247.551 414.819 247.066 413.553 247.066 411.971V411.697C247.066 410.636 247.271 409.689 247.682 408.855C248.092 408.016 248.671 407.371 249.42 406.922C250.175 406.466 251.035 406.238 251.998 406.238C253.443 406.238 254.579 406.694 255.406 407.605C256.24 408.517 256.656 409.809 256.656 411.482V412.635H249.928C250.019 413.325 250.292 413.878 250.748 414.295C251.21 414.712 251.793 414.92 252.496 414.92C253.583 414.92 254.433 414.526 255.045 413.738L256.432 415.291C256.008 415.89 255.436 416.359 254.713 416.697C253.99 417.029 253.189 417.195 252.311 417.195ZM251.988 408.523C251.428 408.523 250.973 408.712 250.621 409.09C250.276 409.467 250.055 410.008 249.957 410.711H253.883V410.486C253.87 409.861 253.701 409.38 253.375 409.041C253.049 408.696 252.587 408.523 251.988 408.523ZM264.391 417C264.26 416.746 264.166 416.43 264.107 416.053C263.424 416.814 262.535 417.195 261.441 417.195C260.406 417.195 259.547 416.896 258.863 416.297C258.186 415.698 257.848 414.943 257.848 414.031C257.848 412.911 258.261 412.052 259.088 411.453C259.921 410.854 261.122 410.551 262.691 410.545H263.99V409.939C263.99 409.451 263.863 409.061 263.609 408.768C263.362 408.475 262.968 408.328 262.428 408.328C261.952 408.328 261.578 408.442 261.305 408.67C261.038 408.898 260.904 409.21 260.904 409.607H258.082C258.082 408.995 258.271 408.429 258.648 407.908C259.026 407.387 259.56 406.98 260.25 406.688C260.94 406.388 261.715 406.238 262.574 406.238C263.876 406.238 264.908 406.567 265.67 407.225C266.438 407.876 266.822 408.794 266.822 409.979V414.559C266.829 415.561 266.969 416.32 267.242 416.834V417H264.391ZM262.057 415.037C262.473 415.037 262.857 414.946 263.209 414.764C263.561 414.575 263.821 414.324 263.99 414.012V412.195H262.936C261.523 412.195 260.771 412.684 260.68 413.66L260.67 413.826C260.67 414.178 260.794 414.467 261.041 414.695C261.288 414.923 261.627 415.037 262.057 415.037ZM274.928 409.08C274.544 409.028 274.205 409.002 273.912 409.002C272.844 409.002 272.145 409.363 271.812 410.086V417H268.99V406.434H271.656L271.734 407.693C272.301 406.723 273.085 406.238 274.088 406.238C274.4 406.238 274.693 406.281 274.967 406.365L274.928 409.08Z" fill="black"/>
<path d="M223.768 471.132L226.815 462.336H228.353L224.398 473H223.153L219.205 462.336H220.736L223.768 471.132ZM234.132 473C234.054 472.844 233.99 472.565 233.941 472.165C233.312 472.819 232.56 473.146 231.686 473.146C230.904 473.146 230.262 472.927 229.759 472.487C229.261 472.043 229.012 471.481 229.012 470.803C229.012 469.978 229.325 469.338 229.95 468.884C230.58 468.425 231.463 468.195 232.601 468.195H233.919V467.573C233.919 467.099 233.778 466.723 233.495 466.445C233.211 466.162 232.794 466.02 232.242 466.02C231.759 466.02 231.354 466.142 231.026 466.386C230.699 466.63 230.536 466.926 230.536 467.272H229.173C229.173 466.877 229.312 466.496 229.591 466.13C229.874 465.759 230.255 465.466 230.733 465.251C231.217 465.036 231.747 464.929 232.323 464.929C233.236 464.929 233.951 465.158 234.469 465.617C234.986 466.071 235.255 466.699 235.274 467.5V471.147C235.274 471.875 235.367 472.453 235.553 472.883V473H234.132ZM231.883 471.967C232.308 471.967 232.711 471.857 233.092 471.638C233.473 471.418 233.749 471.132 233.919 470.781V469.155H232.857C231.197 469.155 230.367 469.641 230.367 470.612C230.367 471.037 230.509 471.369 230.792 471.608C231.075 471.848 231.439 471.967 231.883 471.967ZM241.229 466.291C241.024 466.257 240.802 466.24 240.562 466.24C239.674 466.24 239.071 466.618 238.753 467.375V473H237.398V465.075H238.717L238.739 465.991C239.183 465.283 239.813 464.929 240.628 464.929C240.892 464.929 241.092 464.963 241.229 465.031V466.291ZM243.954 473H242.599V465.075H243.954V473ZM242.489 462.973C242.489 462.753 242.555 462.568 242.687 462.417C242.823 462.265 243.023 462.189 243.287 462.189C243.551 462.189 243.751 462.265 243.888 462.417C244.024 462.568 244.093 462.753 244.093 462.973C244.093 463.193 244.024 463.376 243.888 463.522C243.751 463.669 243.551 463.742 243.287 463.742C243.023 463.742 242.823 463.669 242.687 463.522C242.555 463.376 242.489 463.193 242.489 462.973ZM251.021 473C250.943 472.844 250.88 472.565 250.831 472.165C250.201 472.819 249.449 473.146 248.575 473.146C247.794 473.146 247.152 472.927 246.649 472.487C246.151 472.043 245.902 471.481 245.902 470.803C245.902 469.978 246.214 469.338 246.839 468.884C247.469 468.425 248.353 468.195 249.491 468.195H250.809V467.573C250.809 467.099 250.667 466.723 250.384 466.445C250.101 466.162 249.684 466.02 249.132 466.02C248.648 466.02 248.243 466.142 247.916 466.386C247.589 466.63 247.425 466.926 247.425 467.272H246.063C246.063 466.877 246.202 466.496 246.48 466.13C246.764 465.759 247.145 465.466 247.623 465.251C248.106 465.036 248.636 464.929 249.212 464.929C250.125 464.929 250.841 465.158 251.358 465.617C251.876 466.071 252.145 466.699 252.164 467.5V471.147C252.164 471.875 252.257 472.453 252.442 472.883V473H251.021ZM248.773 471.967C249.198 471.967 249.601 471.857 249.981 471.638C250.362 471.418 250.638 471.132 250.809 470.781V469.155H249.747C248.087 469.155 247.257 469.641 247.257 470.612C247.257 471.037 247.398 471.369 247.682 471.608C247.965 471.848 248.329 471.967 248.773 471.967ZM260.997 469.125C260.997 470.336 260.719 471.311 260.162 472.048C259.605 472.78 258.858 473.146 257.921 473.146C256.92 473.146 256.146 472.792 255.599 472.084L255.533 473H254.288V461.75H255.643V465.947C256.19 465.268 256.944 464.929 257.906 464.929C258.868 464.929 259.623 465.292 260.169 466.02C260.721 466.748 260.997 467.744 260.997 469.008V469.125ZM259.642 468.972C259.642 468.049 259.464 467.336 259.107 466.833C258.751 466.33 258.238 466.079 257.569 466.079C256.676 466.079 256.034 466.494 255.643 467.324V470.751C256.058 471.582 256.705 471.997 257.584 471.997C258.233 471.997 258.739 471.745 259.1 471.242C259.461 470.739 259.642 469.982 259.642 468.972ZM266 473.146C264.925 473.146 264.051 472.795 263.377 472.092C262.704 471.384 262.367 470.439 262.367 469.257V469.008C262.367 468.222 262.516 467.521 262.813 466.906C263.116 466.286 263.536 465.803 264.073 465.456C264.615 465.104 265.201 464.929 265.831 464.929C266.861 464.929 267.662 465.268 268.233 465.947C268.805 466.625 269.09 467.597 269.09 468.862V469.426H263.722C263.741 470.207 263.968 470.839 264.403 471.323C264.842 471.801 265.399 472.041 266.073 472.041C266.551 472.041 266.957 471.943 267.289 471.748C267.621 471.552 267.911 471.293 268.16 470.971L268.988 471.616C268.324 472.636 267.328 473.146 266 473.146ZM265.831 466.042C265.284 466.042 264.825 466.242 264.454 466.643C264.083 467.038 263.854 467.595 263.766 468.312H267.735V468.21C267.696 467.521 267.511 466.989 267.179 466.613C266.847 466.232 266.397 466.042 265.831 466.042ZM272.137 473H270.782V461.75H272.137V473Z" fill="black"/>
<path d="M224.149 498.686H221.644V503H220.23V492.336H223.761C224.962 492.336 225.885 492.609 226.529 493.156C227.179 493.703 227.503 494.499 227.503 495.544C227.503 496.208 227.323 496.787 226.961 497.28C226.605 497.773 226.107 498.142 225.467 498.386L227.972 502.912V503H226.463L224.149 498.686ZM221.644 497.536H223.805C224.503 497.536 225.057 497.355 225.467 496.994C225.882 496.633 226.09 496.149 226.09 495.544C226.09 494.885 225.892 494.379 225.497 494.028C225.106 493.676 224.54 493.498 223.797 493.493H221.644V497.536ZM234.161 502.216C233.634 502.836 232.86 503.146 231.839 503.146C230.995 503.146 230.35 502.902 229.906 502.414C229.466 501.921 229.244 501.193 229.239 500.231V495.075H230.594V500.195C230.594 501.396 231.083 501.997 232.059 501.997C233.094 501.997 233.783 501.611 234.125 500.839V495.075H235.479V503H234.19L234.161 502.216ZM238.819 495.075L238.856 495.954C239.437 495.271 240.221 494.929 241.207 494.929C242.315 494.929 243.07 495.354 243.47 496.203C243.734 495.822 244.076 495.515 244.496 495.28C244.92 495.046 245.421 494.929 245.997 494.929C247.735 494.929 248.619 495.849 248.648 497.69V503H247.293V497.771C247.293 497.204 247.164 496.782 246.905 496.503C246.646 496.22 246.212 496.079 245.602 496.079C245.099 496.079 244.681 496.23 244.349 496.533C244.017 496.831 243.824 497.233 243.771 497.741V503H242.408V497.807C242.408 496.655 241.844 496.079 240.716 496.079C239.828 496.079 239.22 496.457 238.893 497.214V503H237.538V495.075H238.819ZM255.592 502.216C255.064 502.836 254.291 503.146 253.27 503.146C252.425 503.146 251.781 502.902 251.336 502.414C250.897 501.921 250.675 501.193 250.67 500.231V495.075H252.025V500.195C252.025 501.396 252.513 501.997 253.49 501.997C254.525 501.997 255.213 501.611 255.555 500.839V495.075H256.91V503H255.621L255.592 502.216ZM263.59 500.898C263.59 500.532 263.451 500.249 263.172 500.048C262.899 499.843 262.418 499.667 261.729 499.521C261.046 499.375 260.501 499.199 260.096 498.994C259.696 498.789 259.398 498.544 259.203 498.261C259.012 497.978 258.917 497.641 258.917 497.25C258.917 496.601 259.19 496.052 259.737 495.603C260.289 495.153 260.992 494.929 261.847 494.929C262.745 494.929 263.473 495.161 264.029 495.625C264.591 496.088 264.872 496.682 264.872 497.404H263.509C263.509 497.033 263.351 496.713 263.033 496.445C262.721 496.176 262.325 496.042 261.847 496.042C261.354 496.042 260.968 496.149 260.689 496.364C260.411 496.579 260.272 496.86 260.272 497.207C260.272 497.534 260.401 497.78 260.66 497.946C260.919 498.112 261.385 498.271 262.059 498.422C262.738 498.574 263.287 498.754 263.707 498.964C264.127 499.174 264.437 499.428 264.637 499.726C264.842 500.019 264.945 500.378 264.945 500.803C264.945 501.511 264.662 502.08 264.095 502.509C263.529 502.934 262.794 503.146 261.891 503.146C261.256 503.146 260.694 503.034 260.206 502.81C259.718 502.585 259.334 502.272 259.056 501.872C258.783 501.467 258.646 501.03 258.646 500.561H260.001C260.025 501.015 260.206 501.376 260.543 501.645C260.885 501.909 261.334 502.041 261.891 502.041C262.403 502.041 262.813 501.938 263.121 501.733C263.434 501.523 263.59 501.245 263.59 500.898Z" fill="black"/>
<path d="M228.082 529.616C227.95 530.744 227.533 531.616 226.83 532.231C226.131 532.841 225.201 533.146 224.039 533.146C222.779 533.146 221.769 532.695 221.007 531.792C220.25 530.888 219.872 529.68 219.872 528.166V527.141C219.872 526.149 220.047 525.278 220.399 524.526C220.755 523.774 221.258 523.198 221.908 522.797C222.557 522.392 223.309 522.189 224.164 522.189C225.296 522.189 226.205 522.507 226.888 523.142C227.572 523.771 227.97 524.646 228.082 525.764H226.668C226.546 524.914 226.28 524.299 225.87 523.918C225.465 523.537 224.896 523.347 224.164 523.347C223.265 523.347 222.56 523.679 222.047 524.343C221.539 525.007 221.285 525.952 221.285 527.177V528.21C221.285 529.367 221.527 530.288 222.01 530.971C222.494 531.655 223.17 531.997 224.039 531.997C224.82 531.997 225.418 531.821 225.833 531.469C226.253 531.113 226.532 530.495 226.668 529.616H228.082ZM229.437 528.964C229.437 528.188 229.588 527.49 229.891 526.87C230.199 526.25 230.624 525.771 231.166 525.434C231.712 525.097 232.335 524.929 233.033 524.929C234.112 524.929 234.984 525.302 235.648 526.049C236.317 526.796 236.651 527.79 236.651 529.03V529.125C236.651 529.897 236.502 530.59 236.205 531.206C235.912 531.816 235.489 532.292 234.938 532.634C234.391 532.976 233.761 533.146 233.048 533.146C231.974 533.146 231.102 532.773 230.433 532.026C229.769 531.279 229.437 530.29 229.437 529.06V528.964ZM230.799 529.125C230.799 530.004 231.002 530.71 231.407 531.242C231.817 531.774 232.364 532.041 233.048 532.041C233.736 532.041 234.283 531.772 234.688 531.235C235.094 530.693 235.296 529.936 235.296 528.964C235.296 528.095 235.089 527.392 234.674 526.855C234.264 526.313 233.717 526.042 233.033 526.042C232.364 526.042 231.825 526.308 231.415 526.84C231.004 527.373 230.799 528.134 230.799 529.125ZM239.632 525.075L239.676 526.071C240.282 525.31 241.073 524.929 242.049 524.929C243.724 524.929 244.569 525.874 244.583 527.763V533H243.229V527.756C243.224 527.185 243.092 526.762 242.833 526.489C242.579 526.215 242.181 526.079 241.639 526.079C241.2 526.079 240.814 526.196 240.482 526.43C240.15 526.665 239.891 526.972 239.706 527.353V533H238.351V525.075H239.632ZM248.465 523.156V525.075H249.945V526.123H248.465V531.037C248.465 531.354 248.531 531.594 248.663 531.755C248.795 531.911 249.02 531.989 249.337 531.989C249.493 531.989 249.708 531.96 249.981 531.901V533C249.625 533.098 249.278 533.146 248.941 533.146C248.336 533.146 247.879 532.963 247.572 532.597C247.264 532.231 247.11 531.711 247.11 531.037V526.123H245.667V525.075H247.11V523.156H248.465ZM251.029 528.964C251.029 528.188 251.18 527.49 251.483 526.87C251.791 526.25 252.215 525.771 252.757 525.434C253.304 525.097 253.927 524.929 254.625 524.929C255.704 524.929 256.576 525.302 257.24 526.049C257.909 526.796 258.243 527.79 258.243 529.03V529.125C258.243 529.897 258.094 530.59 257.796 531.206C257.503 531.816 257.081 532.292 256.529 532.634C255.982 532.976 255.353 533.146 254.64 533.146C253.565 533.146 252.694 532.773 252.025 532.026C251.361 531.279 251.029 530.29 251.029 529.06V528.964ZM252.391 529.125C252.391 530.004 252.594 530.71 252.999 531.242C253.409 531.774 253.956 532.041 254.64 532.041C255.328 532.041 255.875 531.772 256.28 531.235C256.686 530.693 256.888 529.936 256.888 528.964C256.888 528.095 256.681 527.392 256.266 526.855C255.855 526.313 255.309 526.042 254.625 526.042C253.956 526.042 253.417 526.308 253.006 526.84C252.596 527.373 252.391 528.134 252.391 529.125ZM261.297 526.035C261.898 525.297 262.679 524.929 263.641 524.929C265.316 524.929 266.161 525.874 266.175 527.763V533H264.82V527.756C264.815 527.185 264.684 526.762 264.425 526.489C264.171 526.215 263.773 526.079 263.231 526.079C262.792 526.079 262.406 526.196 262.074 526.43C261.742 526.665 261.483 526.972 261.297 527.353V533H259.942V521.75H261.297V526.035ZM275.279 528.247C274.073 527.9 273.194 527.475 272.643 526.972C272.096 526.464 271.822 525.839 271.822 525.097C271.822 524.257 272.157 523.564 272.826 523.017C273.5 522.465 274.374 522.189 275.448 522.189C276.18 522.189 276.832 522.331 277.403 522.614C277.979 522.897 278.424 523.288 278.736 523.786C279.054 524.284 279.212 524.829 279.212 525.419H277.799C277.799 524.775 277.594 524.27 277.184 523.903C276.773 523.532 276.195 523.347 275.448 523.347C274.754 523.347 274.212 523.5 273.822 523.808C273.436 524.111 273.243 524.533 273.243 525.075C273.243 525.51 273.426 525.878 273.792 526.181C274.164 526.479 274.791 526.752 275.675 527.001C276.563 527.25 277.257 527.526 277.755 527.829C278.258 528.127 278.629 528.476 278.868 528.876C279.112 529.277 279.234 529.748 279.234 530.29C279.234 531.154 278.897 531.848 278.224 532.37C277.55 532.888 276.649 533.146 275.521 533.146C274.789 533.146 274.105 533.007 273.47 532.729C272.835 532.446 272.345 532.06 271.998 531.572C271.656 531.083 271.485 530.529 271.485 529.909H272.899C272.899 530.554 273.136 531.064 273.609 531.44C274.088 531.811 274.725 531.997 275.521 531.997C276.263 531.997 276.832 531.845 277.228 531.542C277.623 531.24 277.821 530.827 277.821 530.305C277.821 529.782 277.638 529.379 277.271 529.096C276.905 528.808 276.241 528.525 275.279 528.247ZM280.472 528.964C280.472 528.188 280.624 527.49 280.926 526.87C281.234 526.25 281.659 525.771 282.201 525.434C282.748 525.097 283.37 524.929 284.068 524.929C285.147 524.929 286.019 525.302 286.683 526.049C287.352 526.796 287.687 527.79 287.687 529.03V529.125C287.687 529.897 287.538 530.59 287.24 531.206C286.947 531.816 286.524 532.292 285.973 532.634C285.426 532.976 284.796 533.146 284.083 533.146C283.009 533.146 282.137 532.773 281.468 532.026C280.804 531.279 280.472 530.29 280.472 529.06V528.964ZM281.834 529.125C281.834 530.004 282.037 530.71 282.442 531.242C282.853 531.774 283.399 532.041 284.083 532.041C284.771 532.041 285.318 531.772 285.724 531.235C286.129 530.693 286.332 529.936 286.332 528.964C286.332 528.095 286.124 527.392 285.709 526.855C285.299 526.313 284.752 526.042 284.068 526.042C283.399 526.042 282.86 526.308 282.45 526.84C282.04 527.373 281.834 528.134 281.834 529.125ZM294.278 533C294.2 532.844 294.137 532.565 294.088 532.165C293.458 532.819 292.706 533.146 291.832 533.146C291.051 533.146 290.409 532.927 289.906 532.487C289.408 532.043 289.159 531.481 289.159 530.803C289.159 529.978 289.471 529.338 290.096 528.884C290.726 528.425 291.61 528.195 292.748 528.195H294.066V527.573C294.066 527.099 293.924 526.723 293.641 526.445C293.358 526.162 292.94 526.02 292.389 526.02C291.905 526.02 291.5 526.142 291.173 526.386C290.846 526.63 290.682 526.926 290.682 527.272H289.32C289.32 526.877 289.459 526.496 289.737 526.13C290.021 525.759 290.401 525.466 290.88 525.251C291.363 525.036 291.893 524.929 292.469 524.929C293.382 524.929 294.098 525.158 294.615 525.617C295.133 526.071 295.401 526.699 295.421 527.5V531.147C295.421 531.875 295.514 532.453 295.699 532.883V533H294.278ZM292.03 531.967C292.455 531.967 292.857 531.857 293.238 531.638C293.619 531.418 293.895 531.132 294.066 530.781V529.155H293.004C291.344 529.155 290.514 529.641 290.514 530.612C290.514 531.037 290.655 531.369 290.938 531.608C291.222 531.848 291.585 531.967 292.03 531.967ZM299.017 533H297.662V521.75H299.017V533Z" fill="black"/>
<path d="M596.193 242.776C596.666 242.491 596.818 241.876 596.533 241.403L591.884 233.697C591.599 233.224 590.984 233.072 590.511 233.357C590.038 233.642 589.886 234.257 590.172 234.73L594.304 241.58L587.454 245.712C586.981 245.998 586.829 246.612 587.114 247.085C587.399 247.558 588.014 247.71 588.487 247.425L596.193 242.776ZM461.518 288.834C462.123 289.63 462.123 289.63 462.124 289.63C462.124 289.629 462.125 289.629 462.126 289.628C462.128 289.626 462.132 289.624 462.136 289.62C462.145 289.613 462.159 289.603 462.178 289.589C462.216 289.56 462.272 289.518 462.347 289.462C462.497 289.349 462.722 289.182 463.018 288.964C463.61 288.527 464.486 287.888 465.622 287.078C467.894 285.458 471.204 283.158 475.346 280.438C483.633 274.999 495.247 267.888 508.559 261.201C521.875 254.511 536.865 248.258 551.908 244.517C566.958 240.774 581.994 239.564 595.437 242.89L595.917 240.949C582.043 237.516 566.652 238.79 551.425 242.576C536.192 246.364 521.057 252.684 507.662 259.413C494.263 266.145 482.581 273.297 474.249 278.767C470.082 281.502 466.752 283.817 464.461 285.449C463.316 286.266 462.431 286.912 461.831 287.354C461.531 287.575 461.302 287.745 461.148 287.861C461.071 287.918 461.013 287.962 460.974 287.992C460.954 288.007 460.939 288.018 460.929 288.026C460.924 288.03 460.92 288.033 460.917 288.035C460.916 288.036 460.915 288.036 460.914 288.037C460.913 288.038 460.913 288.038 461.518 288.834Z" fill="url(#paint0_linear)"/>
<g filter="url(#filter2_d)">
<rect x="363" y="306" width="156" height="20" fill="#99C0FF"/>
</g>
<path d="M372.936 298.656L370.32 298.368V297.168H376.68L380.064 307.968L380.856 311.016L381.576 307.968L384.936 297.168H391.248V298.368L388.608 298.656L390.528 313.56L392.616 313.824V315H385.704V313.824L387.888 313.584L386.808 302.808L386.304 298.176L385.296 301.632L381.288 314.184H379.728L375.84 302.688L374.424 298.152L373.992 302.808L373.032 313.584L375.408 313.824V315H369.144V313.824L371.184 313.584L372.936 298.656ZM393.846 311.4C393.846 309.896 394.598 308.792 396.102 308.088C397.606 307.368 399.51 306.984 401.814 306.936V306.264C401.814 305.512 401.734 304.92 401.574 304.488C401.414 304.056 401.134 303.744 400.734 303.552C400.35 303.344 399.798 303.24 399.078 303.24C398.262 303.24 397.526 303.36 396.87 303.6C396.23 303.824 395.59 304.104 394.95 304.44L394.35 303.192C394.558 303.016 394.942 302.784 395.502 302.496C396.062 302.208 396.71 301.952 397.446 301.728C398.182 301.504 398.918 301.392 399.654 301.392C400.79 301.392 401.686 301.552 402.342 301.872C403.014 302.176 403.494 302.672 403.782 303.36C404.07 304.048 404.214 304.968 404.214 306.12V313.824H405.63V314.88C405.31 314.96 404.902 315.04 404.406 315.12C403.926 315.2 403.502 315.24 403.134 315.24C402.686 315.24 402.382 315.168 402.222 315.024C402.062 314.896 401.982 314.6 401.982 314.136V313.344C401.502 313.824 400.91 314.264 400.206 314.664C399.518 315.064 398.734 315.264 397.854 315.264C396.702 315.264 395.742 314.936 394.974 314.28C394.222 313.608 393.846 312.648 393.846 311.4ZM398.886 313.632C399.302 313.632 399.782 313.504 400.326 313.248C400.87 312.992 401.366 312.688 401.814 312.336V308.208C400.07 308.208 398.75 308.48 397.854 309.024C396.974 309.552 396.534 310.248 396.534 311.112C396.534 311.976 396.742 312.616 397.158 313.032C397.59 313.432 398.166 313.632 398.886 313.632ZM411.403 315.24C410.491 315.24 409.811 315.032 409.363 314.616C408.915 314.2 408.691 313.488 408.691 312.48V303.264H406.963V302.184C407.043 302.168 407.267 302.112 407.635 302.016C408.003 301.92 408.251 301.832 408.379 301.752C408.635 301.608 408.835 301.32 408.979 300.888C409.107 300.584 409.259 300.096 409.435 299.424C409.611 298.752 409.715 298.352 409.747 298.224H411.163L411.211 301.68H415.219V303.264H411.211V310.632C411.211 311.544 411.235 312.184 411.283 312.552C411.347 312.92 411.467 313.16 411.643 313.272C411.835 313.384 412.155 313.44 412.603 313.44C413.035 313.44 413.507 313.384 414.019 313.272C414.547 313.16 414.955 313.04 415.243 312.912L415.603 313.992C415.219 314.28 414.595 314.56 413.731 314.832C412.883 315.104 412.107 315.24 411.403 315.24ZM422.976 315.264C421.04 315.264 419.56 314.632 418.536 313.368C417.528 312.104 417.024 310.416 417.024 308.304C417.024 306.912 417.288 305.688 417.816 304.632C418.344 303.576 419.08 302.76 420.024 302.184C420.984 301.608 422.072 301.32 423.288 301.32C424.776 301.32 425.928 301.736 426.744 302.568C427.576 303.384 428.016 304.56 428.064 306.096C428.064 307.072 428.008 307.816 427.896 308.328H419.64C419.672 309.912 420.04 311.192 420.744 312.168C421.448 313.128 422.448 313.608 423.744 313.608C424.384 313.608 425.048 313.496 425.736 313.272C426.44 313.032 426.984 312.752 427.368 312.432L427.824 313.488C427.36 313.968 426.672 314.384 425.76 314.736C424.848 315.088 423.92 315.264 422.976 315.264ZM425.424 307.056C425.472 306.72 425.496 306.376 425.496 306.024C425.48 304.984 425.256 304.168 424.824 303.576C424.408 302.968 423.744 302.664 422.832 302.664C421.904 302.664 421.16 303 420.6 303.672C420.056 304.344 419.744 305.472 419.664 307.056H425.424ZM430.103 313.824L431.567 313.608V303.528L429.839 303.096V301.8L433.271 301.368L433.703 301.68L433.847 302.64L433.823 303.408C434.383 302.896 435.143 302.432 436.103 302.016C437.079 301.584 437.951 301.368 438.719 301.368C439.583 301.368 440.279 301.512 440.807 301.8C441.335 302.088 441.735 302.536 442.007 303.144C442.519 302.712 443.231 302.312 444.143 301.944C445.071 301.56 445.935 301.368 446.735 301.368C447.727 301.368 448.503 301.56 449.063 301.944C449.623 302.312 450.015 302.896 450.239 303.696C450.479 304.48 450.599 305.536 450.599 306.864V313.608L452.327 313.824V315H446.615V313.824L448.103 313.608V306.936C448.103 306.008 448.031 305.272 447.887 304.728C447.759 304.168 447.503 303.752 447.119 303.48C446.751 303.208 446.215 303.072 445.511 303.072C444.983 303.072 444.423 303.192 443.831 303.432C443.239 303.656 442.735 303.928 442.319 304.248C442.463 304.872 442.535 305.76 442.535 306.912V313.608L444.239 313.824V315H438.431V313.824L440.015 313.608V306.888C440.015 305.928 439.951 305.184 439.823 304.656C439.711 304.128 439.487 303.736 439.151 303.48C438.815 303.208 438.303 303.072 437.615 303.072C437.039 303.072 436.423 303.216 435.767 303.504C435.127 303.792 434.567 304.128 434.087 304.512V313.608L435.695 313.824V315H430.103V313.824ZM454.01 311.4C454.01 309.896 454.762 308.792 456.266 308.088C457.77 307.368 459.674 306.984 461.978 306.936V306.264C461.978 305.512 461.898 304.92 461.738 304.488C461.578 304.056 461.298 303.744 460.898 303.552C460.514 303.344 459.962 303.24 459.242 303.24C458.426 303.24 457.69 303.36 457.034 303.6C456.394 303.824 455.754 304.104 455.114 304.44L454.514 303.192C454.722 303.016 455.106 302.784 455.666 302.496C456.226 302.208 456.874 301.952 457.61 301.728C458.346 301.504 459.082 301.392 459.818 301.392C460.954 301.392 461.85 301.552 462.506 301.872C463.178 302.176 463.658 302.672 463.946 303.36C464.234 304.048 464.378 304.968 464.378 306.12V313.824H465.794V314.88C465.474 314.96 465.066 315.04 464.57 315.12C464.09 315.2 463.666 315.24 463.298 315.24C462.85 315.24 462.546 315.168 462.386 315.024C462.226 314.896 462.146 314.6 462.146 314.136V313.344C461.666 313.824 461.074 314.264 460.37 314.664C459.682 315.064 458.898 315.264 458.018 315.264C456.866 315.264 455.906 314.936 455.138 314.28C454.386 313.608 454.01 312.648 454.01 311.4ZM459.05 313.632C459.466 313.632 459.946 313.504 460.49 313.248C461.034 312.992 461.53 312.688 461.978 312.336V308.208C460.234 308.208 458.914 308.48 458.018 309.024C457.138 309.552 456.698 310.248 456.698 311.112C456.698 311.976 456.906 312.616 457.322 313.032C457.754 313.432 458.33 313.632 459.05 313.632ZM471.567 315.24C470.655 315.24 469.975 315.032 469.527 314.616C469.079 314.2 468.855 313.488 468.855 312.48V303.264H467.127V302.184C467.207 302.168 467.431 302.112 467.799 302.016C468.167 301.92 468.415 301.832 468.543 301.752C468.799 301.608 468.999 301.32 469.143 300.888C469.271 300.584 469.423 300.096 469.599 299.424C469.775 298.752 469.879 298.352 469.911 298.224H471.327L471.375 301.68H475.383V303.264H471.375V310.632C471.375 311.544 471.399 312.184 471.447 312.552C471.511 312.92 471.631 313.16 471.807 313.272C471.999 313.384 472.319 313.44 472.767 313.44C473.199 313.44 473.671 313.384 474.183 313.272C474.711 313.16 475.119 313.04 475.407 312.912L475.767 313.992C475.383 314.28 474.759 314.56 473.895 314.832C473.047 315.104 472.271 315.24 471.567 315.24ZM480.068 299.28C479.556 299.28 479.172 299.136 478.916 298.848C478.66 298.56 478.532 298.192 478.532 297.744C478.532 297.232 478.684 296.808 478.988 296.472C479.308 296.136 479.74 295.968 480.284 295.968C480.828 295.968 481.228 296.112 481.484 296.4C481.74 296.688 481.868 297.056 481.868 297.504C481.868 298.048 481.708 298.48 481.388 298.8C481.084 299.12 480.652 299.28 480.092 299.28H480.068ZM479.108 303.528L477.284 303.096V301.824L481.004 301.368H481.052L481.604 301.8V313.632L483.524 313.824V315H477.164V313.824L479.108 313.608V303.528ZM486.5 297.096L484.628 296.832V295.8L488.444 295.344H488.468L488.996 295.704V307.44L488.948 308.856L494.492 303.12L492.692 302.784V301.68H498.5V302.784L496.604 303.12L493.076 306.552L497.636 313.632L499.124 313.824V315H493.292V313.824L494.804 313.608L491.42 308.04L488.948 310.488L488.996 311.712V313.608L490.7 313.824V315H484.988V313.824L486.5 313.608V297.096ZM499.619 311.4C499.619 309.896 500.371 308.792 501.875 308.088C503.379 307.368 505.283 306.984 507.587 306.936V306.264C507.587 305.512 507.507 304.92 507.347 304.488C507.187 304.056 506.907 303.744 506.507 303.552C506.123 303.344 505.571 303.24 504.851 303.24C504.035 303.24 503.299 303.36 502.643 303.6C502.003 303.824 501.363 304.104 500.723 304.44L500.123 303.192C500.331 303.016 500.715 302.784 501.275 302.496C501.835 302.208 502.483 301.952 503.219 301.728C503.955 301.504 504.691 301.392 505.427 301.392C506.563 301.392 507.459 301.552 508.115 301.872C508.787 302.176 509.267 302.672 509.555 303.36C509.843 304.048 509.987 304.968 509.987 306.12V313.824H511.403V314.88C511.083 314.96 510.675 315.04 510.179 315.12C509.699 315.2 509.275 315.24 508.907 315.24C508.459 315.24 508.155 315.168 507.995 315.024C507.835 314.896 507.755 314.6 507.755 314.136V313.344C507.275 313.824 506.683 314.264 505.979 314.664C505.291 315.064 504.507 315.264 503.627 315.264C502.475 315.264 501.515 314.936 500.747 314.28C499.995 313.608 499.619 312.648 499.619 311.4ZM504.659 313.632C505.075 313.632 505.555 313.504 506.099 313.248C506.643 312.992 507.139 312.688 507.587 312.336V308.208C505.843 308.208 504.523 308.48 503.627 309.024C502.747 309.552 502.307 310.248 502.307 311.112C502.307 311.976 502.515 312.616 502.931 313.032C503.363 313.432 503.939 313.632 504.659 313.632Z" fill="black"/>
<path d="M347.229 437.362C346.877 437.788 346.937 438.418 347.362 438.77L354.295 444.509C354.721 444.861 355.351 444.802 355.703 444.376C356.055 443.951 355.996 443.32 355.57 442.968L349.408 437.867L354.509 431.705C354.861 431.279 354.801 430.649 354.376 430.297C353.951 429.944 353.32 430.004 352.968 430.429L347.229 437.362ZM421.696 330.047C404.948 335.376 395.666 344.507 390.274 355.324C384.915 366.074 383.434 378.431 382.123 390.108C380.802 401.878 379.654 412.883 375.125 421.337C372.878 425.531 369.803 429.08 365.455 431.762C361.099 434.449 355.415 436.297 347.906 437.004L348.094 438.996C355.83 438.266 361.828 436.349 366.505 433.464C371.189 430.575 374.495 426.748 376.888 422.282C381.638 413.415 382.804 401.968 384.111 390.331C385.428 378.601 386.888 366.599 392.064 356.216C397.206 345.9 406.052 337.124 422.303 331.953L421.696 330.047Z" fill="url(#paint1_linear)"/>
<path d="M577.345 438.931C577.728 438.533 577.716 437.9 577.318 437.517L570.833 431.277C570.435 430.894 569.802 430.906 569.419 431.304C569.036 431.702 569.048 432.335 569.446 432.718L575.21 438.265L569.663 444.03C569.28 444.428 569.293 445.061 569.691 445.444C570.088 445.826 570.722 445.814 571.104 445.416L577.345 438.931ZM458.795 344.388C479.944 346.982 492.269 354.232 500.291 363.522C508.358 372.863 512.162 384.351 516.097 395.7C520.005 406.975 524.05 418.138 532.713 426.326C541.423 434.559 554.65 439.66 576.644 439.238L576.605 437.238C554.938 437.655 542.293 432.629 534.087 424.873C525.833 417.071 521.917 406.382 517.986 395.045C514.082 383.783 510.168 371.9 501.805 362.215C493.396 352.478 480.578 345.045 459.039 342.403L458.795 344.388Z" fill="url(#paint2_linear)"/>
<path d="M439.981 224.243C440.04 223.694 439.642 223.201 439.093 223.143L430.143 222.191C429.594 222.132 429.101 222.53 429.043 223.079C428.985 223.628 429.382 224.121 429.932 224.179L437.887 225.026L437.04 232.981C436.982 233.53 437.38 234.022 437.929 234.081C438.478 234.139 438.971 233.741 439.029 233.192L439.981 224.243ZM438.32 276.08C442.107 274.741 444.69 273.215 446.254 271.451C447.862 269.637 448.34 267.63 448.028 265.537C447.725 263.508 446.686 261.436 445.365 259.376C444.039 257.309 442.356 255.148 440.689 252.962C437.302 248.52 433.984 243.967 433.026 239.286C432.554 236.983 432.66 234.663 433.625 232.305C434.594 229.937 436.459 227.464 439.615 224.915L438.359 223.359C435.015 226.06 432.903 228.79 431.774 231.548C430.64 234.316 430.526 237.045 431.066 239.687C432.132 244.893 435.767 249.806 439.099 254.175C440.792 256.394 442.41 258.475 443.681 260.456C444.957 262.445 445.81 264.228 446.05 265.833C446.28 267.374 445.951 268.778 444.758 270.124C443.519 271.521 441.305 272.904 437.654 274.194L438.32 276.08Z" fill="url(#paint3_linear)"/>
<g filter="url(#filter3_d)">
<rect x="374" y="446" width="133" height="162" rx="10" fill="white"/>
</g>
<rect x="390" y="494" width="102" height="10" rx="5" fill="#DFDFDF" fill-opacity="0.2"/>
<rect x="390" y="524" width="102" height="10" rx="5" fill="#DFDFDF" fill-opacity="0.2"/>
<rect x="390" y="554" width="102" height="10" rx="5" fill="#DFDFDF" fill-opacity="0.2"/>
<rect x="390" y="584" width="102" height="10" rx="5" fill="#DFDFDF" fill-opacity="0.2"/>
<rect x="390" y="464" width="102" height="10" rx="5" fill="black" fill-opacity="0.22"/>
<g filter="url(#filter4_d)">
<rect x="402" y="44" width="133" height="162" rx="10" fill="white"/>
</g>
<rect x="418" y="92" width="102" height="10" rx="5" fill="#DFDFDF" fill-opacity="0.2"/>
<rect x="418" y="122" width="102" height="10" rx="5" fill="#DFDFDF" fill-opacity="0.2"/>
<rect x="418" y="152" width="102" height="10" rx="5" fill="#DFDFDF" fill-opacity="0.2"/>
<rect x="418" y="182" width="102" height="10" rx="5" fill="#DFDFDF" fill-opacity="0.2"/>
<rect x="418" y="62" width="102" height="10" rx="5" fill="black" fill-opacity="0.22"/>
<path d="M237.62 320.215C237.186 319.873 236.557 319.947 236.215 320.38L230.635 327.441C230.292 327.874 230.366 328.503 230.799 328.846C231.232 329.188 231.861 329.114 232.204 328.681L237.164 322.405L243.441 327.365C243.874 327.707 244.503 327.634 244.845 327.2C245.188 326.767 245.114 326.138 244.681 325.796L237.62 320.215ZM350.234 322.356C329.12 347.445 302.503 360.627 280.494 360.75C269.505 360.811 259.693 357.621 252.238 351.077C244.785 344.535 239.595 334.562 237.993 320.884L236.006 321.116C237.655 335.188 243.027 345.652 250.918 352.58C258.806 359.504 269.12 362.814 280.505 362.75C303.247 362.623 330.379 349.055 351.765 323.644L350.234 322.356Z" fill="url(#paint4_linear)"/>
<path d="M447.332 438.744C447.743 439.113 448.375 439.079 448.744 438.668L454.757 431.972C455.126 431.561 455.092 430.929 454.681 430.56C454.27 430.191 453.638 430.225 453.269 430.635L447.924 436.588L441.972 431.243C441.561 430.874 440.929 430.908 440.56 431.319C440.191 431.73 440.225 432.362 440.635 432.731L447.332 438.744ZM442.001 345.054L447.001 438.054L448.999 437.946L443.999 344.946L442.001 345.054Z" fill="url(#paint5_linear)"/>
<g filter="url(#filter5_d)">
<rect x="587" y="403" width="133" height="162" rx="10" fill="white"/>
</g>
<rect x="603" y="451" width="102" height="10" rx="5" fill="#DFDFDF"/>
<rect x="603" y="481" width="102" height="10" rx="5" fill="#DFDFDF"/>
<rect x="603" y="511" width="102" height="10" rx="5" fill="#DFDFDF"/>
<rect x="603" y="541" width="102" height="10" rx="5" fill="#DFDFDF"/>
<rect x="603" y="421" width="102" height="10" rx="5" fill="black"/>
<g filter="url(#filter6_d)">
<rect x="173" y="148" width="133" height="162" rx="10" fill="white"/>
</g>
<rect x="189" y="196" width="102" height="10" rx="5" fill="#DFDFDF"/>
<rect x="189" y="226" width="102" height="10" rx="5" fill="#DFDFDF"/>
<rect x="189" y="256" width="102" height="10" rx="5" fill="#DFDFDF"/>
<rect x="189" y="286" width="102" height="10" rx="5" fill="#DFDFDF"/>
<rect x="189" y="166" width="102" height="10" rx="5" fill="black"/>
<defs>
<filter id="filter0_d" x="576" y="131" width="185" height="214" filterUnits="userSpaceOnUse" color-interpolation-filters="sRGB">
<feFlood flood-opacity="0" result="BackgroundImageFix"/>
<feColorMatrix in="SourceAlpha" type="matrix" values="0 0 0 0 0 0 0 0 0 0 0 0 0 0 0 0 0 0 127 0"/>
<feMorphology radius="8" operator="dilate" in="SourceAlpha" result="effect1_dropShadow"/>
<feOffset dy="4"/>
<feGaussianBlur stdDeviation="9"/>
<feColorMatrix type="matrix" values="0 0 0 0 0.231373 0 0 0 0 0.509804 0 0 0 0 0.964706 0 0 0 0.25 0"/>
<feBlend mode="normal" in2="BackgroundImageFix" result="effect1_dropShadow"/>
<feBlend mode="normal" in="SourceGraphic" in2="effect1_dropShadow" result="shape"/>
</filter>
<filter id="filter1_d" x="177" y="363" width="185" height="214" filterUnits="userSpaceOnUse" color-interpolation-filters="sRGB">
<feFlood flood-opacity="0" result="BackgroundImageFix"/>
<feColorMatrix in="SourceAlpha" type="matrix" values="0 0 0 0 0 0 0 0 0 0 0 0 0 0 0 0 0 0 127 0"/>
<feMorphology radius="8" operator="dilate" in="SourceAlpha" result="effect1_dropShadow"/>
<feOffset dy="4"/>
<feGaussianBlur stdDeviation="9"/>
<feColorMatrix type="matrix" values="0 0 0 0 0.231373 0 0 0 0 0.509804 0 0 0 0 0.964706 0 0 0 0.25 0"/>
<feBlend mode="normal" in2="BackgroundImageFix" result="effect1_dropShadow"/>
<feBlend mode="normal" in="SourceGraphic" in2="effect1_dropShadow" result="shape"/>
</filter>
<filter id="filter2_d" x="347" y="293" width="188" height="52" filterUnits="userSpaceOnUse" color-interpolation-filters="sRGB">
<feFlood flood-opacity="0" result="BackgroundImageFix"/>
<feColorMatrix in="SourceAlpha" type="matrix" values="0 0 0 0 0 0 0 0 0 0 0 0 0 0 0 0 0 0 127 0"/>
<feMorphology radius="3" operator="dilate" in="SourceAlpha" result="effect1_dropShadow"/>
<feOffset dy="3"/>
<feGaussianBlur stdDeviation="6.5"/>
<feColorMatrix type="matrix" values="0 0 0 0 0.231373 0 0 0 0 0.509804 0 0 0 0 0.964706 0 0 0 0.49 0"/>
<feBlend mode="normal" in2="BackgroundImageFix" result="effect1_dropShadow"/>
<feBlend mode="normal" in="SourceGraphic" in2="effect1_dropShadow" result="shape"/>
</filter>
<filter id="filter3_d" x="348" y="424" width="185" height="214" filterUnits="userSpaceOnUse" color-interpolation-filters="sRGB">
<feFlood flood-opacity="0" result="BackgroundImageFix"/>
<feColorMatrix in="SourceAlpha" type="matrix" values="0 0 0 0 0 0 0 0 0 0 0 0 0 0 0 0 0 0 127 0"/>
<feMorphology radius="8" operator="dilate" in="SourceAlpha" result="effect1_dropShadow"/>
<feOffset dy="4"/>
<feGaussianBlur stdDeviation="9"/>
<feColorMatrix type="matrix" values="0 0 0 0 0.231373 0 0 0 0 0.509804 0 0 0 0 0.964706 0 0 0 0.25 0"/>
<feBlend mode="normal" in2="BackgroundImageFix" result="effect1_dropShadow"/>
<feBlend mode="normal" in="SourceGraphic" in2="effect1_dropShadow" result="shape"/>
</filter>
<filter id="filter4_d" x="376" y="22" width="185" height="214" filterUnits="userSpaceOnUse" color-interpolation-filters="sRGB">
<feFlood flood-opacity="0" result="BackgroundImageFix"/>
<feColorMatrix in="SourceAlpha" type="matrix" values="0 0 0 0 0 0 0 0 0 0 0 0 0 0 0 0 0 0 127 0"/>
<feMorphology radius="8" operator="dilate" in="SourceAlpha" result="effect1_dropShadow"/>
<feOffset dy="4"/>
<feGaussianBlur stdDeviation="9"/>
<feColorMatrix type="matrix" values="0 0 0 0 0.231373 0 0 0 0 0.509804 0 0 0 0 0.964706 0 0 0 0.25 0"/>
<feBlend mode="normal" in2="BackgroundImageFix" result="effect1_dropShadow"/>
<feBlend mode="normal" in="SourceGraphic" in2="effect1_dropShadow" result="shape"/>
</filter>
<filter id="filter5_d" x="561" y="381" width="185" height="214" filterUnits="userSpaceOnUse" color-interpolation-filters="sRGB">
<feFlood flood-opacity="0" result="BackgroundImageFix"/>
<feColorMatrix in="SourceAlpha" type="matrix" values="0 0 0 0 0 0 0 0 0 0 0 0 0 0 0 0 0 0 127 0"/>
<feMorphology radius="8" operator="dilate" in="SourceAlpha" result="effect1_dropShadow"/>
<feOffset dy="4"/>
<feGaussianBlur stdDeviation="9"/>
<feColorMatrix type="matrix" values="0 0 0 0 0.231373 0 0 0 0 0.509804 0 0 0 0 0.964706 0 0 0 0.25 0"/>
<feBlend mode="normal" in2="BackgroundImageFix" result="effect1_dropShadow"/>
<feBlend mode="normal" in="SourceGraphic" in2="effect1_dropShadow" result="shape"/>
</filter>
<filter id="filter6_d" x="147" y="126" width="185" height="214" filterUnits="userSpaceOnUse" color-interpolation-filters="sRGB">
<feFlood flood-opacity="0" result="BackgroundImageFix"/>
<feColorMatrix in="SourceAlpha" type="matrix" values="0 0 0 0 0 0 0 0 0 0 0 0 0 0 0 0 0 0 127 0"/>
<feMorphology radius="8" operator="dilate" in="SourceAlpha" result="effect1_dropShadow"/>
<feOffset dy="4"/>
<feGaussianBlur stdDeviation="9"/>
<feColorMatrix type="matrix" values="0 0 0 0 0.231373 0 0 0 0 0.509804 0 0 0 0 0.964706 0 0 0 0.25 0"/>
<feBlend mode="normal" in2="BackgroundImageFix" result="effect1_dropShadow"/>
<feBlend mode="normal" in="SourceGraphic" in2="effect1_dropShadow" result="shape"/>
</filter>
<linearGradient id="paint0_linear" x1="596" y1="241" x2="463.5" y2="289" gradientUnits="userSpaceOnUse">
<stop stop-color="#3B82F6"/>
<stop offset="1"/>
</linearGradient>
<linearGradient id="paint1_linear" x1="421.5" y1="331" x2="351" y2="435.5" gradientUnits="userSpaceOnUse">
<stop/>
<stop offset="1" stop-color="#3B82F6"/>
</linearGradient>
<linearGradient id="paint2_linear" x1="458.21" y1="343.587" x2="577.406" y2="441.487" gradientUnits="userSpaceOnUse">
<stop/>
<stop offset="1" stop-color="#3B82F6"/>
</linearGradient>
<linearGradient id="paint3_linear" x1="437.987" y1="275.137" x2="438.987" y2="224.137" gradientUnits="userSpaceOnUse">
<stop/>
<stop offset="1" stop-color="#3B82F6"/>
</linearGradient>
<linearGradient id="paint4_linear" x1="236" y1="321" x2="346.5" y2="329" gradientUnits="userSpaceOnUse">
<stop stop-color="#3B82F6"/>
<stop offset="1"/>
</linearGradient>
<linearGradient id="paint5_linear" x1="443" y1="347.5" x2="448" y2="438" gradientUnits="userSpaceOnUse">
<stop/>
<stop offset="1" stop-color="#3B82F6"/>
</linearGradient>
</defs>
</svg>
