<svg width="700" height="700" viewBox="0 0 700 700" fill="none" xmlns="http://www.w3.org/2000/svg">
<rect width="700" height="700" fill="white"/>
<g filter="url(#filter0_d)">
<rect x="498" y="177" width="133" height="162" rx="10" fill="white"/>
</g>
<path d="M516.644 230.825V235H515.238V224.336H519.171C520.338 224.336 521.251 224.634 521.91 225.229C522.574 225.825 522.906 226.614 522.906 227.595C522.906 228.63 522.582 229.429 521.932 229.99C521.288 230.547 520.362 230.825 519.156 230.825H516.644ZM516.644 229.675H519.171C519.923 229.675 520.499 229.5 520.899 229.148C521.3 228.792 521.5 228.279 521.5 227.61C521.5 226.975 521.3 226.467 520.899 226.086C520.499 225.706 519.95 225.508 519.251 225.493H516.644V229.675ZM527.674 235.146C526.6 235.146 525.726 234.795 525.052 234.092C524.378 233.384 524.042 232.439 524.042 231.257V231.008C524.042 230.222 524.19 229.521 524.488 228.906C524.791 228.286 525.211 227.803 525.748 227.456C526.29 227.104 526.876 226.929 527.506 226.929C528.536 226.929 529.337 227.268 529.908 227.947C530.479 228.625 530.765 229.597 530.765 230.862V231.426H525.396C525.416 232.207 525.643 232.839 526.078 233.323C526.517 233.801 527.074 234.041 527.748 234.041C528.226 234.041 528.631 233.943 528.963 233.748C529.295 233.552 529.586 233.293 529.835 232.971L530.663 233.616C529.999 234.636 529.002 235.146 527.674 235.146ZM527.506 228.042C526.959 228.042 526.5 228.242 526.129 228.643C525.758 229.038 525.528 229.595 525.44 230.312H529.41V230.21C529.371 229.521 529.186 228.989 528.854 228.613C528.521 228.232 528.072 228.042 527.506 228.042ZM533.622 227.075L533.666 228.071C534.271 227.31 535.062 226.929 536.039 226.929C537.713 226.929 538.558 227.874 538.573 229.763V235H537.218V229.756C537.213 229.185 537.081 228.762 536.822 228.489C536.568 228.215 536.17 228.079 535.628 228.079C535.189 228.079 534.803 228.196 534.471 228.43C534.139 228.665 533.88 228.972 533.695 229.353V235H532.34V227.075H533.622ZM540.294 230.972C540.294 229.736 540.58 228.755 541.151 228.027C541.722 227.295 542.479 226.929 543.421 226.929C544.388 226.929 545.143 227.271 545.685 227.954L545.75 227.075H546.988V234.81C546.988 235.835 546.683 236.643 546.073 237.234C545.467 237.825 544.652 238.12 543.626 238.12C543.055 238.12 542.496 237.998 541.949 237.754C541.402 237.51 540.985 237.175 540.697 236.75L541.4 235.938C541.981 236.655 542.691 237.014 543.531 237.014C544.19 237.014 544.703 236.829 545.069 236.458C545.44 236.086 545.626 235.564 545.626 234.89V234.209C545.084 234.834 544.344 235.146 543.407 235.146C542.479 235.146 541.727 234.773 541.151 234.026C540.58 233.279 540.294 232.261 540.294 230.972ZM541.656 231.125C541.656 232.019 541.839 232.722 542.206 233.235C542.572 233.743 543.084 233.997 543.744 233.997C544.598 233.997 545.226 233.608 545.626 232.832V229.214C545.211 228.457 544.588 228.079 543.758 228.079C543.099 228.079 542.584 228.335 542.213 228.848C541.842 229.36 541.656 230.12 541.656 231.125ZM552.328 235.146C551.253 235.146 550.379 234.795 549.706 234.092C549.032 233.384 548.695 232.439 548.695 231.257V231.008C548.695 230.222 548.844 229.521 549.142 228.906C549.444 228.286 549.864 227.803 550.401 227.456C550.943 227.104 551.529 226.929 552.159 226.929C553.189 226.929 553.99 227.268 554.562 227.947C555.133 228.625 555.418 229.597 555.418 230.862V231.426H550.05C550.069 232.207 550.296 232.839 550.731 233.323C551.17 233.801 551.727 234.041 552.401 234.041C552.879 234.041 553.285 233.943 553.617 233.748C553.949 233.552 554.239 233.293 554.488 232.971L555.316 233.616C554.652 234.636 553.656 235.146 552.328 235.146ZM552.159 228.042C551.612 228.042 551.153 228.242 550.782 228.643C550.411 229.038 550.182 229.595 550.094 230.312H554.063V230.21C554.024 229.521 553.839 228.989 553.507 228.613C553.175 228.232 552.726 228.042 552.159 228.042ZM558.275 227.075L558.319 228.071C558.924 227.31 559.715 226.929 560.692 226.929C562.367 226.929 563.211 227.874 563.226 229.763V235H561.871V229.756C561.866 229.185 561.734 228.762 561.476 228.489C561.222 228.215 560.824 228.079 560.282 228.079C559.842 228.079 559.457 228.196 559.125 228.43C558.792 228.665 558.534 228.972 558.348 229.353V235H556.993V227.075H558.275ZM570.162 235C570.084 234.844 570.021 234.565 569.972 234.165C569.342 234.819 568.59 235.146 567.716 235.146C566.935 235.146 566.292 234.927 565.79 234.487C565.292 234.043 565.042 233.481 565.042 232.803C565.042 231.978 565.355 231.338 565.98 230.884C566.61 230.425 567.494 230.195 568.631 230.195H569.95V229.573C569.95 229.099 569.808 228.723 569.525 228.445C569.242 228.162 568.824 228.02 568.272 228.02C567.789 228.02 567.384 228.142 567.057 228.386C566.729 228.63 566.566 228.926 566.566 229.272H565.204C565.204 228.877 565.343 228.496 565.621 228.13C565.904 227.759 566.285 227.466 566.764 227.251C567.247 227.036 567.777 226.929 568.353 226.929C569.266 226.929 569.981 227.158 570.499 227.617C571.017 228.071 571.285 228.699 571.305 229.5V233.147C571.305 233.875 571.397 234.453 571.583 234.883V235H570.162ZM567.914 233.967C568.338 233.967 568.741 233.857 569.122 233.638C569.503 233.418 569.779 233.132 569.95 232.781V231.155H568.888C567.228 231.155 566.397 231.641 566.397 232.612C566.397 233.037 566.539 233.369 566.822 233.608C567.105 233.848 567.469 233.967 567.914 233.967ZM574.901 235H573.546V223.75H574.901V235ZM581.969 235C581.891 234.844 581.827 234.565 581.778 234.165C581.148 234.819 580.396 235.146 579.522 235.146C578.741 235.146 578.099 234.927 577.596 234.487C577.098 234.043 576.849 233.481 576.849 232.803C576.849 231.978 577.162 231.338 577.787 230.884C578.417 230.425 579.3 230.195 580.438 230.195H581.756V229.573C581.756 229.099 581.615 228.723 581.332 228.445C581.048 228.162 580.631 228.02 580.079 228.02C579.596 228.02 579.19 228.142 578.863 228.386C578.536 228.63 578.373 228.926 578.373 229.272H577.01C577.01 228.877 577.149 228.496 577.428 228.13C577.711 227.759 578.092 227.466 578.57 227.251C579.054 227.036 579.583 226.929 580.16 226.929C581.073 226.929 581.788 227.158 582.306 227.617C582.823 228.071 583.092 228.699 583.111 229.5V233.147C583.111 233.875 583.204 234.453 583.39 234.883V235H581.969ZM579.72 233.967C580.145 233.967 580.548 233.857 580.929 233.638C581.31 233.418 581.585 233.132 581.756 232.781V231.155H580.694C579.034 231.155 578.204 231.641 578.204 232.612C578.204 233.037 578.346 233.369 578.629 233.608C578.912 233.848 579.276 233.967 579.72 233.967ZM586.517 227.075L586.561 228.071C587.167 227.31 587.958 226.929 588.934 226.929C590.609 226.929 591.454 227.874 591.468 229.763V235H590.113V229.756C590.108 229.185 589.977 228.762 589.718 228.489C589.464 228.215 589.066 228.079 588.524 228.079C588.084 228.079 587.699 228.196 587.367 228.43C587.035 228.665 586.776 228.972 586.59 229.353V235H585.235V227.075H586.517Z" fill="black"/>
<path d="M519.098 194.781L522.75 205.094L526.383 194.781H530.23V209H527.291V205.113L527.584 198.404L523.746 209H521.734L517.906 198.414L518.199 205.113V209H515.27V194.781H519.098ZM538.727 209C538.596 208.746 538.502 208.43 538.443 208.053C537.76 208.814 536.871 209.195 535.777 209.195C534.742 209.195 533.883 208.896 533.199 208.297C532.522 207.698 532.184 206.943 532.184 206.031C532.184 204.911 532.597 204.052 533.424 203.453C534.257 202.854 535.458 202.551 537.027 202.545H538.326V201.939C538.326 201.451 538.199 201.061 537.945 200.768C537.698 200.475 537.304 200.328 536.764 200.328C536.288 200.328 535.914 200.442 535.641 200.67C535.374 200.898 535.24 201.21 535.24 201.607H532.418C532.418 200.995 532.607 200.429 532.984 199.908C533.362 199.387 533.896 198.98 534.586 198.688C535.276 198.388 536.051 198.238 536.91 198.238C538.212 198.238 539.244 198.567 540.006 199.225C540.774 199.876 541.158 200.794 541.158 201.979V206.559C541.165 207.561 541.305 208.32 541.578 208.834V209H538.727ZM536.393 207.037C536.809 207.037 537.193 206.946 537.545 206.764C537.896 206.575 538.157 206.324 538.326 206.012V204.195H537.271C535.859 204.195 535.107 204.684 535.016 205.66L535.006 205.826C535.006 206.178 535.13 206.467 535.377 206.695C535.624 206.923 535.963 207.037 536.393 207.037ZM546.705 195.836V198.434H548.512V200.504H546.705V205.777C546.705 206.168 546.78 206.448 546.93 206.617C547.079 206.786 547.366 206.871 547.789 206.871C548.102 206.871 548.378 206.848 548.619 206.803V208.941C548.066 209.111 547.496 209.195 546.91 209.195C544.931 209.195 543.922 208.196 543.883 206.197V200.504H542.34V198.434H543.883V195.836H546.705ZM556.021 201.08C555.637 201.028 555.299 201.002 555.006 201.002C553.938 201.002 553.238 201.363 552.906 202.086V209H550.084V198.434H552.75L552.828 199.693C553.395 198.723 554.179 198.238 555.182 198.238C555.494 198.238 555.787 198.281 556.061 198.365L556.021 201.08ZM560.367 209H557.535V198.434H560.367V209ZM557.369 195.699C557.369 195.276 557.509 194.928 557.789 194.654C558.076 194.381 558.463 194.244 558.951 194.244C559.433 194.244 559.817 194.381 560.104 194.654C560.39 194.928 560.533 195.276 560.533 195.699C560.533 196.129 560.387 196.48 560.094 196.754C559.807 197.027 559.426 197.164 558.951 197.164C558.476 197.164 558.092 197.027 557.799 196.754C557.512 196.48 557.369 196.129 557.369 195.699ZM566.539 204.762L565.523 205.777V209H562.701V194H565.523V202.311L566.07 201.607L568.775 198.434H572.164L568.346 202.838L572.496 209H569.254L566.539 204.762ZM579.107 206.08C579.107 205.735 578.935 205.465 578.59 205.27C578.251 205.068 577.704 204.889 576.949 204.732C574.436 204.205 573.18 203.137 573.18 201.529C573.18 200.592 573.567 199.811 574.342 199.186C575.123 198.554 576.142 198.238 577.398 198.238C578.74 198.238 579.811 198.554 580.611 199.186C581.419 199.817 581.822 200.637 581.822 201.646H579C579 201.243 578.87 200.911 578.609 200.65C578.349 200.383 577.942 200.25 577.389 200.25C576.913 200.25 576.546 200.357 576.285 200.572C576.025 200.787 575.895 201.061 575.895 201.393C575.895 201.705 576.041 201.959 576.334 202.154C576.633 202.343 577.135 202.509 577.838 202.652C578.541 202.789 579.133 202.945 579.615 203.121C581.106 203.668 581.852 204.615 581.852 205.963C581.852 206.926 581.438 207.708 580.611 208.307C579.785 208.899 578.717 209.195 577.408 209.195C576.523 209.195 575.735 209.039 575.045 208.727C574.361 208.408 573.824 207.975 573.434 207.428C573.043 206.874 572.848 206.279 572.848 205.641H575.523C575.549 206.142 575.735 206.526 576.08 206.793C576.425 207.06 576.887 207.193 577.467 207.193C578.007 207.193 578.414 207.092 578.688 206.891C578.967 206.682 579.107 206.412 579.107 206.08Z" fill="black"/>
<path d="M518.768 263.132L521.815 254.336H523.353L519.398 265H518.153L514.205 254.336H515.736L518.768 263.132ZM529.132 265C529.054 264.844 528.99 264.565 528.941 264.165C528.312 264.819 527.56 265.146 526.686 265.146C525.904 265.146 525.262 264.927 524.759 264.487C524.261 264.043 524.012 263.481 524.012 262.803C524.012 261.978 524.325 261.338 524.95 260.884C525.58 260.425 526.463 260.195 527.601 260.195H528.919V259.573C528.919 259.099 528.778 258.723 528.495 258.445C528.211 258.162 527.794 258.02 527.242 258.02C526.759 258.02 526.354 258.142 526.026 258.386C525.699 258.63 525.536 258.926 525.536 259.272H524.173C524.173 258.877 524.312 258.496 524.591 258.13C524.874 257.759 525.255 257.466 525.733 257.251C526.217 257.036 526.747 256.929 527.323 256.929C528.236 256.929 528.951 257.158 529.469 257.617C529.986 258.071 530.255 258.699 530.274 259.5V263.147C530.274 263.875 530.367 264.453 530.553 264.883V265H529.132ZM526.883 263.967C527.308 263.967 527.711 263.857 528.092 263.638C528.473 263.418 528.749 263.132 528.919 262.781V261.155H527.857C526.197 261.155 525.367 261.641 525.367 262.612C525.367 263.037 525.509 263.369 525.792 263.608C526.075 263.848 526.439 263.967 526.883 263.967ZM536.229 258.291C536.024 258.257 535.802 258.24 535.562 258.24C534.674 258.24 534.071 258.618 533.753 259.375V265H532.398V257.075H533.717L533.739 257.991C534.183 257.283 534.813 256.929 535.628 256.929C535.892 256.929 536.092 256.963 536.229 257.031V258.291ZM538.954 265H537.599V257.075H538.954V265ZM537.489 254.973C537.489 254.753 537.555 254.568 537.687 254.417C537.823 254.265 538.023 254.189 538.287 254.189C538.551 254.189 538.751 254.265 538.888 254.417C539.024 254.568 539.093 254.753 539.093 254.973C539.093 255.193 539.024 255.376 538.888 255.522C538.751 255.669 538.551 255.742 538.287 255.742C538.023 255.742 537.823 255.669 537.687 255.522C537.555 255.376 537.489 255.193 537.489 254.973ZM546.021 265C545.943 264.844 545.88 264.565 545.831 264.165C545.201 264.819 544.449 265.146 543.575 265.146C542.794 265.146 542.152 264.927 541.649 264.487C541.151 264.043 540.902 263.481 540.902 262.803C540.902 261.978 541.214 261.338 541.839 260.884C542.469 260.425 543.353 260.195 544.491 260.195H545.809V259.573C545.809 259.099 545.667 258.723 545.384 258.445C545.101 258.162 544.684 258.02 544.132 258.02C543.648 258.02 543.243 258.142 542.916 258.386C542.589 258.63 542.425 258.926 542.425 259.272H541.063C541.063 258.877 541.202 258.496 541.48 258.13C541.764 257.759 542.145 257.466 542.623 257.251C543.106 257.036 543.636 256.929 544.212 256.929C545.125 256.929 545.841 257.158 546.358 257.617C546.876 258.071 547.145 258.699 547.164 259.5V263.147C547.164 263.875 547.257 264.453 547.442 264.883V265H546.021ZM543.773 263.967C544.198 263.967 544.601 263.857 544.981 263.638C545.362 263.418 545.638 263.132 545.809 262.781V261.155H544.747C543.087 261.155 542.257 261.641 542.257 262.612C542.257 263.037 542.398 263.369 542.682 263.608C542.965 263.848 543.329 263.967 543.773 263.967ZM555.997 261.125C555.997 262.336 555.719 263.311 555.162 264.048C554.605 264.78 553.858 265.146 552.921 265.146C551.92 265.146 551.146 264.792 550.599 264.084L550.533 265H549.288V253.75H550.643V257.947C551.19 257.268 551.944 256.929 552.906 256.929C553.868 256.929 554.623 257.292 555.169 258.02C555.721 258.748 555.997 259.744 555.997 261.008V261.125ZM554.642 260.972C554.642 260.049 554.464 259.336 554.107 258.833C553.751 258.33 553.238 258.079 552.569 258.079C551.676 258.079 551.034 258.494 550.643 259.324V262.751C551.058 263.582 551.705 263.997 552.584 263.997C553.233 263.997 553.739 263.745 554.1 263.242C554.461 262.739 554.642 261.982 554.642 260.972ZM561 265.146C559.925 265.146 559.051 264.795 558.377 264.092C557.704 263.384 557.367 262.439 557.367 261.257V261.008C557.367 260.222 557.516 259.521 557.813 258.906C558.116 258.286 558.536 257.803 559.073 257.456C559.615 257.104 560.201 256.929 560.831 256.929C561.861 256.929 562.662 257.268 563.233 257.947C563.805 258.625 564.09 259.597 564.09 260.862V261.426H558.722C558.741 262.207 558.968 262.839 559.403 263.323C559.842 263.801 560.399 264.041 561.073 264.041C561.551 264.041 561.957 263.943 562.289 263.748C562.621 263.552 562.911 263.293 563.16 262.971L563.988 263.616C563.324 264.636 562.328 265.146 561 265.146ZM560.831 258.042C560.284 258.042 559.825 258.242 559.454 258.643C559.083 259.038 558.854 259.595 558.766 260.312H562.735V260.21C562.696 259.521 562.511 258.989 562.179 258.613C561.847 258.232 561.397 258.042 560.831 258.042ZM567.137 265H565.782V253.75H567.137V265Z" fill="black"/>
<path d="M519.149 290.686H516.644V295H515.23V284.336H518.761C519.962 284.336 520.885 284.609 521.529 285.156C522.179 285.703 522.503 286.499 522.503 287.544C522.503 288.208 522.323 288.787 521.961 289.28C521.605 289.773 521.107 290.142 520.467 290.386L522.972 294.912V295H521.463L519.149 290.686ZM516.644 289.536H518.805C519.503 289.536 520.057 289.355 520.467 288.994C520.882 288.633 521.09 288.149 521.09 287.544C521.09 286.885 520.892 286.379 520.497 286.028C520.106 285.676 519.54 285.498 518.797 285.493H516.644V289.536ZM529.161 294.216C528.634 294.836 527.86 295.146 526.839 295.146C525.995 295.146 525.35 294.902 524.906 294.414C524.466 293.921 524.244 293.193 524.239 292.231V287.075H525.594V292.195C525.594 293.396 526.083 293.997 527.059 293.997C528.094 293.997 528.783 293.611 529.125 292.839V287.075H530.479V295H529.19L529.161 294.216ZM533.819 287.075L533.856 287.954C534.437 287.271 535.221 286.929 536.207 286.929C537.315 286.929 538.07 287.354 538.47 288.203C538.734 287.822 539.076 287.515 539.496 287.28C539.92 287.046 540.421 286.929 540.997 286.929C542.735 286.929 543.619 287.849 543.648 289.69V295H542.293V289.771C542.293 289.204 542.164 288.782 541.905 288.503C541.646 288.22 541.212 288.079 540.602 288.079C540.099 288.079 539.681 288.23 539.349 288.533C539.017 288.831 538.824 289.233 538.771 289.741V295H537.408V289.807C537.408 288.655 536.844 288.079 535.716 288.079C534.828 288.079 534.22 288.457 533.893 289.214V295H532.538V287.075H533.819ZM550.592 294.216C550.064 294.836 549.291 295.146 548.27 295.146C547.425 295.146 546.781 294.902 546.336 294.414C545.897 293.921 545.675 293.193 545.67 292.231V287.075H547.025V292.195C547.025 293.396 547.513 293.997 548.49 293.997C549.525 293.997 550.213 293.611 550.555 292.839V287.075H551.91V295H550.621L550.592 294.216ZM558.59 292.898C558.59 292.532 558.451 292.249 558.172 292.048C557.899 291.843 557.418 291.667 556.729 291.521C556.046 291.375 555.501 291.199 555.096 290.994C554.696 290.789 554.398 290.544 554.203 290.261C554.012 289.978 553.917 289.641 553.917 289.25C553.917 288.601 554.19 288.052 554.737 287.603C555.289 287.153 555.992 286.929 556.847 286.929C557.745 286.929 558.473 287.161 559.029 287.625C559.591 288.088 559.872 288.682 559.872 289.404H558.509C558.509 289.033 558.351 288.713 558.033 288.445C557.721 288.176 557.325 288.042 556.847 288.042C556.354 288.042 555.968 288.149 555.689 288.364C555.411 288.579 555.272 288.86 555.272 289.207C555.272 289.534 555.401 289.78 555.66 289.946C555.919 290.112 556.385 290.271 557.059 290.422C557.738 290.574 558.287 290.754 558.707 290.964C559.127 291.174 559.437 291.428 559.637 291.726C559.842 292.019 559.945 292.378 559.945 292.803C559.945 293.511 559.662 294.08 559.095 294.509C558.529 294.934 557.794 295.146 556.891 295.146C556.256 295.146 555.694 295.034 555.206 294.81C554.718 294.585 554.334 294.272 554.056 293.872C553.783 293.467 553.646 293.03 553.646 292.561H555.001C555.025 293.015 555.206 293.376 555.543 293.645C555.885 293.909 556.334 294.041 556.891 294.041C557.403 294.041 557.813 293.938 558.121 293.733C558.434 293.523 558.59 293.245 558.59 292.898Z" fill="black"/>
<path d="M523.082 321.616C522.95 322.744 522.533 323.616 521.83 324.231C521.131 324.841 520.201 325.146 519.039 325.146C517.779 325.146 516.769 324.695 516.007 323.792C515.25 322.888 514.872 321.68 514.872 320.166V319.141C514.872 318.149 515.047 317.278 515.399 316.526C515.755 315.774 516.258 315.198 516.908 314.797C517.557 314.392 518.309 314.189 519.164 314.189C520.296 314.189 521.205 314.507 521.888 315.142C522.572 315.771 522.97 316.646 523.082 317.764H521.668C521.546 316.914 521.28 316.299 520.87 315.918C520.465 315.537 519.896 315.347 519.164 315.347C518.265 315.347 517.56 315.679 517.047 316.343C516.539 317.007 516.285 317.952 516.285 319.177V320.21C516.285 321.367 516.527 322.288 517.01 322.971C517.494 323.655 518.17 323.997 519.039 323.997C519.82 323.997 520.418 323.821 520.833 323.469C521.253 323.113 521.532 322.495 521.668 321.616H523.082ZM524.437 320.964C524.437 320.188 524.588 319.49 524.891 318.87C525.199 318.25 525.624 317.771 526.166 317.434C526.712 317.097 527.335 316.929 528.033 316.929C529.112 316.929 529.984 317.302 530.648 318.049C531.317 318.796 531.651 319.79 531.651 321.03V321.125C531.651 321.897 531.502 322.59 531.205 323.206C530.912 323.816 530.489 324.292 529.938 324.634C529.391 324.976 528.761 325.146 528.048 325.146C526.974 325.146 526.102 324.773 525.433 324.026C524.769 323.279 524.437 322.29 524.437 321.06V320.964ZM525.799 321.125C525.799 322.004 526.002 322.71 526.407 323.242C526.817 323.774 527.364 324.041 528.048 324.041C528.736 324.041 529.283 323.772 529.688 323.235C530.094 322.693 530.296 321.936 530.296 320.964C530.296 320.095 530.089 319.392 529.674 318.855C529.264 318.313 528.717 318.042 528.033 318.042C527.364 318.042 526.825 318.308 526.415 318.84C526.004 319.373 525.799 320.134 525.799 321.125ZM534.632 317.075L534.676 318.071C535.282 317.31 536.073 316.929 537.049 316.929C538.724 316.929 539.569 317.874 539.583 319.763V325H538.229V319.756C538.224 319.185 538.092 318.762 537.833 318.489C537.579 318.215 537.181 318.079 536.639 318.079C536.2 318.079 535.814 318.196 535.482 318.43C535.15 318.665 534.891 318.972 534.706 319.353V325H533.351V317.075H534.632ZM543.465 315.156V317.075H544.945V318.123H543.465V323.037C543.465 323.354 543.531 323.594 543.663 323.755C543.795 323.911 544.02 323.989 544.337 323.989C544.493 323.989 544.708 323.96 544.981 323.901V325C544.625 325.098 544.278 325.146 543.941 325.146C543.336 325.146 542.879 324.963 542.572 324.597C542.264 324.231 542.11 323.711 542.11 323.037V318.123H540.667V317.075H542.11V315.156H543.465ZM546.029 320.964C546.029 320.188 546.18 319.49 546.483 318.87C546.791 318.25 547.215 317.771 547.757 317.434C548.304 317.097 548.927 316.929 549.625 316.929C550.704 316.929 551.576 317.302 552.24 318.049C552.909 318.796 553.243 319.79 553.243 321.03V321.125C553.243 321.897 553.094 322.59 552.796 323.206C552.503 323.816 552.081 324.292 551.529 324.634C550.982 324.976 550.353 325.146 549.64 325.146C548.565 325.146 547.694 324.773 547.025 324.026C546.361 323.279 546.029 322.29 546.029 321.06V320.964ZM547.391 321.125C547.391 322.004 547.594 322.71 547.999 323.242C548.409 323.774 548.956 324.041 549.64 324.041C550.328 324.041 550.875 323.772 551.28 323.235C551.686 322.693 551.888 321.936 551.888 320.964C551.888 320.095 551.681 319.392 551.266 318.855C550.855 318.313 550.309 318.042 549.625 318.042C548.956 318.042 548.417 318.308 548.006 318.84C547.596 319.373 547.391 320.134 547.391 321.125ZM556.297 318.035C556.898 317.297 557.679 316.929 558.641 316.929C560.316 316.929 561.161 317.874 561.175 319.763V325H559.82V319.756C559.815 319.185 559.684 318.762 559.425 318.489C559.171 318.215 558.773 318.079 558.231 318.079C557.792 318.079 557.406 318.196 557.074 318.43C556.742 318.665 556.483 318.972 556.297 319.353V325H554.942V313.75H556.297V318.035ZM570.279 320.247C569.073 319.9 568.194 319.475 567.643 318.972C567.096 318.464 566.822 317.839 566.822 317.097C566.822 316.257 567.157 315.564 567.826 315.017C568.5 314.465 569.374 314.189 570.448 314.189C571.18 314.189 571.832 314.331 572.403 314.614C572.979 314.897 573.424 315.288 573.736 315.786C574.054 316.284 574.212 316.829 574.212 317.419H572.799C572.799 316.775 572.594 316.27 572.184 315.903C571.773 315.532 571.195 315.347 570.448 315.347C569.754 315.347 569.212 315.5 568.822 315.808C568.436 316.111 568.243 316.533 568.243 317.075C568.243 317.51 568.426 317.878 568.792 318.181C569.164 318.479 569.791 318.752 570.675 319.001C571.563 319.25 572.257 319.526 572.755 319.829C573.258 320.127 573.629 320.476 573.868 320.876C574.112 321.277 574.234 321.748 574.234 322.29C574.234 323.154 573.897 323.848 573.224 324.37C572.55 324.888 571.649 325.146 570.521 325.146C569.789 325.146 569.105 325.007 568.47 324.729C567.835 324.446 567.345 324.06 566.998 323.572C566.656 323.083 566.485 322.529 566.485 321.909H567.899C567.899 322.554 568.136 323.064 568.609 323.44C569.088 323.811 569.725 323.997 570.521 323.997C571.263 323.997 571.832 323.845 572.228 323.542C572.623 323.24 572.821 322.827 572.821 322.305C572.821 321.782 572.638 321.379 572.271 321.096C571.905 320.808 571.241 320.525 570.279 320.247ZM575.472 320.964C575.472 320.188 575.624 319.49 575.926 318.87C576.234 318.25 576.659 317.771 577.201 317.434C577.748 317.097 578.37 316.929 579.068 316.929C580.147 316.929 581.019 317.302 581.683 318.049C582.352 318.796 582.687 319.79 582.687 321.03V321.125C582.687 321.897 582.538 322.59 582.24 323.206C581.947 323.816 581.524 324.292 580.973 324.634C580.426 324.976 579.796 325.146 579.083 325.146C578.009 325.146 577.137 324.773 576.468 324.026C575.804 323.279 575.472 322.29 575.472 321.06V320.964ZM576.834 321.125C576.834 322.004 577.037 322.71 577.442 323.242C577.853 323.774 578.399 324.041 579.083 324.041C579.771 324.041 580.318 323.772 580.724 323.235C581.129 322.693 581.332 321.936 581.332 320.964C581.332 320.095 581.124 319.392 580.709 318.855C580.299 318.313 579.752 318.042 579.068 318.042C578.399 318.042 577.86 318.308 577.45 318.84C577.04 319.373 576.834 320.134 576.834 321.125ZM589.278 325C589.2 324.844 589.137 324.565 589.088 324.165C588.458 324.819 587.706 325.146 586.832 325.146C586.051 325.146 585.409 324.927 584.906 324.487C584.408 324.043 584.159 323.481 584.159 322.803C584.159 321.978 584.471 321.338 585.096 320.884C585.726 320.425 586.61 320.195 587.748 320.195H589.066V319.573C589.066 319.099 588.924 318.723 588.641 318.445C588.358 318.162 587.94 318.02 587.389 318.02C586.905 318.02 586.5 318.142 586.173 318.386C585.846 318.63 585.682 318.926 585.682 319.272H584.32C584.32 318.877 584.459 318.496 584.737 318.13C585.021 317.759 585.401 317.466 585.88 317.251C586.363 317.036 586.893 316.929 587.469 316.929C588.382 316.929 589.098 317.158 589.615 317.617C590.133 318.071 590.401 318.699 590.421 319.5V323.147C590.421 323.875 590.514 324.453 590.699 324.883V325H589.278ZM587.03 323.967C587.455 323.967 587.857 323.857 588.238 323.638C588.619 323.418 588.895 323.132 589.066 322.781V321.155H588.004C586.344 321.155 585.514 321.641 585.514 322.612C585.514 323.037 585.655 323.369 585.938 323.608C586.222 323.848 586.585 323.967 587.03 323.967ZM594.017 325H592.662V313.75H594.017V325Z" fill="black"/>
<g filter="url(#filter1_d)">
<rect x="99" y="409" width="133" height="162" rx="10" fill="white"/>
</g>
<path d="M117.644 462.825V467H116.238V456.336H120.171C121.338 456.336 122.251 456.634 122.91 457.229C123.574 457.825 123.906 458.614 123.906 459.595C123.906 460.63 123.582 461.429 122.932 461.99C122.288 462.547 121.362 462.825 120.156 462.825H117.644ZM117.644 461.675H120.171C120.923 461.675 121.499 461.5 121.899 461.148C122.3 460.792 122.5 460.279 122.5 459.61C122.5 458.975 122.3 458.467 121.899 458.086C121.499 457.706 120.95 457.508 120.251 457.493H117.644V461.675ZM128.674 467.146C127.6 467.146 126.726 466.795 126.052 466.092C125.378 465.384 125.042 464.439 125.042 463.257V463.008C125.042 462.222 125.19 461.521 125.488 460.906C125.791 460.286 126.211 459.803 126.748 459.456C127.29 459.104 127.876 458.929 128.506 458.929C129.536 458.929 130.337 459.268 130.908 459.947C131.479 460.625 131.765 461.597 131.765 462.862V463.426H126.396C126.416 464.207 126.643 464.839 127.078 465.323C127.517 465.801 128.074 466.041 128.748 466.041C129.226 466.041 129.631 465.943 129.963 465.748C130.295 465.552 130.586 465.293 130.835 464.971L131.663 465.616C130.999 466.636 130.002 467.146 128.674 467.146ZM128.506 460.042C127.959 460.042 127.5 460.242 127.129 460.643C126.758 461.038 126.528 461.595 126.44 462.312H130.41V462.21C130.371 461.521 130.186 460.989 129.854 460.613C129.521 460.232 129.072 460.042 128.506 460.042ZM134.622 459.075L134.666 460.071C135.271 459.31 136.062 458.929 137.039 458.929C138.713 458.929 139.558 459.874 139.573 461.763V467H138.218V461.756C138.213 461.185 138.081 460.762 137.822 460.489C137.568 460.215 137.17 460.079 136.628 460.079C136.189 460.079 135.803 460.196 135.471 460.43C135.139 460.665 134.88 460.972 134.695 461.353V467H133.34V459.075H134.622ZM141.294 462.972C141.294 461.736 141.58 460.755 142.151 460.027C142.722 459.295 143.479 458.929 144.421 458.929C145.388 458.929 146.143 459.271 146.685 459.954L146.75 459.075H147.988V466.81C147.988 467.835 147.683 468.643 147.073 469.234C146.467 469.825 145.652 470.12 144.626 470.12C144.055 470.12 143.496 469.998 142.949 469.754C142.402 469.51 141.985 469.175 141.697 468.75L142.4 467.938C142.981 468.655 143.691 469.014 144.531 469.014C145.19 469.014 145.703 468.829 146.069 468.458C146.44 468.086 146.626 467.564 146.626 466.89V466.209C146.084 466.834 145.344 467.146 144.407 467.146C143.479 467.146 142.727 466.773 142.151 466.026C141.58 465.279 141.294 464.261 141.294 462.972ZM142.656 463.125C142.656 464.019 142.839 464.722 143.206 465.235C143.572 465.743 144.084 465.997 144.744 465.997C145.598 465.997 146.226 465.608 146.626 464.832V461.214C146.211 460.457 145.588 460.079 144.758 460.079C144.099 460.079 143.584 460.335 143.213 460.848C142.842 461.36 142.656 462.12 142.656 463.125ZM153.328 467.146C152.253 467.146 151.379 466.795 150.706 466.092C150.032 465.384 149.695 464.439 149.695 463.257V463.008C149.695 462.222 149.844 461.521 150.142 460.906C150.444 460.286 150.864 459.803 151.401 459.456C151.943 459.104 152.529 458.929 153.159 458.929C154.189 458.929 154.99 459.268 155.562 459.947C156.133 460.625 156.418 461.597 156.418 462.862V463.426H151.05C151.069 464.207 151.296 464.839 151.731 465.323C152.17 465.801 152.727 466.041 153.401 466.041C153.879 466.041 154.285 465.943 154.617 465.748C154.949 465.552 155.239 465.293 155.488 464.971L156.316 465.616C155.652 466.636 154.656 467.146 153.328 467.146ZM153.159 460.042C152.612 460.042 152.153 460.242 151.782 460.643C151.411 461.038 151.182 461.595 151.094 462.312H155.063V462.21C155.024 461.521 154.839 460.989 154.507 460.613C154.175 460.232 153.726 460.042 153.159 460.042ZM159.275 459.075L159.319 460.071C159.924 459.31 160.715 458.929 161.692 458.929C163.367 458.929 164.211 459.874 164.226 461.763V467H162.871V461.756C162.866 461.185 162.734 460.762 162.476 460.489C162.222 460.215 161.824 460.079 161.282 460.079C160.842 460.079 160.457 460.196 160.125 460.43C159.792 460.665 159.534 460.972 159.348 461.353V467H157.993V459.075H159.275ZM171.162 467C171.084 466.844 171.021 466.565 170.972 466.165C170.342 466.819 169.59 467.146 168.716 467.146C167.935 467.146 167.292 466.927 166.79 466.487C166.292 466.043 166.042 465.481 166.042 464.803C166.042 463.978 166.355 463.338 166.98 462.884C167.61 462.425 168.494 462.195 169.631 462.195H170.95V461.573C170.95 461.099 170.808 460.723 170.525 460.445C170.242 460.162 169.824 460.02 169.272 460.02C168.789 460.02 168.384 460.142 168.057 460.386C167.729 460.63 167.566 460.926 167.566 461.272H166.204C166.204 460.877 166.343 460.496 166.621 460.13C166.904 459.759 167.285 459.466 167.764 459.251C168.247 459.036 168.777 458.929 169.353 458.929C170.266 458.929 170.981 459.158 171.499 459.617C172.017 460.071 172.285 460.699 172.305 461.5V465.147C172.305 465.875 172.397 466.453 172.583 466.883V467H171.162ZM168.914 465.967C169.338 465.967 169.741 465.857 170.122 465.638C170.503 465.418 170.779 465.132 170.95 464.781V463.155H169.888C168.228 463.155 167.397 463.641 167.397 464.612C167.397 465.037 167.539 465.369 167.822 465.608C168.105 465.848 168.469 465.967 168.914 465.967ZM175.901 467H174.546V455.75H175.901V467ZM182.969 467C182.891 466.844 182.827 466.565 182.778 466.165C182.148 466.819 181.396 467.146 180.522 467.146C179.741 467.146 179.099 466.927 178.596 466.487C178.098 466.043 177.849 465.481 177.849 464.803C177.849 463.978 178.162 463.338 178.787 462.884C179.417 462.425 180.3 462.195 181.438 462.195H182.756V461.573C182.756 461.099 182.615 460.723 182.332 460.445C182.048 460.162 181.631 460.02 181.079 460.02C180.596 460.02 180.19 460.142 179.863 460.386C179.536 460.63 179.373 460.926 179.373 461.272H178.01C178.01 460.877 178.149 460.496 178.428 460.13C178.711 459.759 179.092 459.466 179.57 459.251C180.054 459.036 180.583 458.929 181.16 458.929C182.073 458.929 182.788 459.158 183.306 459.617C183.823 460.071 184.092 460.699 184.111 461.5V465.147C184.111 465.875 184.204 466.453 184.39 466.883V467H182.969ZM180.72 465.967C181.145 465.967 181.548 465.857 181.929 465.638C182.31 465.418 182.585 465.132 182.756 464.781V463.155H181.694C180.034 463.155 179.204 463.641 179.204 464.612C179.204 465.037 179.346 465.369 179.629 465.608C179.912 465.848 180.276 465.967 180.72 465.967ZM187.517 459.075L187.561 460.071C188.167 459.31 188.958 458.929 189.934 458.929C191.609 458.929 192.454 459.874 192.468 461.763V467H191.113V461.756C191.108 461.185 190.977 460.762 190.718 460.489C190.464 460.215 190.066 460.079 189.524 460.079C189.084 460.079 188.699 460.196 188.367 460.43C188.035 460.665 187.776 460.972 187.59 461.353V467H186.235V459.075H187.517Z" fill="black"/>
<path d="M119.199 438.646H125.42V441H116.27V426.781H119.199V438.646ZM129.902 441H127.07V430.434H129.902V441ZM126.904 427.699C126.904 427.276 127.044 426.928 127.324 426.654C127.611 426.381 127.998 426.244 128.486 426.244C128.968 426.244 129.352 426.381 129.639 426.654C129.925 426.928 130.068 427.276 130.068 427.699C130.068 428.129 129.922 428.48 129.629 428.754C129.342 429.027 128.962 429.164 128.486 429.164C128.011 429.164 127.627 429.027 127.334 428.754C127.048 428.48 126.904 428.129 126.904 427.699ZM134.834 430.434L134.922 431.654C135.677 430.71 136.689 430.238 137.959 430.238C139.079 430.238 139.912 430.567 140.459 431.225C141.006 431.882 141.286 432.865 141.299 434.174V441H138.477V434.242C138.477 433.643 138.346 433.21 138.086 432.943C137.826 432.67 137.393 432.533 136.787 432.533C135.993 432.533 135.397 432.872 135 433.549V441H132.178V430.434H134.834ZM148.311 441.195C146.761 441.195 145.498 440.72 144.521 439.77C143.551 438.819 143.066 437.553 143.066 435.971V435.697C143.066 434.636 143.271 433.689 143.682 432.855C144.092 432.016 144.671 431.371 145.42 430.922C146.175 430.466 147.035 430.238 147.998 430.238C149.443 430.238 150.579 430.694 151.406 431.605C152.24 432.517 152.656 433.809 152.656 435.482V436.635H145.928C146.019 437.325 146.292 437.878 146.748 438.295C147.21 438.712 147.793 438.92 148.496 438.92C149.583 438.92 150.433 438.526 151.045 437.738L152.432 439.291C152.008 439.89 151.436 440.359 150.713 440.697C149.99 441.029 149.189 441.195 148.311 441.195ZM147.988 432.523C147.428 432.523 146.973 432.712 146.621 433.09C146.276 433.467 146.055 434.008 145.957 434.711H149.883V434.486C149.87 433.861 149.701 433.38 149.375 433.041C149.049 432.696 148.587 432.523 147.988 432.523ZM160.391 441C160.26 440.746 160.166 440.43 160.107 440.053C159.424 440.814 158.535 441.195 157.441 441.195C156.406 441.195 155.547 440.896 154.863 440.297C154.186 439.698 153.848 438.943 153.848 438.031C153.848 436.911 154.261 436.052 155.088 435.453C155.921 434.854 157.122 434.551 158.691 434.545H159.99V433.939C159.99 433.451 159.863 433.061 159.609 432.768C159.362 432.475 158.968 432.328 158.428 432.328C157.952 432.328 157.578 432.442 157.305 432.67C157.038 432.898 156.904 433.21 156.904 433.607H154.082C154.082 432.995 154.271 432.429 154.648 431.908C155.026 431.387 155.56 430.98 156.25 430.688C156.94 430.388 157.715 430.238 158.574 430.238C159.876 430.238 160.908 430.567 161.67 431.225C162.438 431.876 162.822 432.794 162.822 433.979V438.559C162.829 439.561 162.969 440.32 163.242 440.834V441H160.391ZM158.057 439.037C158.473 439.037 158.857 438.946 159.209 438.764C159.561 438.575 159.821 438.324 159.99 438.012V436.195H158.936C157.523 436.195 156.771 436.684 156.68 437.66L156.67 437.826C156.67 438.178 156.794 438.467 157.041 438.695C157.288 438.923 157.627 439.037 158.057 439.037ZM170.928 433.08C170.544 433.028 170.205 433.002 169.912 433.002C168.844 433.002 168.145 433.363 167.812 434.086V441H164.99V430.434H167.656L167.734 431.693C168.301 430.723 169.085 430.238 170.088 430.238C170.4 430.238 170.693 430.281 170.967 430.365L170.928 433.08Z" fill="black"/>
<path d="M119.768 495.132L122.815 486.336H124.353L120.398 497H119.153L115.205 486.336H116.736L119.768 495.132ZM130.132 497C130.054 496.844 129.99 496.565 129.941 496.165C129.312 496.819 128.56 497.146 127.686 497.146C126.904 497.146 126.262 496.927 125.759 496.487C125.261 496.043 125.012 495.481 125.012 494.803C125.012 493.978 125.325 493.338 125.95 492.884C126.58 492.425 127.463 492.195 128.601 492.195H129.919V491.573C129.919 491.099 129.778 490.723 129.495 490.445C129.211 490.162 128.794 490.02 128.242 490.02C127.759 490.02 127.354 490.142 127.026 490.386C126.699 490.63 126.536 490.926 126.536 491.272H125.173C125.173 490.877 125.312 490.496 125.591 490.13C125.874 489.759 126.255 489.466 126.733 489.251C127.217 489.036 127.747 488.929 128.323 488.929C129.236 488.929 129.951 489.158 130.469 489.617C130.986 490.071 131.255 490.699 131.274 491.5V495.147C131.274 495.875 131.367 496.453 131.553 496.883V497H130.132ZM127.883 495.967C128.308 495.967 128.711 495.857 129.092 495.638C129.473 495.418 129.749 495.132 129.919 494.781V493.155H128.857C127.197 493.155 126.367 493.641 126.367 494.612C126.367 495.037 126.509 495.369 126.792 495.608C127.075 495.848 127.439 495.967 127.883 495.967ZM137.229 490.291C137.024 490.257 136.802 490.24 136.562 490.24C135.674 490.24 135.071 490.618 134.753 491.375V497H133.398V489.075H134.717L134.739 489.991C135.183 489.283 135.813 488.929 136.628 488.929C136.892 488.929 137.092 488.963 137.229 489.031V490.291ZM139.954 497H138.599V489.075H139.954V497ZM138.489 486.973C138.489 486.753 138.555 486.568 138.687 486.417C138.823 486.265 139.023 486.189 139.287 486.189C139.551 486.189 139.751 486.265 139.888 486.417C140.024 486.568 140.093 486.753 140.093 486.973C140.093 487.193 140.024 487.376 139.888 487.522C139.751 487.669 139.551 487.742 139.287 487.742C139.023 487.742 138.823 487.669 138.687 487.522C138.555 487.376 138.489 487.193 138.489 486.973ZM147.021 497C146.943 496.844 146.88 496.565 146.831 496.165C146.201 496.819 145.449 497.146 144.575 497.146C143.794 497.146 143.152 496.927 142.649 496.487C142.151 496.043 141.902 495.481 141.902 494.803C141.902 493.978 142.214 493.338 142.839 492.884C143.469 492.425 144.353 492.195 145.491 492.195H146.809V491.573C146.809 491.099 146.667 490.723 146.384 490.445C146.101 490.162 145.684 490.02 145.132 490.02C144.648 490.02 144.243 490.142 143.916 490.386C143.589 490.63 143.425 490.926 143.425 491.272H142.063C142.063 490.877 142.202 490.496 142.48 490.13C142.764 489.759 143.145 489.466 143.623 489.251C144.106 489.036 144.636 488.929 145.212 488.929C146.125 488.929 146.841 489.158 147.358 489.617C147.876 490.071 148.145 490.699 148.164 491.5V495.147C148.164 495.875 148.257 496.453 148.442 496.883V497H147.021ZM144.773 495.967C145.198 495.967 145.601 495.857 145.981 495.638C146.362 495.418 146.638 495.132 146.809 494.781V493.155H145.747C144.087 493.155 143.257 493.641 143.257 494.612C143.257 495.037 143.398 495.369 143.682 495.608C143.965 495.848 144.329 495.967 144.773 495.967ZM156.997 493.125C156.997 494.336 156.719 495.311 156.162 496.048C155.605 496.78 154.858 497.146 153.921 497.146C152.92 497.146 152.146 496.792 151.599 496.084L151.533 497H150.288V485.75H151.643V489.947C152.19 489.268 152.944 488.929 153.906 488.929C154.868 488.929 155.623 489.292 156.169 490.02C156.721 490.748 156.997 491.744 156.997 493.008V493.125ZM155.642 492.972C155.642 492.049 155.464 491.336 155.107 490.833C154.751 490.33 154.238 490.079 153.569 490.079C152.676 490.079 152.034 490.494 151.643 491.324V494.751C152.058 495.582 152.705 495.997 153.584 495.997C154.233 495.997 154.739 495.745 155.1 495.242C155.461 494.739 155.642 493.982 155.642 492.972ZM162 497.146C160.925 497.146 160.051 496.795 159.377 496.092C158.704 495.384 158.367 494.439 158.367 493.257V493.008C158.367 492.222 158.516 491.521 158.813 490.906C159.116 490.286 159.536 489.803 160.073 489.456C160.615 489.104 161.201 488.929 161.831 488.929C162.861 488.929 163.662 489.268 164.233 489.947C164.805 490.625 165.09 491.597 165.09 492.862V493.426H159.722C159.741 494.207 159.968 494.839 160.403 495.323C160.842 495.801 161.399 496.041 162.073 496.041C162.551 496.041 162.957 495.943 163.289 495.748C163.621 495.552 163.911 495.293 164.16 494.971L164.988 495.616C164.324 496.636 163.328 497.146 162 497.146ZM161.831 490.042C161.284 490.042 160.825 490.242 160.454 490.643C160.083 491.038 159.854 491.595 159.766 492.312H163.735V492.21C163.696 491.521 163.511 490.989 163.179 490.613C162.847 490.232 162.397 490.042 161.831 490.042ZM168.137 497H166.782V485.75H168.137V497Z" fill="black"/>
<path d="M120.149 522.686H117.644V527H116.23V516.336H119.761C120.962 516.336 121.885 516.609 122.529 517.156C123.179 517.703 123.503 518.499 123.503 519.544C123.503 520.208 123.323 520.787 122.961 521.28C122.605 521.773 122.107 522.142 121.467 522.386L123.972 526.912V527H122.463L120.149 522.686ZM117.644 521.536H119.805C120.503 521.536 121.057 521.355 121.467 520.994C121.882 520.633 122.09 520.149 122.09 519.544C122.09 518.885 121.892 518.379 121.497 518.028C121.106 517.676 120.54 517.498 119.797 517.493H117.644V521.536ZM130.161 526.216C129.634 526.836 128.86 527.146 127.839 527.146C126.995 527.146 126.35 526.902 125.906 526.414C125.466 525.921 125.244 525.193 125.239 524.231V519.075H126.594V524.195C126.594 525.396 127.083 525.997 128.059 525.997C129.094 525.997 129.783 525.611 130.125 524.839V519.075H131.479V527H130.19L130.161 526.216ZM134.819 519.075L134.856 519.954C135.437 519.271 136.221 518.929 137.207 518.929C138.315 518.929 139.07 519.354 139.47 520.203C139.734 519.822 140.076 519.515 140.496 519.28C140.92 519.046 141.421 518.929 141.997 518.929C143.735 518.929 144.619 519.849 144.648 521.69V527H143.293V521.771C143.293 521.204 143.164 520.782 142.905 520.503C142.646 520.22 142.212 520.079 141.602 520.079C141.099 520.079 140.681 520.23 140.349 520.533C140.017 520.831 139.824 521.233 139.771 521.741V527H138.408V521.807C138.408 520.655 137.844 520.079 136.716 520.079C135.828 520.079 135.22 520.457 134.893 521.214V527H133.538V519.075H134.819ZM151.592 526.216C151.064 526.836 150.291 527.146 149.27 527.146C148.425 527.146 147.781 526.902 147.336 526.414C146.897 525.921 146.675 525.193 146.67 524.231V519.075H148.025V524.195C148.025 525.396 148.513 525.997 149.49 525.997C150.525 525.997 151.213 525.611 151.555 524.839V519.075H152.91V527H151.621L151.592 526.216ZM159.59 524.898C159.59 524.532 159.451 524.249 159.172 524.048C158.899 523.843 158.418 523.667 157.729 523.521C157.046 523.375 156.501 523.199 156.096 522.994C155.696 522.789 155.398 522.544 155.203 522.261C155.012 521.978 154.917 521.641 154.917 521.25C154.917 520.601 155.19 520.052 155.737 519.603C156.289 519.153 156.992 518.929 157.847 518.929C158.745 518.929 159.473 519.161 160.029 519.625C160.591 520.088 160.872 520.682 160.872 521.404H159.509C159.509 521.033 159.351 520.713 159.033 520.445C158.721 520.176 158.325 520.042 157.847 520.042C157.354 520.042 156.968 520.149 156.689 520.364C156.411 520.579 156.272 520.86 156.272 521.207C156.272 521.534 156.401 521.78 156.66 521.946C156.919 522.112 157.385 522.271 158.059 522.422C158.738 522.574 159.287 522.754 159.707 522.964C160.127 523.174 160.437 523.428 160.637 523.726C160.842 524.019 160.945 524.378 160.945 524.803C160.945 525.511 160.662 526.08 160.095 526.509C159.529 526.934 158.794 527.146 157.891 527.146C157.256 527.146 156.694 527.034 156.206 526.81C155.718 526.585 155.334 526.272 155.056 525.872C154.783 525.467 154.646 525.03 154.646 524.561H156.001C156.025 525.015 156.206 525.376 156.543 525.645C156.885 525.909 157.334 526.041 157.891 526.041C158.403 526.041 158.813 525.938 159.121 525.733C159.434 525.523 159.59 525.245 159.59 524.898Z" fill="black"/>
<path d="M124.082 553.616C123.95 554.744 123.533 555.616 122.83 556.231C122.131 556.841 121.201 557.146 120.039 557.146C118.779 557.146 117.769 556.695 117.007 555.792C116.25 554.888 115.872 553.68 115.872 552.166V551.141C115.872 550.149 116.047 549.278 116.399 548.526C116.755 547.774 117.258 547.198 117.908 546.797C118.557 546.392 119.309 546.189 120.164 546.189C121.296 546.189 122.205 546.507 122.888 547.142C123.572 547.771 123.97 548.646 124.082 549.764H122.668C122.546 548.914 122.28 548.299 121.87 547.918C121.465 547.537 120.896 547.347 120.164 547.347C119.265 547.347 118.56 547.679 118.047 548.343C117.539 549.007 117.285 549.952 117.285 551.177V552.21C117.285 553.367 117.527 554.288 118.01 554.971C118.494 555.655 119.17 555.997 120.039 555.997C120.82 555.997 121.418 555.821 121.833 555.469C122.253 555.113 122.532 554.495 122.668 553.616H124.082ZM125.437 552.964C125.437 552.188 125.588 551.49 125.891 550.87C126.199 550.25 126.624 549.771 127.166 549.434C127.712 549.097 128.335 548.929 129.033 548.929C130.112 548.929 130.984 549.302 131.648 550.049C132.317 550.796 132.651 551.79 132.651 553.03V553.125C132.651 553.897 132.502 554.59 132.205 555.206C131.912 555.816 131.489 556.292 130.938 556.634C130.391 556.976 129.761 557.146 129.048 557.146C127.974 557.146 127.102 556.773 126.433 556.026C125.769 555.279 125.437 554.29 125.437 553.06V552.964ZM126.799 553.125C126.799 554.004 127.002 554.71 127.407 555.242C127.817 555.774 128.364 556.041 129.048 556.041C129.736 556.041 130.283 555.772 130.688 555.235C131.094 554.693 131.296 553.936 131.296 552.964C131.296 552.095 131.089 551.392 130.674 550.855C130.264 550.313 129.717 550.042 129.033 550.042C128.364 550.042 127.825 550.308 127.415 550.84C127.004 551.373 126.799 552.134 126.799 553.125ZM135.632 549.075L135.676 550.071C136.282 549.31 137.073 548.929 138.049 548.929C139.724 548.929 140.569 549.874 140.583 551.763V557H139.229V551.756C139.224 551.185 139.092 550.762 138.833 550.489C138.579 550.215 138.181 550.079 137.639 550.079C137.2 550.079 136.814 550.196 136.482 550.43C136.15 550.665 135.891 550.972 135.706 551.353V557H134.351V549.075H135.632ZM144.465 547.156V549.075H145.945V550.123H144.465V555.037C144.465 555.354 144.531 555.594 144.663 555.755C144.795 555.911 145.02 555.989 145.337 555.989C145.493 555.989 145.708 555.96 145.981 555.901V557C145.625 557.098 145.278 557.146 144.941 557.146C144.336 557.146 143.879 556.963 143.572 556.597C143.264 556.231 143.11 555.711 143.11 555.037V550.123H141.667V549.075H143.11V547.156H144.465ZM147.029 552.964C147.029 552.188 147.18 551.49 147.483 550.87C147.791 550.25 148.215 549.771 148.757 549.434C149.304 549.097 149.927 548.929 150.625 548.929C151.704 548.929 152.576 549.302 153.24 550.049C153.909 550.796 154.243 551.79 154.243 553.03V553.125C154.243 553.897 154.094 554.59 153.796 555.206C153.503 555.816 153.081 556.292 152.529 556.634C151.982 556.976 151.353 557.146 150.64 557.146C149.565 557.146 148.694 556.773 148.025 556.026C147.361 555.279 147.029 554.29 147.029 553.06V552.964ZM148.391 553.125C148.391 554.004 148.594 554.71 148.999 555.242C149.409 555.774 149.956 556.041 150.64 556.041C151.328 556.041 151.875 555.772 152.28 555.235C152.686 554.693 152.888 553.936 152.888 552.964C152.888 552.095 152.681 551.392 152.266 550.855C151.855 550.313 151.309 550.042 150.625 550.042C149.956 550.042 149.417 550.308 149.006 550.84C148.596 551.373 148.391 552.134 148.391 553.125ZM157.297 550.035C157.898 549.297 158.679 548.929 159.641 548.929C161.316 548.929 162.161 549.874 162.175 551.763V557H160.82V551.756C160.815 551.185 160.684 550.762 160.425 550.489C160.171 550.215 159.773 550.079 159.231 550.079C158.792 550.079 158.406 550.196 158.074 550.43C157.742 550.665 157.483 550.972 157.297 551.353V557H155.942V545.75H157.297V550.035ZM171.279 552.247C170.073 551.9 169.194 551.475 168.643 550.972C168.096 550.464 167.822 549.839 167.822 549.097C167.822 548.257 168.157 547.564 168.826 547.017C169.5 546.465 170.374 546.189 171.448 546.189C172.18 546.189 172.832 546.331 173.403 546.614C173.979 546.897 174.424 547.288 174.736 547.786C175.054 548.284 175.212 548.829 175.212 549.419H173.799C173.799 548.775 173.594 548.27 173.184 547.903C172.773 547.532 172.195 547.347 171.448 547.347C170.754 547.347 170.212 547.5 169.822 547.808C169.436 548.111 169.243 548.533 169.243 549.075C169.243 549.51 169.426 549.878 169.792 550.181C170.164 550.479 170.791 550.752 171.675 551.001C172.563 551.25 173.257 551.526 173.755 551.829C174.258 552.127 174.629 552.476 174.868 552.876C175.112 553.277 175.234 553.748 175.234 554.29C175.234 555.154 174.897 555.848 174.224 556.37C173.55 556.888 172.649 557.146 171.521 557.146C170.789 557.146 170.105 557.007 169.47 556.729C168.835 556.446 168.345 556.06 167.998 555.572C167.656 555.083 167.485 554.529 167.485 553.909H168.899C168.899 554.554 169.136 555.064 169.609 555.44C170.088 555.811 170.725 555.997 171.521 555.997C172.263 555.997 172.832 555.845 173.228 555.542C173.623 555.24 173.821 554.827 173.821 554.305C173.821 553.782 173.638 553.379 173.271 553.096C172.905 552.808 172.241 552.525 171.279 552.247ZM176.472 552.964C176.472 552.188 176.624 551.49 176.926 550.87C177.234 550.25 177.659 549.771 178.201 549.434C178.748 549.097 179.37 548.929 180.068 548.929C181.147 548.929 182.019 549.302 182.683 550.049C183.352 550.796 183.687 551.79 183.687 553.03V553.125C183.687 553.897 183.538 554.59 183.24 555.206C182.947 555.816 182.524 556.292 181.973 556.634C181.426 556.976 180.796 557.146 180.083 557.146C179.009 557.146 178.137 556.773 177.468 556.026C176.804 555.279 176.472 554.29 176.472 553.06V552.964ZM177.834 553.125C177.834 554.004 178.037 554.71 178.442 555.242C178.853 555.774 179.399 556.041 180.083 556.041C180.771 556.041 181.318 555.772 181.724 555.235C182.129 554.693 182.332 553.936 182.332 552.964C182.332 552.095 182.124 551.392 181.709 550.855C181.299 550.313 180.752 550.042 180.068 550.042C179.399 550.042 178.86 550.308 178.45 550.84C178.04 551.373 177.834 552.134 177.834 553.125ZM190.278 557C190.2 556.844 190.137 556.565 190.088 556.165C189.458 556.819 188.706 557.146 187.832 557.146C187.051 557.146 186.409 556.927 185.906 556.487C185.408 556.043 185.159 555.481 185.159 554.803C185.159 553.978 185.471 553.338 186.096 552.884C186.726 552.425 187.61 552.195 188.748 552.195H190.066V551.573C190.066 551.099 189.924 550.723 189.641 550.445C189.358 550.162 188.94 550.02 188.389 550.02C187.905 550.02 187.5 550.142 187.173 550.386C186.846 550.63 186.682 550.926 186.682 551.272H185.32C185.32 550.877 185.459 550.496 185.737 550.13C186.021 549.759 186.401 549.466 186.88 549.251C187.363 549.036 187.893 548.929 188.469 548.929C189.382 548.929 190.098 549.158 190.615 549.617C191.133 550.071 191.401 550.699 191.421 551.5V555.147C191.421 555.875 191.514 556.453 191.699 556.883V557H190.278ZM188.03 555.967C188.455 555.967 188.857 555.857 189.238 555.638C189.619 555.418 189.895 555.132 190.066 554.781V553.155H189.004C187.344 553.155 186.514 553.641 186.514 554.612C186.514 555.037 186.655 555.369 186.938 555.608C187.222 555.848 187.585 555.967 188.03 555.967ZM195.017 557H193.662V545.75H195.017V557Z" fill="black"/>
<path d="M492.193 266.776C492.666 266.491 492.818 265.876 492.533 265.403L487.884 257.697C487.599 257.224 486.984 257.072 486.511 257.357C486.038 257.642 485.886 258.257 486.172 258.73L490.304 265.58L483.454 269.712C482.981 269.997 482.829 270.612 483.114 271.085C483.399 271.558 484.014 271.71 484.487 271.425L492.193 266.776ZM357.518 312.834C358.123 313.63 358.123 313.63 358.124 313.63C358.124 313.629 358.125 313.629 358.126 313.628C358.128 313.626 358.132 313.624 358.136 313.62C358.145 313.613 358.159 313.603 358.178 313.589C358.216 313.56 358.272 313.518 358.347 313.462C358.497 313.349 358.722 313.182 359.018 312.964C359.61 312.527 360.486 311.888 361.622 311.078C363.894 309.458 367.204 307.158 371.346 304.438C379.633 298.999 391.247 291.888 404.559 285.201C417.875 278.511 432.865 272.258 447.908 268.517C462.958 264.774 477.994 263.564 491.437 266.89L491.917 264.949C478.043 261.516 462.652 262.79 447.425 266.576C432.192 270.364 417.057 276.684 403.662 283.413C390.263 290.145 378.581 297.297 370.249 302.767C366.082 305.502 362.752 307.817 360.461 309.449C359.316 310.266 358.431 310.912 357.831 311.354C357.531 311.575 357.302 311.745 357.148 311.861C357.071 311.918 357.013 311.962 356.974 311.992C356.954 312.007 356.939 312.018 356.929 312.026C356.924 312.03 356.92 312.033 356.917 312.035C356.916 312.036 356.915 312.036 356.914 312.037C356.913 312.038 356.913 312.038 357.518 312.834Z" fill="url(#paint0_linear)"/>
<g filter="url(#filter2_d)">
<rect x="259" y="330" width="156" height="20" fill="#99C0FF"/>
</g>
<path d="M268.936 322.656L266.32 322.368V321.168H272.68L276.064 331.968L276.856 335.016L277.576 331.968L280.936 321.168H287.248V322.368L284.608 322.656L286.528 337.56L288.616 337.824V339H281.704V337.824L283.888 337.584L282.808 326.808L282.304 322.176L281.296 325.632L277.288 338.184H275.728L271.84 326.688L270.424 322.152L269.992 326.808L269.032 337.584L271.408 337.824V339H265.144V337.824L267.184 337.584L268.936 322.656ZM289.846 335.4C289.846 333.896 290.598 332.792 292.102 332.088C293.606 331.368 295.51 330.984 297.814 330.936V330.264C297.814 329.512 297.734 328.92 297.574 328.488C297.414 328.056 297.134 327.744 296.734 327.552C296.35 327.344 295.798 327.24 295.078 327.24C294.262 327.24 293.526 327.36 292.87 327.6C292.23 327.824 291.59 328.104 290.95 328.44L290.35 327.192C290.558 327.016 290.942 326.784 291.502 326.496C292.062 326.208 292.71 325.952 293.446 325.728C294.182 325.504 294.918 325.392 295.654 325.392C296.79 325.392 297.686 325.552 298.342 325.872C299.014 326.176 299.494 326.672 299.782 327.36C300.07 328.048 300.214 328.968 300.214 330.12V337.824H301.63V338.88C301.31 338.96 300.902 339.04 300.406 339.12C299.926 339.2 299.502 339.24 299.134 339.24C298.686 339.24 298.382 339.168 298.222 339.024C298.062 338.896 297.982 338.6 297.982 338.136V337.344C297.502 337.824 296.91 338.264 296.206 338.664C295.518 339.064 294.734 339.264 293.854 339.264C292.702 339.264 291.742 338.936 290.974 338.28C290.222 337.608 289.846 336.648 289.846 335.4ZM294.886 337.632C295.302 337.632 295.782 337.504 296.326 337.248C296.87 336.992 297.366 336.688 297.814 336.336V332.208C296.07 332.208 294.75 332.48 293.854 333.024C292.974 333.552 292.534 334.248 292.534 335.112C292.534 335.976 292.742 336.616 293.158 337.032C293.59 337.432 294.166 337.632 294.886 337.632ZM307.403 339.24C306.491 339.24 305.811 339.032 305.363 338.616C304.915 338.2 304.691 337.488 304.691 336.48V327.264H302.963V326.184C303.043 326.168 303.267 326.112 303.635 326.016C304.003 325.92 304.251 325.832 304.379 325.752C304.635 325.608 304.835 325.32 304.979 324.888C305.107 324.584 305.259 324.096 305.435 323.424C305.611 322.752 305.715 322.352 305.747 322.224H307.163L307.211 325.68H311.219V327.264H307.211V334.632C307.211 335.544 307.235 336.184 307.283 336.552C307.347 336.92 307.467 337.16 307.643 337.272C307.835 337.384 308.155 337.44 308.603 337.44C309.035 337.44 309.507 337.384 310.019 337.272C310.547 337.16 310.955 337.04 311.243 336.912L311.603 337.992C311.219 338.28 310.595 338.56 309.731 338.832C308.883 339.104 308.107 339.24 307.403 339.24ZM318.976 339.264C317.04 339.264 315.56 338.632 314.536 337.368C313.528 336.104 313.024 334.416 313.024 332.304C313.024 330.912 313.288 329.688 313.816 328.632C314.344 327.576 315.08 326.76 316.024 326.184C316.984 325.608 318.072 325.32 319.288 325.32C320.776 325.32 321.928 325.736 322.744 326.568C323.576 327.384 324.016 328.56 324.064 330.096C324.064 331.072 324.008 331.816 323.896 332.328H315.64C315.672 333.912 316.04 335.192 316.744 336.168C317.448 337.128 318.448 337.608 319.744 337.608C320.384 337.608 321.048 337.496 321.736 337.272C322.44 337.032 322.984 336.752 323.368 336.432L323.824 337.488C323.36 337.968 322.672 338.384 321.76 338.736C320.848 339.088 319.92 339.264 318.976 339.264ZM321.424 331.056C321.472 330.72 321.496 330.376 321.496 330.024C321.48 328.984 321.256 328.168 320.824 327.576C320.408 326.968 319.744 326.664 318.832 326.664C317.904 326.664 317.16 327 316.6 327.672C316.056 328.344 315.744 329.472 315.664 331.056H321.424ZM326.103 337.824L327.567 337.608V327.528L325.839 327.096V325.8L329.271 325.368L329.703 325.68L329.847 326.64L329.823 327.408C330.383 326.896 331.143 326.432 332.103 326.016C333.079 325.584 333.951 325.368 334.719 325.368C335.583 325.368 336.279 325.512 336.807 325.8C337.335 326.088 337.735 326.536 338.007 327.144C338.519 326.712 339.231 326.312 340.143 325.944C341.071 325.56 341.935 325.368 342.735 325.368C343.727 325.368 344.503 325.56 345.063 325.944C345.623 326.312 346.015 326.896 346.239 327.696C346.479 328.48 346.599 329.536 346.599 330.864V337.608L348.327 337.824V339H342.615V337.824L344.103 337.608V330.936C344.103 330.008 344.031 329.272 343.887 328.728C343.759 328.168 343.503 327.752 343.119 327.48C342.751 327.208 342.215 327.072 341.511 327.072C340.983 327.072 340.423 327.192 339.831 327.432C339.239 327.656 338.735 327.928 338.319 328.248C338.463 328.872 338.535 329.76 338.535 330.912V337.608L340.239 337.824V339H334.431V337.824L336.015 337.608V330.888C336.015 329.928 335.951 329.184 335.823 328.656C335.711 328.128 335.487 327.736 335.151 327.48C334.815 327.208 334.303 327.072 333.615 327.072C333.039 327.072 332.423 327.216 331.767 327.504C331.127 327.792 330.567 328.128 330.087 328.512V337.608L331.695 337.824V339H326.103V337.824ZM350.01 335.4C350.01 333.896 350.762 332.792 352.266 332.088C353.77 331.368 355.674 330.984 357.978 330.936V330.264C357.978 329.512 357.898 328.92 357.738 328.488C357.578 328.056 357.298 327.744 356.898 327.552C356.514 327.344 355.962 327.24 355.242 327.24C354.426 327.24 353.69 327.36 353.034 327.6C352.394 327.824 351.754 328.104 351.114 328.44L350.514 327.192C350.722 327.016 351.106 326.784 351.666 326.496C352.226 326.208 352.874 325.952 353.61 325.728C354.346 325.504 355.082 325.392 355.818 325.392C356.954 325.392 357.85 325.552 358.506 325.872C359.178 326.176 359.658 326.672 359.946 327.36C360.234 328.048 360.378 328.968 360.378 330.12V337.824H361.794V338.88C361.474 338.96 361.066 339.04 360.57 339.12C360.09 339.2 359.666 339.24 359.298 339.24C358.85 339.24 358.546 339.168 358.386 339.024C358.226 338.896 358.146 338.6 358.146 338.136V337.344C357.666 337.824 357.074 338.264 356.37 338.664C355.682 339.064 354.898 339.264 354.018 339.264C352.866 339.264 351.906 338.936 351.138 338.28C350.386 337.608 350.01 336.648 350.01 335.4ZM355.05 337.632C355.466 337.632 355.946 337.504 356.49 337.248C357.034 336.992 357.53 336.688 357.978 336.336V332.208C356.234 332.208 354.914 332.48 354.018 333.024C353.138 333.552 352.698 334.248 352.698 335.112C352.698 335.976 352.906 336.616 353.322 337.032C353.754 337.432 354.33 337.632 355.05 337.632ZM367.567 339.24C366.655 339.24 365.975 339.032 365.527 338.616C365.079 338.2 364.855 337.488 364.855 336.48V327.264H363.127V326.184C363.207 326.168 363.431 326.112 363.799 326.016C364.167 325.92 364.415 325.832 364.543 325.752C364.799 325.608 364.999 325.32 365.143 324.888C365.271 324.584 365.423 324.096 365.599 323.424C365.775 322.752 365.879 322.352 365.911 322.224H367.327L367.375 325.68H371.383V327.264H367.375V334.632C367.375 335.544 367.399 336.184 367.447 336.552C367.511 336.92 367.631 337.16 367.807 337.272C367.999 337.384 368.319 337.44 368.767 337.44C369.199 337.44 369.671 337.384 370.183 337.272C370.711 337.16 371.119 337.04 371.407 336.912L371.767 337.992C371.383 338.28 370.759 338.56 369.895 338.832C369.047 339.104 368.271 339.24 367.567 339.24ZM376.068 323.28C375.556 323.28 375.172 323.136 374.916 322.848C374.66 322.56 374.532 322.192 374.532 321.744C374.532 321.232 374.684 320.808 374.988 320.472C375.308 320.136 375.74 319.968 376.284 319.968C376.828 319.968 377.228 320.112 377.484 320.4C377.74 320.688 377.868 321.056 377.868 321.504C377.868 322.048 377.708 322.48 377.388 322.8C377.084 323.12 376.652 323.28 376.092 323.28H376.068ZM375.108 327.528L373.284 327.096V325.824L377.004 325.368H377.052L377.604 325.8V337.632L379.524 337.824V339H373.164V337.824L375.108 337.608V327.528ZM382.5 321.096L380.628 320.832V319.8L384.444 319.344H384.468L384.996 319.704V331.44L384.948 332.856L390.492 327.12L388.692 326.784V325.68H394.5V326.784L392.604 327.12L389.076 330.552L393.636 337.632L395.124 337.824V339H389.292V337.824L390.804 337.608L387.42 332.04L384.948 334.488L384.996 335.712V337.608L386.7 337.824V339H380.988V337.824L382.5 337.608V321.096ZM395.619 335.4C395.619 333.896 396.371 332.792 397.875 332.088C399.379 331.368 401.283 330.984 403.587 330.936V330.264C403.587 329.512 403.507 328.92 403.347 328.488C403.187 328.056 402.907 327.744 402.507 327.552C402.123 327.344 401.571 327.24 400.851 327.24C400.035 327.24 399.299 327.36 398.643 327.6C398.003 327.824 397.363 328.104 396.723 328.44L396.123 327.192C396.331 327.016 396.715 326.784 397.275 326.496C397.835 326.208 398.483 325.952 399.219 325.728C399.955 325.504 400.691 325.392 401.427 325.392C402.563 325.392 403.459 325.552 404.115 325.872C404.787 326.176 405.267 326.672 405.555 327.36C405.843 328.048 405.987 328.968 405.987 330.12V337.824H407.403V338.88C407.083 338.96 406.675 339.04 406.179 339.12C405.699 339.2 405.275 339.24 404.907 339.24C404.459 339.24 404.155 339.168 403.995 339.024C403.835 338.896 403.755 338.6 403.755 338.136V337.344C403.275 337.824 402.683 338.264 401.979 338.664C401.291 339.064 400.507 339.264 399.627 339.264C398.475 339.264 397.515 338.936 396.747 338.28C395.995 337.608 395.619 336.648 395.619 335.4ZM400.659 337.632C401.075 337.632 401.555 337.504 402.099 337.248C402.643 336.992 403.139 336.688 403.587 336.336V332.208C401.843 332.208 400.523 332.48 399.627 333.024C398.747 333.552 398.307 334.248 398.307 335.112C398.307 335.976 398.515 336.616 398.931 337.032C399.363 337.432 399.939 337.632 400.659 337.632Z" fill="black"/>
<path d="M243.229 461.362C242.877 461.788 242.937 462.418 243.362 462.77L250.295 468.509C250.721 468.861 251.351 468.802 251.703 468.376C252.055 467.951 251.996 467.32 251.57 466.968L245.408 461.867L250.509 455.705C250.861 455.279 250.801 454.649 250.376 454.297C249.951 453.944 249.32 454.004 248.968 454.429L243.229 461.362ZM317.696 354.047C300.948 359.376 291.666 368.507 286.274 379.324C280.915 390.074 279.434 402.431 278.123 414.108C276.802 425.878 275.654 436.883 271.125 445.337C268.878 449.531 265.803 453.08 261.455 455.762C257.099 458.449 251.415 460.297 243.906 461.004L244.094 462.996C251.83 462.266 257.828 460.349 262.505 457.464C267.189 454.575 270.495 450.748 272.888 446.282C277.638 437.415 278.804 425.968 280.111 414.331C281.428 402.601 282.888 390.599 288.064 380.216C293.206 369.9 302.052 361.124 318.303 355.953L317.696 354.047Z" fill="url(#paint1_linear)"/>
<path d="M473.345 462.931C473.728 462.533 473.716 461.9 473.318 461.517L466.833 455.277C466.435 454.894 465.802 454.906 465.419 455.304C465.036 455.702 465.048 456.335 465.446 456.718L471.21 462.265L465.663 468.03C465.28 468.428 465.293 469.061 465.691 469.444C466.088 469.826 466.722 469.814 467.104 469.416L473.345 462.931ZM354.795 368.388C375.944 370.982 388.269 378.232 396.291 387.522C404.358 396.863 408.162 408.351 412.097 419.7C416.005 430.975 420.05 442.138 428.713 450.326C437.423 458.559 450.65 463.66 472.644 463.238L472.605 461.238C450.938 461.654 438.293 456.629 430.087 448.873C421.833 441.071 417.917 430.382 413.986 419.045C410.082 407.783 406.168 395.9 397.805 386.215C389.396 376.478 376.578 369.045 355.039 366.403L354.795 368.388Z" fill="url(#paint2_linear)"/>
<path d="M335.981 248.243C336.04 247.694 335.642 247.201 335.093 247.143L326.143 246.191C325.594 246.132 325.101 246.53 325.043 247.079C324.985 247.628 325.382 248.121 325.932 248.179L333.887 249.026L333.04 256.981C332.982 257.53 333.38 258.022 333.929 258.081C334.478 258.139 334.971 257.741 335.029 257.192L335.981 248.243ZM334.32 300.08C338.107 298.741 340.69 297.215 342.254 295.451C343.862 293.637 344.34 291.63 344.028 289.537C343.725 287.508 342.686 285.436 341.365 283.376C340.039 281.309 338.356 279.148 336.689 276.962C333.302 272.52 329.984 267.967 329.026 263.286C328.554 260.983 328.66 258.663 329.625 256.305C330.594 253.937 332.459 251.464 335.615 248.915L334.359 247.359C331.015 250.06 328.903 252.79 327.774 255.548C326.64 258.316 326.526 261.045 327.066 263.687C328.132 268.893 331.767 273.806 335.099 278.175C336.792 280.394 338.41 282.475 339.681 284.456C340.957 286.445 341.81 288.228 342.05 289.833C342.28 291.374 341.951 292.778 340.758 294.124C339.519 295.521 337.305 296.904 333.654 298.194L334.32 300.08Z" fill="url(#paint3_linear)"/>
<g filter="url(#filter3_d)">
<rect x="270" y="470" width="133" height="162" rx="10" fill="white"/>
</g>
<rect x="286" y="518" width="102" height="10" rx="5" fill="#DFDFDF" fill-opacity="0.2"/>
<rect x="286" y="548" width="102" height="10" rx="5" fill="#DFDFDF" fill-opacity="0.2"/>
<rect x="286" y="578" width="102" height="10" rx="5" fill="#DFDFDF" fill-opacity="0.2"/>
<rect x="286" y="608" width="102" height="10" rx="5" fill="#DFDFDF" fill-opacity="0.2"/>
<rect x="286" y="488" width="102" height="10" rx="5" fill="black" fill-opacity="0.22"/>
<g filter="url(#filter4_d)">
<rect x="298" y="68" width="133" height="162" rx="10" fill="white"/>
</g>
<rect x="314" y="116" width="102" height="10" rx="5" fill="#DFDFDF" fill-opacity="0.2"/>
<rect x="314" y="146" width="102" height="10" rx="5" fill="#DFDFDF" fill-opacity="0.2"/>
<rect x="314" y="176" width="102" height="10" rx="5" fill="#DFDFDF" fill-opacity="0.2"/>
<rect x="314" y="206" width="102" height="10" rx="5" fill="#DFDFDF" fill-opacity="0.2"/>
<rect x="314" y="86" width="102" height="10" rx="5" fill="black" fill-opacity="0.22"/>
<path d="M133.62 344.215C133.186 343.873 132.557 343.947 132.215 344.38L126.635 351.441C126.292 351.874 126.366 352.503 126.799 352.846C127.232 353.188 127.861 353.114 128.204 352.681L133.164 346.405L139.441 351.365C139.874 351.707 140.503 351.634 140.845 351.2C141.188 350.767 141.114 350.138 140.681 349.796L133.62 344.215ZM246.234 346.356C225.12 371.445 198.503 384.627 176.494 384.75C165.505 384.811 155.693 381.621 148.238 375.077C140.785 368.535 135.595 358.562 133.993 344.884L132.006 345.116C133.655 359.188 139.027 369.652 146.918 376.58C154.806 383.504 165.12 386.814 176.505 386.75C199.247 386.623 226.379 373.055 247.765 347.644L246.234 346.356Z" fill="url(#paint4_linear)"/>
<path d="M343.332 462.744C343.743 463.113 344.375 463.079 344.744 462.668L350.757 455.972C351.126 455.561 351.092 454.929 350.681 454.56C350.27 454.191 349.638 454.225 349.269 454.635L343.924 460.588L337.972 455.243C337.561 454.874 336.929 454.908 336.56 455.319C336.191 455.73 336.225 456.362 336.635 456.731L343.332 462.744ZM338.001 369.054L343.001 462.054L344.999 461.946L339.999 368.946L338.001 369.054Z" fill="url(#paint5_linear)"/>
<g filter="url(#filter5_d)">
<rect x="483" y="427" width="133" height="162" rx="10" fill="white"/>
</g>
<rect x="499" y="475" width="102" height="10" rx="5" fill="#DFDFDF"/>
<rect x="499" y="505" width="102" height="10" rx="5" fill="#DFDFDF"/>
<rect x="499" y="535" width="102" height="10" rx="5" fill="#DFDFDF"/>
<rect x="499" y="565" width="102" height="10" rx="5" fill="#DFDFDF"/>
<rect x="499" y="445" width="102" height="10" rx="5" fill="black"/>
<g filter="url(#filter6_d)">
<rect x="69" y="172" width="133" height="162" rx="10" fill="white"/>
</g>
<rect x="85" y="220" width="102" height="10" rx="5" fill="#DFDFDF"/>
<rect x="85" y="250" width="102" height="10" rx="5" fill="#DFDFDF"/>
<rect x="85" y="280" width="102" height="10" rx="5" fill="#DFDFDF"/>
<rect x="85" y="310" width="102" height="10" rx="5" fill="#DFDFDF"/>
<rect x="85" y="190" width="102" height="10" rx="5" fill="black"/>
<defs>
<filter id="filter0_d" x="472" y="155" width="185" height="214" filterUnits="userSpaceOnUse" color-interpolation-filters="sRGB">
<feFlood flood-opacity="0" result="BackgroundImageFix"/>
<feColorMatrix in="SourceAlpha" type="matrix" values="0 0 0 0 0 0 0 0 0 0 0 0 0 0 0 0 0 0 127 0"/>
<feMorphology radius="8" operator="dilate" in="SourceAlpha" result="effect1_dropShadow"/>
<feOffset dy="4"/>
<feGaussianBlur stdDeviation="9"/>
<feColorMatrix type="matrix" values="0 0 0 0 0.231373 0 0 0 0 0.509804 0 0 0 0 0.964706 0 0 0 0.25 0"/>
<feBlend mode="normal" in2="BackgroundImageFix" result="effect1_dropShadow"/>
<feBlend mode="normal" in="SourceGraphic" in2="effect1_dropShadow" result="shape"/>
</filter>
<filter id="filter1_d" x="73" y="387" width="185" height="214" filterUnits="userSpaceOnUse" color-interpolation-filters="sRGB">
<feFlood flood-opacity="0" result="BackgroundImageFix"/>
<feColorMatrix in="SourceAlpha" type="matrix" values="0 0 0 0 0 0 0 0 0 0 0 0 0 0 0 0 0 0 127 0"/>
<feMorphology radius="8" operator="dilate" in="SourceAlpha" result="effect1_dropShadow"/>
<feOffset dy="4"/>
<feGaussianBlur stdDeviation="9"/>
<feColorMatrix type="matrix" values="0 0 0 0 0.231373 0 0 0 0 0.509804 0 0 0 0 0.964706 0 0 0 0.25 0"/>
<feBlend mode="normal" in2="BackgroundImageFix" result="effect1_dropShadow"/>
<feBlend mode="normal" in="SourceGraphic" in2="effect1_dropShadow" result="shape"/>
</filter>
<filter id="filter2_d" x="243" y="317" width="188" height="52" filterUnits="userSpaceOnUse" color-interpolation-filters="sRGB">
<feFlood flood-opacity="0" result="BackgroundImageFix"/>
<feColorMatrix in="SourceAlpha" type="matrix" values="0 0 0 0 0 0 0 0 0 0 0 0 0 0 0 0 0 0 127 0"/>
<feMorphology radius="3" operator="dilate" in="SourceAlpha" result="effect1_dropShadow"/>
<feOffset dy="3"/>
<feGaussianBlur stdDeviation="6.5"/>
<feColorMatrix type="matrix" values="0 0 0 0 0.231373 0 0 0 0 0.509804 0 0 0 0 0.964706 0 0 0 0.49 0"/>
<feBlend mode="normal" in2="BackgroundImageFix" result="effect1_dropShadow"/>
<feBlend mode="normal" in="SourceGraphic" in2="effect1_dropShadow" result="shape"/>
</filter>
<filter id="filter3_d" x="244" y="448" width="185" height="214" filterUnits="userSpaceOnUse" color-interpolation-filters="sRGB">
<feFlood flood-opacity="0" result="BackgroundImageFix"/>
<feColorMatrix in="SourceAlpha" type="matrix" values="0 0 0 0 0 0 0 0 0 0 0 0 0 0 0 0 0 0 127 0"/>
<feMorphology radius="8" operator="dilate" in="SourceAlpha" result="effect1_dropShadow"/>
<feOffset dy="4"/>
<feGaussianBlur stdDeviation="9"/>
<feColorMatrix type="matrix" values="0 0 0 0 0.231373 0 0 0 0 0.509804 0 0 0 0 0.964706 0 0 0 0.25 0"/>
<feBlend mode="normal" in2="BackgroundImageFix" result="effect1_dropShadow"/>
<feBlend mode="normal" in="SourceGraphic" in2="effect1_dropShadow" result="shape"/>
</filter>
<filter id="filter4_d" x="272" y="46" width="185" height="214" filterUnits="userSpaceOnUse" color-interpolation-filters="sRGB">
<feFlood flood-opacity="0" result="BackgroundImageFix"/>
<feColorMatrix in="SourceAlpha" type="matrix" values="0 0 0 0 0 0 0 0 0 0 0 0 0 0 0 0 0 0 127 0"/>
<feMorphology radius="8" operator="dilate" in="SourceAlpha" result="effect1_dropShadow"/>
<feOffset dy="4"/>
<feGaussianBlur stdDeviation="9"/>
<feColorMatrix type="matrix" values="0 0 0 0 0.231373 0 0 0 0 0.509804 0 0 0 0 0.964706 0 0 0 0.25 0"/>
<feBlend mode="normal" in2="BackgroundImageFix" result="effect1_dropShadow"/>
<feBlend mode="normal" in="SourceGraphic" in2="effect1_dropShadow" result="shape"/>
</filter>
<filter id="filter5_d" x="457" y="405" width="185" height="214" filterUnits="userSpaceOnUse" color-interpolation-filters="sRGB">
<feFlood flood-opacity="0" result="BackgroundImageFix"/>
<feColorMatrix in="SourceAlpha" type="matrix" values="0 0 0 0 0 0 0 0 0 0 0 0 0 0 0 0 0 0 127 0"/>
<feMorphology radius="8" operator="dilate" in="SourceAlpha" result="effect1_dropShadow"/>
<feOffset dy="4"/>
<feGaussianBlur stdDeviation="9"/>
<feColorMatrix type="matrix" values="0 0 0 0 0.231373 0 0 0 0 0.509804 0 0 0 0 0.964706 0 0 0 0.25 0"/>
<feBlend mode="normal" in2="BackgroundImageFix" result="effect1_dropShadow"/>
<feBlend mode="normal" in="SourceGraphic" in2="effect1_dropShadow" result="shape"/>
</filter>
<filter id="filter6_d" x="43" y="150" width="185" height="214" filterUnits="userSpaceOnUse" color-interpolation-filters="sRGB">
<feFlood flood-opacity="0" result="BackgroundImageFix"/>
<feColorMatrix in="SourceAlpha" type="matrix" values="0 0 0 0 0 0 0 0 0 0 0 0 0 0 0 0 0 0 127 0"/>
<feMorphology radius="8" operator="dilate" in="SourceAlpha" result="effect1_dropShadow"/>
<feOffset dy="4"/>
<feGaussianBlur stdDeviation="9"/>
<feColorMatrix type="matrix" values="0 0 0 0 0.231373 0 0 0 0 0.509804 0 0 0 0 0.964706 0 0 0 0.25 0"/>
<feBlend mode="normal" in2="BackgroundImageFix" result="effect1_dropShadow"/>
<feBlend mode="normal" in="SourceGraphic" in2="effect1_dropShadow" result="shape"/>
</filter>
<linearGradient id="paint0_linear" x1="492" y1="265" x2="359.5" y2="313" gradientUnits="userSpaceOnUse">
<stop stop-color="#3B82F6"/>
<stop offset="1"/>
</linearGradient>
<linearGradient id="paint1_linear" x1="317.5" y1="355" x2="247" y2="459.5" gradientUnits="userSpaceOnUse">
<stop/>
<stop offset="1" stop-color="#3B82F6"/>
</linearGradient>
<linearGradient id="paint2_linear" x1="354.21" y1="367.587" x2="473.406" y2="465.487" gradientUnits="userSpaceOnUse">
<stop/>
<stop offset="1" stop-color="#3B82F6"/>
</linearGradient>
<linearGradient id="paint3_linear" x1="333.987" y1="299.137" x2="334.987" y2="248.137" gradientUnits="userSpaceOnUse">
<stop/>
<stop offset="1" stop-color="#3B82F6"/>
</linearGradient>
<linearGradient id="paint4_linear" x1="132" y1="345" x2="242.5" y2="353" gradientUnits="userSpaceOnUse">
<stop stop-color="#3B82F6"/>
<stop offset="1"/>
</linearGradient>
<linearGradient id="paint5_linear" x1="339" y1="371.5" x2="344" y2="462" gradientUnits="userSpaceOnUse">
<stop/>
<stop offset="1" stop-color="#3B82F6"/>
</linearGradient>
</defs>
</svg>
