<svg width="579" height="529" viewBox="0 0 579 529" fill="none" xmlns="http://www.w3.org/2000/svg">
<g filter="url(#filter0_d)">
<path d="M24 12C24 6.47715 28.4772 2 34 2H332C337.523 2 342 6.47715 342 12V264C342 269.523 337.523 274 332 274H34C28.4771 274 24 269.523 24 264V12Z" fill="#F5F5F7"/>
<path d="M34 2.5H332C337.247 2.5 341.5 6.75329 341.5 12V264C341.5 269.247 337.247 273.5 332 273.5H34C28.7533 273.5 24.5 269.247 24.5 264V12C24.5 6.75329 28.7533 2.5 34 2.5Z" stroke="#808080"/>
</g>
<path d="M56.4922 73.4312C56.055 74.0011 55.4491 74.4328 54.6743 74.7261C53.8996 75.0194 53.0197 75.166 52.0347 75.166C51.022 75.166 50.1255 74.9364 49.3452 74.4771C48.5649 74.0177 47.9618 73.362 47.5356 72.5098C47.1151 71.652 46.8965 70.6532 46.8799 69.5132V68.5669C46.8799 66.7407 47.3171 65.3158 48.1914 64.292C49.0658 63.2627 50.286 62.748 51.8521 62.748C53.1968 62.748 54.2648 63.0801 55.0562 63.7441C55.8475 64.4082 56.3234 65.3656 56.4839 66.6162H54.4253C54.1929 65.1608 53.349 64.4331 51.8936 64.4331C50.9528 64.4331 50.2362 64.7734 49.7437 65.4541C49.2567 66.1292 49.0049 67.1226 48.9883 68.4341V69.3638C48.9883 70.6698 49.2622 71.6852 49.8101 72.4102C50.3634 73.1296 51.1299 73.4893 52.1094 73.4893C53.1829 73.4893 53.9466 73.2458 54.4004 72.7588V70.3931H51.9102V68.7993H56.4922V73.4312ZM60.7505 75H58.7334V62.25H60.7505V75ZM62.5767 70.4263C62.5767 69.5464 62.751 68.755 63.0996 68.0522C63.4482 67.3439 63.938 66.8016 64.5688 66.4253C65.1997 66.0435 65.9246 65.8525 66.7437 65.8525C67.9556 65.8525 68.9378 66.2427 69.6904 67.0229C70.4486 67.8032 70.8581 68.8381 70.9189 70.1274L70.9272 70.6006C70.9272 71.486 70.7557 72.2773 70.4126 72.9746C70.075 73.6719 69.5881 74.2114 68.9517 74.5933C68.3208 74.9751 67.5903 75.166 66.7603 75.166C65.493 75.166 64.4775 74.7454 63.7139 73.9043C62.9557 73.0576 62.5767 71.9315 62.5767 70.5259V70.4263ZM64.5938 70.6006C64.5938 71.5247 64.7847 72.2497 65.1665 72.7754C65.5483 73.2956 66.0796 73.5557 66.7603 73.5557C67.4409 73.5557 67.9694 73.29 68.3457 72.7588C68.7275 72.2275 68.9185 71.45 68.9185 70.4263C68.9185 69.5187 68.722 68.7993 68.3291 68.2681C67.9417 67.7368 67.4132 67.4712 66.7437 67.4712C66.0851 67.4712 65.5622 67.734 65.1748 68.2598C64.7874 68.7799 64.5938 69.5602 64.5938 70.6006ZM77.6675 72.5596C77.6675 72.1999 77.5181 71.9259 77.2192 71.7378C76.9259 71.5496 76.4362 71.3836 75.75 71.2397C75.0638 71.0959 74.491 70.9132 74.0317 70.6919C73.0246 70.2049 72.521 69.4993 72.521 68.5752C72.521 67.8005 72.8475 67.153 73.5005 66.6328C74.1535 66.1126 74.9836 65.8525 75.9907 65.8525C77.0643 65.8525 77.9303 66.1182 78.5889 66.6494C79.2529 67.1807 79.585 67.8696 79.585 68.7163H77.5679C77.5679 68.3289 77.424 68.008 77.1362 67.7534C76.8485 67.4933 76.4666 67.3633 75.9907 67.3633C75.548 67.3633 75.1855 67.4657 74.9033 67.6704C74.6266 67.8752 74.4883 68.1491 74.4883 68.4922C74.4883 68.8021 74.6183 69.0428 74.8784 69.2144C75.1385 69.3859 75.6642 69.5602 76.4556 69.7373C77.2469 69.9089 77.8667 70.1164 78.3149 70.3599C78.7687 70.5978 79.1035 70.8856 79.3193 71.2231C79.5407 71.5607 79.6514 71.9702 79.6514 72.4517C79.6514 73.2596 79.3166 73.9154 78.647 74.4189C77.9774 74.917 77.1003 75.166 76.0156 75.166C75.2796 75.166 74.6239 75.0332 74.0483 74.7676C73.4728 74.502 73.0246 74.1367 72.7036 73.6719C72.3826 73.207 72.2222 72.7062 72.2222 72.1694H74.1812C74.2088 72.6453 74.3887 73.0133 74.7207 73.2734C75.0527 73.528 75.4927 73.6553 76.0405 73.6553C76.5718 73.6553 76.9757 73.5557 77.2524 73.3564C77.5291 73.1517 77.6675 72.8861 77.6675 72.5596ZM86.7817 75C86.6932 74.8285 86.6157 74.549 86.5493 74.1616C85.9074 74.8312 85.1216 75.166 84.1919 75.166C83.2899 75.166 82.5539 74.9087 81.9839 74.394C81.4139 73.8794 81.1289 73.243 81.1289 72.4849C81.1289 71.5275 81.4831 70.7943 82.1914 70.2852C82.9053 69.7705 83.9235 69.5132 85.2461 69.5132H86.4829V68.9238C86.4829 68.459 86.3529 68.0882 86.0928 67.8115C85.8327 67.5293 85.437 67.3882 84.9058 67.3882C84.4465 67.3882 84.0701 67.5044 83.7769 67.7368C83.4836 67.9637 83.3369 68.2542 83.3369 68.6084H81.3198C81.3198 68.1159 81.4831 67.6566 81.8096 67.2305C82.1361 66.7988 82.5788 66.4613 83.1377 66.2178C83.7021 65.9743 84.3302 65.8525 85.022 65.8525C86.0734 65.8525 86.9118 66.1182 87.5371 66.6494C88.1624 67.1751 88.4834 67.9167 88.5 68.874V72.9248C88.5 73.7327 88.6134 74.3774 88.8403 74.8589V75H86.7817ZM84.5654 73.5474C84.9639 73.5474 85.3374 73.4505 85.686 73.2568C86.0402 73.0632 86.3058 72.8031 86.4829 72.4766V70.7832H85.3955C84.6484 70.7832 84.0868 70.9132 83.7104 71.1733C83.3341 71.4334 83.146 71.8014 83.146 72.2773C83.146 72.6647 83.2733 72.9746 83.5278 73.207C83.7879 73.4339 84.1338 73.5474 84.5654 73.5474ZM95.3149 67.8613C95.0493 67.8171 94.7754 67.7949 94.4932 67.7949C93.569 67.7949 92.9465 68.1491 92.6255 68.8574V75H90.6084V66.0186H92.5342L92.584 67.0229C93.071 66.2427 93.7461 65.8525 94.6094 65.8525C94.8971 65.8525 95.1351 65.8913 95.3232 65.9688L95.3149 67.8613ZM98.7349 75H96.7178V66.0186H98.7349V75ZM96.5933 63.686C96.5933 63.3761 96.6901 63.1188 96.8838 62.9141C97.083 62.7093 97.3652 62.6069 97.7305 62.6069C98.0957 62.6069 98.3779 62.7093 98.5771 62.9141C98.7764 63.1188 98.876 63.3761 98.876 63.686C98.876 63.9904 98.7764 64.245 98.5771 64.4497C98.3779 64.6489 98.0957 64.7485 97.7305 64.7485C97.3652 64.7485 97.083 64.6489 96.8838 64.4497C96.6901 64.245 96.5933 63.9904 96.5933 63.686ZM106.38 74.1201C105.788 74.8174 104.947 75.166 103.856 75.166C102.882 75.166 102.144 74.881 101.64 74.311C101.142 73.741 100.893 72.9165 100.893 71.8374V66.0186H102.91V71.8125C102.91 72.9525 103.383 73.5225 104.33 73.5225C105.309 73.5225 105.97 73.1711 106.313 72.4683V66.0186H108.331V75H106.43L106.38 74.1201ZM112.282 66.0186L112.34 66.9565C112.971 66.2205 113.834 65.8525 114.93 65.8525C116.131 65.8525 116.952 66.3118 117.395 67.2305C118.048 66.3118 118.967 65.8525 120.151 65.8525C121.141 65.8525 121.877 66.1265 122.359 66.6743C122.846 67.2222 123.095 68.0301 123.106 69.0981V75H121.089V69.1562C121.089 68.5863 120.964 68.1685 120.715 67.9028C120.466 67.6372 120.054 67.5044 119.479 67.5044C119.019 67.5044 118.643 67.6289 118.35 67.8779C118.062 68.1214 117.86 68.4424 117.744 68.8408L117.752 75H115.735V69.0898C115.707 68.0329 115.168 67.5044 114.116 67.5044C113.308 67.5044 112.736 67.8337 112.398 68.4922V75H110.381V66.0186H112.282ZM132.328 62.9141L135.814 72.1777L139.292 62.9141H142.007V75H139.915V71.0156L140.123 65.6865L136.553 75H135.051L131.49 65.6948L131.697 71.0156V75H129.605V62.9141H132.328ZM149.668 75C149.58 74.8285 149.502 74.549 149.436 74.1616C148.794 74.8312 148.008 75.166 147.079 75.166C146.177 75.166 145.441 74.9087 144.871 74.394C144.301 73.8794 144.016 73.243 144.016 72.4849C144.016 71.5275 144.37 70.7943 145.078 70.2852C145.792 69.7705 146.81 69.5132 148.133 69.5132H149.37V68.9238C149.37 68.459 149.24 68.0882 148.979 67.8115C148.719 67.5293 148.324 67.3882 147.792 67.3882C147.333 67.3882 146.957 67.5044 146.664 67.7368C146.37 67.9637 146.224 68.2542 146.224 68.6084H144.207C144.207 68.1159 144.37 67.6566 144.696 67.2305C145.023 66.7988 145.465 66.4613 146.024 66.2178C146.589 65.9743 147.217 65.8525 147.909 65.8525C148.96 65.8525 149.799 66.1182 150.424 66.6494C151.049 67.1751 151.37 67.9167 151.387 68.874V72.9248C151.387 73.7327 151.5 74.3774 151.727 74.8589V75H149.668ZM147.452 73.5474C147.851 73.5474 148.224 73.4505 148.573 73.2568C148.927 73.0632 149.193 72.8031 149.37 72.4766V70.7832H148.282C147.535 70.7832 146.973 70.9132 146.597 71.1733C146.221 71.4334 146.033 71.8014 146.033 72.2773C146.033 72.6647 146.16 72.9746 146.415 73.207C146.675 73.4339 147.021 73.5474 147.452 73.5474ZM156.027 63.8354V66.0186H157.612V67.5127H156.027V72.5264C156.027 72.8695 156.093 73.1185 156.226 73.2734C156.364 73.4229 156.608 73.4976 156.957 73.4976C157.189 73.4976 157.424 73.4699 157.662 73.4146V74.9751C157.203 75.1024 156.76 75.166 156.334 75.166C154.785 75.166 154.01 74.311 154.01 72.6011V67.5127H152.532V66.0186H154.01V63.8354H156.027ZM163.116 75.166C161.837 75.166 160.8 74.7648 160.003 73.9624C159.212 73.1545 158.816 72.0809 158.816 70.7417V70.4927C158.816 69.5962 158.987 68.7965 159.331 68.0938C159.679 67.3854 160.166 66.8348 160.792 66.4419C161.417 66.049 162.114 65.8525 162.883 65.8525C164.106 65.8525 165.05 66.2427 165.714 67.0229C166.383 67.8032 166.718 68.9072 166.718 70.335V71.1484H160.85C160.91 71.89 161.157 72.4766 161.588 72.9082C162.026 73.3398 162.573 73.5557 163.232 73.5557C164.156 73.5557 164.909 73.1821 165.49 72.4351L166.577 73.4727C166.217 74.0094 165.736 74.4272 165.133 74.7261C164.535 75.0194 163.863 75.166 163.116 75.166ZM162.875 67.4712C162.322 67.4712 161.873 67.6649 161.53 68.0522C161.193 68.4396 160.977 68.9792 160.883 69.6709H164.726V69.5215C164.682 68.8464 164.502 68.3372 164.187 67.9941C163.871 67.6455 163.434 67.4712 162.875 67.4712ZM170.188 66.0186L170.246 66.9565C170.877 66.2205 171.74 65.8525 172.836 65.8525C174.037 65.8525 174.859 66.3118 175.301 67.2305C175.954 66.3118 176.873 65.8525 178.057 65.8525C179.048 65.8525 179.784 66.1265 180.265 66.6743C180.752 67.2222 181.001 68.0301 181.012 69.0981V75H178.995V69.1562C178.995 68.5863 178.871 68.1685 178.622 67.9028C178.373 67.6372 177.96 67.5044 177.385 67.5044C176.925 67.5044 176.549 67.6289 176.256 67.8779C175.968 68.1214 175.766 68.4424 175.65 68.8408L175.658 75H173.641V69.0898C173.613 68.0329 173.074 67.5044 172.022 67.5044C171.215 67.5044 170.642 67.8337 170.304 68.4922V75H168.287V66.0186H170.188ZM188.45 75C188.361 74.8285 188.284 74.549 188.217 74.1616C187.575 74.8312 186.79 75.166 185.86 75.166C184.958 75.166 184.222 74.9087 183.652 74.394C183.082 73.8794 182.797 73.243 182.797 72.4849C182.797 71.5275 183.151 70.7943 183.859 70.2852C184.573 69.7705 185.591 69.5132 186.914 69.5132H188.151V68.9238C188.151 68.459 188.021 68.0882 187.761 67.8115C187.501 67.5293 187.105 67.3882 186.574 67.3882C186.114 67.3882 185.738 67.5044 185.445 67.7368C185.152 67.9637 185.005 68.2542 185.005 68.6084H182.988C182.988 68.1159 183.151 67.6566 183.478 67.2305C183.804 66.7988 184.247 66.4613 184.806 66.2178C185.37 65.9743 185.998 65.8525 186.69 65.8525C187.741 65.8525 188.58 66.1182 189.205 66.6494C189.83 67.1751 190.151 67.9167 190.168 68.874V72.9248C190.168 73.7327 190.281 74.3774 190.508 74.8589V75H188.45ZM186.233 73.5474C186.632 73.5474 187.005 73.4505 187.354 73.2568C187.708 73.0632 187.974 72.8031 188.151 72.4766V70.7832H187.063C186.316 70.7832 185.755 70.9132 185.378 71.1733C185.002 71.4334 184.814 71.8014 184.814 72.2773C184.814 72.6647 184.941 72.9746 185.196 73.207C185.456 73.4339 185.802 73.5474 186.233 73.5474ZM194.808 63.8354V66.0186H196.394V67.5127H194.808V72.5264C194.808 72.8695 194.875 73.1185 195.007 73.2734C195.146 73.4229 195.389 73.4976 195.738 73.4976C195.97 73.4976 196.205 73.4699 196.443 73.4146V74.9751C195.984 75.1024 195.541 75.166 195.115 75.166C193.566 75.166 192.791 74.311 192.791 72.6011V67.5127H191.313V66.0186H192.791V63.8354H194.808ZM200.087 75H198.07V66.0186H200.087V75ZM197.946 63.686C197.946 63.3761 198.043 63.1188 198.236 62.9141C198.436 62.7093 198.718 62.6069 199.083 62.6069C199.448 62.6069 199.73 62.7093 199.93 62.9141C200.129 63.1188 200.229 63.3761 200.229 63.686C200.229 63.9904 200.129 64.245 199.93 64.4497C199.73 64.6489 199.448 64.7485 199.083 64.7485C198.718 64.7485 198.436 64.6489 198.236 64.4497C198.043 64.245 197.946 63.9904 197.946 63.686ZM205.209 71.1484L204.312 72.0698V75H202.295V62.25H204.312V69.6045L204.943 68.8159L207.425 66.0186H209.849L206.512 69.7622L210.206 75H207.874L205.209 71.1484ZM216.54 75C216.451 74.8285 216.374 74.549 216.307 74.1616C215.665 74.8312 214.879 75.166 213.95 75.166C213.048 75.166 212.312 74.9087 211.742 74.394C211.172 73.8794 210.887 73.243 210.887 72.4849C210.887 71.5275 211.241 70.7943 211.949 70.2852C212.663 69.7705 213.681 69.5132 215.004 69.5132H216.241V68.9238C216.241 68.459 216.111 68.0882 215.851 67.8115C215.59 67.5293 215.195 67.3882 214.664 67.3882C214.204 67.3882 213.828 67.5044 213.535 67.7368C213.241 67.9637 213.095 68.2542 213.095 68.6084H211.078C211.078 68.1159 211.241 67.6566 211.567 67.2305C211.894 66.7988 212.337 66.4613 212.896 66.2178C213.46 65.9743 214.088 65.8525 214.78 65.8525C215.831 65.8525 216.67 66.1182 217.295 66.6494C217.92 67.1751 218.241 67.9167 218.258 68.874V72.9248C218.258 73.7327 218.371 74.3774 218.598 74.8589V75H216.54ZM214.323 73.5474C214.722 73.5474 215.095 73.4505 215.444 73.2568C215.798 73.0632 216.064 72.8031 216.241 72.4766V70.7832H215.153C214.406 70.7832 213.845 70.9132 213.468 71.1733C213.092 71.4334 212.904 71.8014 212.904 72.2773C212.904 72.6647 213.031 72.9746 213.286 73.207C213.546 73.4339 213.892 73.5474 214.323 73.5474Z" fill="#5B5B5B"/>
<path d="M137.167 30.4937H134.249V37H130.587V19.2266H137.191C139.291 19.2266 140.91 19.6945 142.049 20.6304C143.189 21.5662 143.758 22.8887 143.758 24.5977C143.758 25.8102 143.494 26.8234 142.965 27.6372C142.444 28.4429 141.651 29.0858 140.584 29.5659L144.43 36.8291V37H140.499L137.167 30.4937ZM134.249 27.5273H137.203C138.123 27.5273 138.835 27.2954 139.339 26.8315C139.844 26.3595 140.096 25.7126 140.096 24.8906C140.096 24.0524 139.856 23.3932 139.376 22.9131C138.904 22.4329 138.176 22.1929 137.191 22.1929H134.249V27.5273ZM152.401 37.2441C150.464 37.2441 148.885 36.6501 147.665 35.4619C146.452 34.2738 145.846 32.6909 145.846 30.7134V30.3716C145.846 29.0451 146.102 27.861 146.615 26.8193C147.127 25.7695 147.852 24.9639 148.788 24.4023C149.732 23.8327 150.806 23.5479 152.01 23.5479C153.817 23.5479 155.237 24.1175 156.271 25.2568C157.312 26.3962 157.833 28.0116 157.833 30.103V31.5435H149.422C149.536 32.4061 149.878 33.0978 150.448 33.6187C151.026 34.1395 151.754 34.3999 152.633 34.3999C153.992 34.3999 155.054 33.9076 155.819 32.9229L157.552 34.8638C157.023 35.6125 156.307 36.1984 155.404 36.6216C154.5 37.0366 153.5 37.2441 152.401 37.2441ZM151.998 26.4043C151.298 26.4043 150.729 26.6403 150.289 27.1123C149.858 27.5843 149.581 28.2598 149.459 29.1387H154.366V28.8579C154.35 28.0767 154.138 27.4744 153.731 27.0513C153.325 26.62 152.747 26.4043 151.998 26.4043ZM160.812 37V26.3799H158.846V23.792H160.812V22.6689C160.812 21.1878 161.235 20.0404 162.081 19.2266C162.936 18.4046 164.128 17.9937 165.658 17.9937C166.146 17.9937 166.744 18.075 167.452 18.2378L167.416 20.9722C167.123 20.8989 166.764 20.8623 166.341 20.8623C165.015 20.8623 164.352 21.4849 164.352 22.73V23.792H166.976V26.3799H164.352V37H160.812ZM174.593 37.2441C172.656 37.2441 171.078 36.6501 169.857 35.4619C168.644 34.2738 168.038 32.6909 168.038 30.7134V30.3716C168.038 29.0451 168.294 27.861 168.807 26.8193C169.32 25.7695 170.044 24.9639 170.98 24.4023C171.924 23.8327 172.998 23.5479 174.203 23.5479C176.009 23.5479 177.429 24.1175 178.463 25.2568C179.505 26.3962 180.025 28.0116 180.025 30.103V31.5435H171.615C171.729 32.4061 172.07 33.0978 172.64 33.6187C173.218 34.1395 173.946 34.3999 174.825 34.3999C176.184 34.3999 177.246 33.9076 178.011 32.9229L179.745 34.8638C179.216 35.6125 178.5 36.1984 177.596 36.6216C176.693 37.0366 175.692 37.2441 174.593 37.2441ZM174.19 26.4043C173.491 26.4043 172.921 26.6403 172.481 27.1123C172.05 27.5843 171.773 28.2598 171.651 29.1387H176.559V28.8579C176.542 28.0767 176.331 27.4744 175.924 27.0513C175.517 26.62 174.939 26.4043 174.19 26.4043ZM189.461 27.1001C188.981 27.035 188.558 27.0024 188.192 27.0024C186.857 27.0024 185.982 27.4541 185.567 28.3574V37H182.04V23.792H185.372L185.47 25.3667C186.178 24.1541 187.158 23.5479 188.412 23.5479C188.802 23.5479 189.168 23.6007 189.51 23.7065L189.461 27.1001ZM197.005 37.2441C195.069 37.2441 193.49 36.6501 192.269 35.4619C191.056 34.2738 190.45 32.6909 190.45 30.7134V30.3716C190.45 29.0451 190.707 27.861 191.219 26.8193C191.732 25.7695 192.456 24.9639 193.392 24.4023C194.336 23.8327 195.41 23.5479 196.615 23.5479C198.421 23.5479 199.841 24.1175 200.875 25.2568C201.917 26.3962 202.438 28.0116 202.438 30.103V31.5435H194.027C194.141 32.4061 194.483 33.0978 195.052 33.6187C195.63 34.1395 196.358 34.3999 197.237 34.3999C198.596 34.3999 199.658 33.9076 200.423 32.9229L202.157 34.8638C201.628 35.6125 200.912 36.1984 200.008 36.6216C199.105 37.0366 198.104 37.2441 197.005 37.2441ZM196.603 26.4043C195.903 26.4043 195.333 26.6403 194.894 27.1123C194.462 27.5843 194.186 28.2598 194.063 29.1387H198.971V28.8579C198.954 28.0767 198.743 27.4744 198.336 27.0513C197.929 26.62 197.351 26.4043 196.603 26.4043ZM207.699 23.792L207.809 25.3179C208.753 24.1379 210.018 23.5479 211.605 23.5479C213.005 23.5479 214.046 23.9588 214.73 24.7808C215.414 25.6027 215.764 26.8315 215.78 28.4673V37H212.252V28.5527C212.252 27.804 212.089 27.2629 211.764 26.9292C211.438 26.5874 210.897 26.4165 210.14 26.4165C209.147 26.4165 208.403 26.8397 207.906 27.686V37H204.378V23.792H207.699ZM225.619 33.3501C225.619 32.9188 225.403 32.5811 224.972 32.3369C224.549 32.0846 223.865 31.8608 222.921 31.6655C219.78 31.0063 218.209 29.6717 218.209 27.6616C218.209 26.4897 218.693 25.5132 219.662 24.7319C220.638 23.9425 221.912 23.5479 223.482 23.5479C225.159 23.5479 226.498 23.9425 227.499 24.7319C228.508 25.5213 229.012 26.5467 229.012 27.8081H225.484C225.484 27.3035 225.322 26.8885 224.996 26.563C224.671 26.2293 224.162 26.0625 223.47 26.0625C222.876 26.0625 222.416 26.1968 222.091 26.4653C221.765 26.7339 221.603 27.0757 221.603 27.4907C221.603 27.8813 221.786 28.1987 222.152 28.4429C222.526 28.6789 223.153 28.8864 224.032 29.0654C224.911 29.2363 225.651 29.4316 226.253 29.6514C228.117 30.335 229.049 31.519 229.049 33.2036C229.049 34.408 228.532 35.3846 227.499 36.1333C226.465 36.8739 225.13 37.2441 223.495 37.2441C222.388 37.2441 221.403 37.0488 220.541 36.6582C219.686 36.2594 219.015 35.7183 218.526 35.0347C218.038 34.3429 217.794 33.5983 217.794 32.8008H221.139C221.171 33.4274 221.403 33.9076 221.834 34.2412C222.266 34.5749 222.844 34.7417 223.568 34.7417C224.243 34.7417 224.752 34.6156 225.094 34.3633C225.444 34.1029 225.619 33.7651 225.619 33.3501ZM235.055 37H231.515V23.792H235.055V37ZM231.307 20.374C231.307 19.8451 231.482 19.4097 231.832 19.0679C232.19 18.7261 232.674 18.5552 233.285 18.5552C233.887 18.5552 234.367 18.7261 234.725 19.0679C235.083 19.4097 235.262 19.8451 235.262 20.374C235.262 20.9111 235.079 21.3506 234.713 21.6924C234.355 22.0342 233.879 22.2051 233.285 22.2051C232.691 22.2051 232.21 22.0342 231.844 21.6924C231.486 21.3506 231.307 20.9111 231.307 20.374Z" fill="#5B5B5B"/>
<path d="M47.2285 143V130.914H51.3706C52.7375 130.914 53.7778 131.188 54.4917 131.736C55.2056 132.284 55.5625 133.1 55.5625 134.185C55.5625 134.738 55.4131 135.236 55.1143 135.679C54.8154 136.121 54.3783 136.465 53.8027 136.708C54.4557 136.885 54.9593 137.22 55.3135 137.712C55.6732 138.199 55.853 138.786 55.853 139.472C55.853 140.607 55.4878 141.478 54.7573 142.087C54.0324 142.696 52.992 143 51.6362 143H47.2285ZM49.3286 137.546V141.323H51.6611C52.3197 141.323 52.8343 141.16 53.2051 140.833C53.5758 140.507 53.7612 140.053 53.7612 139.472C53.7612 138.216 53.1193 137.574 51.8354 137.546H49.3286ZM49.3286 136.002H51.3872C52.0402 136.002 52.5493 135.856 52.9146 135.562C53.2853 135.264 53.4707 134.843 53.4707 134.301C53.4707 133.703 53.2992 133.271 52.9561 133.006C52.6185 132.74 52.09 132.607 51.3706 132.607H49.3286V136.002ZM63.1245 143C63.036 142.828 62.9585 142.549 62.8921 142.162C62.2502 142.831 61.4644 143.166 60.5347 143.166C59.6326 143.166 58.8966 142.909 58.3267 142.394C57.7567 141.879 57.4717 141.243 57.4717 140.485C57.4717 139.528 57.8258 138.794 58.5342 138.285C59.248 137.771 60.2663 137.513 61.5889 137.513H62.8257V136.924C62.8257 136.459 62.6956 136.088 62.4355 135.812C62.1755 135.529 61.7798 135.388 61.2485 135.388C60.7892 135.388 60.4129 135.504 60.1196 135.737C59.8263 135.964 59.6797 136.254 59.6797 136.608H57.6626C57.6626 136.116 57.8258 135.657 58.1523 135.23C58.4788 134.799 58.9215 134.461 59.4805 134.218C60.0449 133.974 60.673 133.853 61.3647 133.853C62.4162 133.853 63.2546 134.118 63.8799 134.649C64.5052 135.175 64.8262 135.917 64.8428 136.874V140.925C64.8428 141.733 64.9562 142.377 65.1831 142.859V143H63.1245ZM60.9082 141.547C61.3066 141.547 61.6802 141.451 62.0288 141.257C62.383 141.063 62.6486 140.803 62.8257 140.477V138.783H61.7383C60.9912 138.783 60.4295 138.913 60.0532 139.173C59.6769 139.433 59.4888 139.801 59.4888 140.277C59.4888 140.665 59.616 140.975 59.8706 141.207C60.1307 141.434 60.4766 141.547 60.9082 141.547ZM74.8369 138.601C74.8369 139.995 74.5243 141.105 73.8989 141.929C73.2791 142.754 72.4242 143.166 71.334 143.166C70.2826 143.166 69.4635 142.787 68.877 142.029L68.7773 143H66.9512V130.25H68.9683V134.882C69.5493 134.196 70.3324 133.853 71.3174 133.853C72.4131 133.853 73.2736 134.259 73.8989 135.073C74.5243 135.886 74.8369 137.023 74.8369 138.484V138.601ZM72.8198 138.426C72.8198 137.452 72.6483 136.722 72.3052 136.235C71.9621 135.748 71.464 135.504 70.811 135.504C69.9367 135.504 69.3224 135.886 68.9683 136.65V140.352C69.328 141.132 69.9478 141.522 70.8276 141.522C71.4585 141.522 71.9455 141.287 72.2886 140.817C72.6317 140.347 72.8088 139.635 72.8198 138.684V138.426ZM83.6855 130.914L87.1719 140.178L90.6499 130.914H93.3643V143H91.2725V139.016L91.48 133.687L87.9106 143H86.4082L82.8472 133.695L83.0547 139.016V143H80.9629V130.914H83.6855ZM101.026 143C100.937 142.828 100.86 142.549 100.793 142.162C100.152 142.831 99.3657 143.166 98.436 143.166C97.534 143.166 96.798 142.909 96.228 142.394C95.658 141.879 95.373 141.243 95.373 140.485C95.373 139.528 95.7272 138.794 96.4355 138.285C97.1494 137.771 98.1676 137.513 99.4902 137.513H100.727V136.924C100.727 136.459 100.597 136.088 100.337 135.812C100.077 135.529 99.6812 135.388 99.1499 135.388C98.6906 135.388 98.3143 135.504 98.021 135.737C97.7277 135.964 97.5811 136.254 97.5811 136.608H95.564C95.564 136.116 95.7272 135.657 96.0537 135.23C96.3802 134.799 96.8229 134.461 97.3818 134.218C97.9463 133.974 98.5744 133.853 99.2661 133.853C100.318 133.853 101.156 134.118 101.781 134.649C102.407 135.175 102.728 135.917 102.744 136.874V140.925C102.744 141.733 102.858 142.377 103.084 142.859V143H101.026ZM98.8096 141.547C99.208 141.547 99.5815 141.451 99.9302 141.257C100.284 141.063 100.55 140.803 100.727 140.477V138.783H99.6396C98.8926 138.783 98.3309 138.913 97.9546 139.173C97.5783 139.433 97.3901 139.801 97.3901 140.277C97.3901 140.665 97.5174 140.975 97.772 141.207C98.0321 141.434 98.3779 141.547 98.8096 141.547ZM107.384 131.835V134.019H108.97V135.513H107.384V140.526C107.384 140.869 107.451 141.118 107.583 141.273C107.722 141.423 107.965 141.498 108.314 141.498C108.546 141.498 108.782 141.47 109.02 141.415V142.975C108.56 143.102 108.118 143.166 107.691 143.166C106.142 143.166 105.367 142.311 105.367 140.601V135.513H103.89V134.019H105.367V131.835H107.384ZM114.473 143.166C113.195 143.166 112.157 142.765 111.36 141.962C110.569 141.154 110.173 140.081 110.173 138.742V138.493C110.173 137.596 110.345 136.797 110.688 136.094C111.037 135.385 111.524 134.835 112.149 134.442C112.774 134.049 113.472 133.853 114.241 133.853C115.464 133.853 116.407 134.243 117.071 135.023C117.741 135.803 118.076 136.907 118.076 138.335V139.148H112.207C112.268 139.89 112.514 140.477 112.946 140.908C113.383 141.34 113.931 141.556 114.589 141.556C115.514 141.556 116.266 141.182 116.847 140.435L117.935 141.473C117.575 142.009 117.093 142.427 116.49 142.726C115.893 143.019 115.22 143.166 114.473 143.166ZM114.232 135.471C113.679 135.471 113.231 135.665 112.888 136.052C112.55 136.44 112.334 136.979 112.24 137.671H116.083V137.521C116.039 136.846 115.859 136.337 115.544 135.994C115.229 135.646 114.791 135.471 114.232 135.471ZM121.545 134.019L121.604 134.957C122.234 134.221 123.098 133.853 124.193 133.853C125.394 133.853 126.216 134.312 126.659 135.23C127.312 134.312 128.23 133.853 129.415 133.853C130.405 133.853 131.141 134.126 131.623 134.674C132.11 135.222 132.359 136.03 132.37 137.098V143H130.353V137.156C130.353 136.586 130.228 136.168 129.979 135.903C129.73 135.637 129.318 135.504 128.742 135.504C128.283 135.504 127.907 135.629 127.613 135.878C127.326 136.121 127.124 136.442 127.007 136.841L127.016 143H124.999V137.09C124.971 136.033 124.431 135.504 123.38 135.504C122.572 135.504 121.999 135.834 121.662 136.492V143H119.645V134.019H121.545ZM139.807 143C139.719 142.828 139.641 142.549 139.575 142.162C138.933 142.831 138.147 143.166 137.217 143.166C136.315 143.166 135.579 142.909 135.009 142.394C134.439 141.879 134.154 141.243 134.154 140.485C134.154 139.528 134.508 138.794 135.217 138.285C135.931 137.771 136.949 137.513 138.271 137.513H139.508V136.924C139.508 136.459 139.378 136.088 139.118 135.812C138.858 135.529 138.462 135.388 137.931 135.388C137.472 135.388 137.096 135.504 136.802 135.737C136.509 135.964 136.362 136.254 136.362 136.608H134.345C134.345 136.116 134.508 135.657 134.835 135.23C135.161 134.799 135.604 134.461 136.163 134.218C136.728 133.974 137.356 133.853 138.047 133.853C139.099 133.853 139.937 134.118 140.562 134.649C141.188 135.175 141.509 135.917 141.525 136.874V140.925C141.525 141.733 141.639 142.377 141.866 142.859V143H139.807ZM137.591 141.547C137.989 141.547 138.363 141.451 138.711 141.257C139.066 141.063 139.331 140.803 139.508 140.477V138.783H138.421C137.674 138.783 137.112 138.913 136.736 139.173C136.36 139.433 136.171 139.801 136.171 140.277C136.171 140.665 136.299 140.975 136.553 141.207C136.813 141.434 137.159 141.547 137.591 141.547ZM146.166 131.835V134.019H147.751V135.513H146.166V140.526C146.166 140.869 146.232 141.118 146.365 141.273C146.503 141.423 146.747 141.498 147.095 141.498C147.328 141.498 147.563 141.47 147.801 141.415V142.975C147.341 143.102 146.899 143.166 146.473 143.166C144.923 143.166 144.148 142.311 144.148 140.601V135.513H142.671V134.019H144.148V131.835H146.166ZM151.445 143H149.428V134.019H151.445V143ZM149.303 131.686C149.303 131.376 149.4 131.119 149.594 130.914C149.793 130.709 150.075 130.607 150.44 130.607C150.806 130.607 151.088 130.709 151.287 130.914C151.486 131.119 151.586 131.376 151.586 131.686C151.586 131.99 151.486 132.245 151.287 132.45C151.088 132.649 150.806 132.749 150.44 132.749C150.075 132.749 149.793 132.649 149.594 132.45C149.4 132.245 149.303 131.99 149.303 131.686ZM156.566 139.148L155.67 140.07V143H153.653V130.25H155.67V137.604L156.301 136.816L158.783 134.019H161.207L157.87 137.762L161.563 143H159.231L156.566 139.148ZM167.897 143C167.808 142.828 167.731 142.549 167.665 142.162C167.023 142.831 166.237 143.166 165.307 143.166C164.405 143.166 163.669 142.909 163.099 142.394C162.529 141.879 162.244 141.243 162.244 140.485C162.244 139.528 162.598 138.794 163.307 138.285C164.021 137.771 165.039 137.513 166.361 137.513H167.598V136.924C167.598 136.459 167.468 136.088 167.208 135.812C166.948 135.529 166.552 135.388 166.021 135.388C165.562 135.388 165.185 135.504 164.892 135.737C164.599 135.964 164.452 136.254 164.452 136.608H162.435C162.435 136.116 162.598 135.657 162.925 135.23C163.251 134.799 163.694 134.461 164.253 134.218C164.817 133.974 165.445 133.853 166.137 133.853C167.189 133.853 168.027 134.118 168.652 134.649C169.278 135.175 169.599 135.917 169.615 136.874V140.925C169.615 141.733 169.729 142.377 169.956 142.859V143H167.897ZM165.681 141.547C166.079 141.547 166.453 141.451 166.801 141.257C167.155 141.063 167.421 140.803 167.598 140.477V138.783H166.511C165.764 138.783 165.202 138.913 164.826 139.173C164.449 139.433 164.261 139.801 164.261 140.277C164.261 140.665 164.389 140.975 164.643 141.207C164.903 141.434 165.249 141.547 165.681 141.547Z" fill="#5B5B5B"/>
<rect x="46.1" y="83.1" width="79.8" height="22.8" rx="2.9" fill="#E5E5E5" stroke="#161616" stroke-width="0.2"/>
<path d="M111.625 90.125L116 94.5L111.625 98.875" stroke="#4A4A4A" stroke-linecap="round" stroke-linejoin="round"/>
<rect x="147.1" y="83.1" width="79.8" height="22.8" rx="2.9" fill="#E5E5E5" stroke="#161616" stroke-width="0.2"/>
<path d="M212.625 90.125L217 94.5L212.625 98.875" stroke="#4A4A4A" stroke-linecap="round" stroke-linejoin="round"/>
<rect x="248.1" y="83.1" width="79.8" height="22.8" rx="2.9" fill="#E5E5E5" stroke="#161616" stroke-width="0.2"/>
<path d="M313.625 90.125L318 94.5L313.625 98.875" stroke="#4A4A4A" stroke-linecap="round" stroke-linejoin="round"/>
<rect x="46.1" y="155.1" width="79.8" height="22.8" rx="2.9" fill="#E5E5E5" stroke="#161616" stroke-width="0.2"/>
<path d="M111.625 162.125L116 166.5L111.625 170.875" stroke="#4A4A4A" stroke-linecap="round" stroke-linejoin="round"/>
<rect x="147.1" y="155.1" width="79.8" height="22.8" rx="2.9" fill="#E5E5E5" stroke="#161616" stroke-width="0.2"/>
<path d="M212.625 162.125L217 166.5L212.625 170.875" stroke="#4A4A4A" stroke-linecap="round" stroke-linejoin="round"/>
<rect x="248.1" y="155.1" width="79.8" height="22.8" rx="2.9" fill="#E5E5E5" stroke="#161616" stroke-width="0.2"/>
<path d="M313.625 162.125L318 166.5L313.625 170.875" stroke="#4A4A4A" stroke-linecap="round" stroke-linejoin="round"/>
<rect x="46.1" y="233.1" width="79.8" height="22.8" rx="2.9" fill="#E5E5E5" stroke="#161616" stroke-width="0.2"/>
<path d="M111.625 240.125L116 244.5L111.625 248.875" stroke="#4A4A4A" stroke-linecap="round" stroke-linejoin="round"/>
<rect x="147.1" y="233.1" width="79.8" height="22.8" rx="2.9" fill="#E5E5E5" stroke="#161616" stroke-width="0.2"/>
<path d="M212.625 240.125L217 244.5L212.625 248.875" stroke="#4A4A4A" stroke-linecap="round" stroke-linejoin="round"/>
<rect x="248.1" y="233.1" width="79.8" height="22.8" rx="2.9" fill="#E5E5E5" stroke="#161616" stroke-width="0.2"/>
<path d="M313.625 240.125L318 244.5L313.625 248.875" stroke="#4A4A4A" stroke-linecap="round" stroke-linejoin="round"/>
<rect x="46.1" y="194.1" width="79.8" height="22.8" rx="2.9" fill="#E5E5E5" stroke="#161616" stroke-width="0.2"/>
<path d="M111.625 201.125L116 205.5L111.625 209.875" stroke="#4A4A4A" stroke-linecap="round" stroke-linejoin="round"/>
<rect x="147.1" y="194.1" width="79.8" height="22.8" rx="2.9" fill="#E5E5E5" stroke="#161616" stroke-width="0.2"/>
<path d="M212.625 201.125L217 205.5L212.625 209.875" stroke="#4A4A4A" stroke-linecap="round" stroke-linejoin="round"/>
<rect x="248.1" y="194.1" width="79.8" height="22.8" rx="2.9" fill="#E5E5E5" stroke="#161616" stroke-width="0.2"/>
<path d="M313.625 201.125L318 205.5L313.625 209.875" stroke="#4A4A4A" stroke-linecap="round" stroke-linejoin="round"/>
<g filter="url(#filter1_d)">
<path d="M112 126C112 120.477 116.477 116 122 116H420C425.523 116 430 120.477 430 126V378C430 383.523 425.523 388 420 388H122C116.477 388 112 383.523 112 378V126Z" fill="#F5F5F7"/>
<path d="M122 116.5H420C425.247 116.5 429.5 120.753 429.5 126V378C429.5 383.247 425.247 387.5 420 387.5H122C116.753 387.5 112.5 383.247 112.5 378V126C112.5 120.753 116.753 116.5 122 116.5Z" stroke="#808080"/>
</g>
<path d="M224.153 147.871L222.249 149.922V155H218.587V137.227H222.249V145.283L223.86 143.074L228.389 137.227H232.894L226.583 145.125L233.077 155H228.719L224.153 147.871ZM241.878 155C241.715 154.683 241.597 154.288 241.524 153.816C240.669 154.768 239.559 155.244 238.191 155.244C236.897 155.244 235.823 154.87 234.969 154.121C234.122 153.372 233.699 152.428 233.699 151.289C233.699 149.889 234.216 148.815 235.25 148.066C236.291 147.318 237.793 146.939 239.754 146.931H241.377V146.174C241.377 145.564 241.219 145.076 240.901 144.709C240.592 144.343 240.1 144.16 239.424 144.16C238.83 144.16 238.362 144.303 238.021 144.587C237.687 144.872 237.52 145.263 237.52 145.759H233.992C233.992 144.994 234.228 144.286 234.7 143.635C235.172 142.984 235.84 142.476 236.702 142.109C237.565 141.735 238.533 141.548 239.607 141.548C241.235 141.548 242.525 141.959 243.477 142.781C244.437 143.595 244.917 144.742 244.917 146.223V151.948C244.926 153.201 245.101 154.15 245.442 154.792V155H241.878ZM238.96 152.546C239.481 152.546 239.961 152.432 240.401 152.205C240.84 151.969 241.166 151.655 241.377 151.265V148.994H240.059C238.293 148.994 237.353 149.604 237.239 150.825L237.227 151.033C237.227 151.472 237.382 151.834 237.691 152.119C238 152.404 238.423 152.546 238.96 152.546ZM251.351 155H247.811V136.25H251.351V155ZM259.065 149.702L257.796 150.972V155H254.268V136.25H257.796V146.638L258.479 145.759L261.861 141.792H266.097L261.324 147.297L266.512 155H262.459L259.065 149.702ZM275.533 153.657C274.662 154.715 273.458 155.244 271.919 155.244C270.503 155.244 269.421 154.837 268.672 154.023C267.932 153.21 267.553 152.017 267.537 150.447V141.792H271.065V150.325C271.065 151.7 271.692 152.388 272.945 152.388C274.141 152.388 274.963 151.973 275.411 151.143V141.792H278.951V155H275.63L275.533 153.657ZM285.335 155H281.795V136.25H285.335V155ZM295.906 155C295.743 154.683 295.625 154.288 295.552 153.816C294.698 154.768 293.587 155.244 292.22 155.244C290.926 155.244 289.852 154.87 288.997 154.121C288.151 153.372 287.728 152.428 287.728 151.289C287.728 149.889 288.244 148.815 289.278 148.066C290.319 147.318 291.821 146.939 293.782 146.931H295.406V146.174C295.406 145.564 295.247 145.076 294.93 144.709C294.62 144.343 294.128 144.16 293.453 144.16C292.859 144.16 292.391 144.303 292.049 144.587C291.715 144.872 291.548 145.263 291.548 145.759H288.021C288.021 144.994 288.257 144.286 288.729 143.635C289.201 142.984 289.868 142.476 290.73 142.109C291.593 141.735 292.562 141.548 293.636 141.548C295.263 141.548 296.553 141.959 297.505 142.781C298.466 143.595 298.946 144.742 298.946 146.223V151.948C298.954 153.201 299.129 154.15 299.471 154.792V155H295.906ZM292.989 152.546C293.51 152.546 293.99 152.432 294.429 152.205C294.869 151.969 295.194 151.655 295.406 151.265V148.994H294.087C292.321 148.994 291.382 149.604 291.268 150.825L291.255 151.033C291.255 151.472 291.41 151.834 291.719 152.119C292.028 152.404 292.452 152.546 292.989 152.546ZM308.809 151.35C308.809 150.919 308.593 150.581 308.162 150.337C307.739 150.085 307.055 149.861 306.111 149.666C302.97 149.006 301.399 147.672 301.399 145.662C301.399 144.49 301.884 143.513 302.852 142.732C303.829 141.943 305.102 141.548 306.673 141.548C308.349 141.548 309.688 141.943 310.689 142.732C311.698 143.521 312.203 144.547 312.203 145.808H308.675C308.675 145.304 308.512 144.889 308.187 144.563C307.861 144.229 307.352 144.062 306.661 144.062C306.067 144.062 305.607 144.197 305.281 144.465C304.956 144.734 304.793 145.076 304.793 145.491C304.793 145.881 304.976 146.199 305.342 146.443C305.717 146.679 306.343 146.886 307.222 147.065C308.101 147.236 308.842 147.432 309.444 147.651C311.307 148.335 312.239 149.519 312.239 151.204C312.239 152.408 311.722 153.385 310.689 154.133C309.655 154.874 308.321 155.244 306.685 155.244C305.578 155.244 304.594 155.049 303.731 154.658C302.876 154.259 302.205 153.718 301.717 153.035C301.229 152.343 300.984 151.598 300.984 150.801H304.329C304.362 151.427 304.594 151.908 305.025 152.241C305.456 152.575 306.034 152.742 306.758 152.742C307.434 152.742 307.942 152.616 308.284 152.363C308.634 152.103 308.809 151.765 308.809 151.35ZM318.245 155H314.705V141.792H318.245V155ZM314.498 138.374C314.498 137.845 314.673 137.41 315.022 137.068C315.381 136.726 315.865 136.555 316.475 136.555C317.077 136.555 317.557 136.726 317.916 137.068C318.274 137.41 318.453 137.845 318.453 138.374C318.453 138.911 318.27 139.351 317.903 139.692C317.545 140.034 317.069 140.205 316.475 140.205C315.881 140.205 315.401 140.034 315.035 139.692C314.677 139.351 314.498 138.911 314.498 138.374Z" fill="#5B5B5B"/>
<path d="M138.698 181.779L137.329 183.231V187H135.229V174.914H137.329V180.583L138.491 179.147L142.027 174.914H144.567L140.076 180.268L144.824 187H142.334L138.698 181.779ZM151.125 187C151.036 186.828 150.958 186.549 150.892 186.162C150.25 186.831 149.464 187.166 148.535 187.166C147.633 187.166 146.897 186.909 146.327 186.394C145.757 185.879 145.472 185.243 145.472 184.485C145.472 183.528 145.826 182.794 146.534 182.285C147.248 181.771 148.266 181.513 149.589 181.513H150.826V180.924C150.826 180.459 150.696 180.088 150.436 179.812C150.175 179.529 149.78 179.388 149.249 179.388C148.789 179.388 148.413 179.504 148.12 179.737C147.826 179.964 147.68 180.254 147.68 180.608H145.663C145.663 180.116 145.826 179.657 146.152 179.23C146.479 178.799 146.922 178.461 147.48 178.218C148.045 177.974 148.673 177.853 149.365 177.853C150.416 177.853 151.255 178.118 151.88 178.649C152.505 179.175 152.826 179.917 152.843 180.874V184.925C152.843 185.733 152.956 186.377 153.183 186.859V187H151.125ZM148.908 185.547C149.307 185.547 149.68 185.451 150.029 185.257C150.383 185.063 150.649 184.803 150.826 184.477V182.783H149.738C148.991 182.783 148.43 182.913 148.053 183.173C147.677 183.433 147.489 183.801 147.489 184.277C147.489 184.665 147.616 184.975 147.871 185.207C148.131 185.434 148.477 185.547 148.908 185.547ZM157.101 187H155.084V174.25H157.101V187ZM162.223 183.148L161.326 184.07V187H159.309V174.25H161.326V181.604L161.957 180.816L164.439 178.019H166.863L163.526 181.762L167.22 187H164.887L162.223 183.148ZM173.628 186.12C173.036 186.817 172.195 187.166 171.104 187.166C170.131 187.166 169.392 186.881 168.888 186.311C168.39 185.741 168.141 184.917 168.141 183.837V178.019H170.158V183.812C170.158 184.952 170.631 185.522 171.578 185.522C172.557 185.522 173.218 185.171 173.562 184.468V178.019H175.579V187H173.678L173.628 186.12ZM179.779 187H177.762V174.25H179.779V187ZM187.349 187C187.261 186.828 187.183 186.549 187.117 186.162C186.475 186.831 185.689 187.166 184.759 187.166C183.857 187.166 183.121 186.909 182.551 186.394C181.981 185.879 181.696 185.243 181.696 184.485C181.696 183.528 182.05 182.794 182.759 182.285C183.473 181.771 184.491 181.513 185.813 181.513H187.05V180.924C187.05 180.459 186.92 180.088 186.66 179.812C186.4 179.529 186.004 179.388 185.473 179.388C185.014 179.388 184.638 179.504 184.344 179.737C184.051 179.964 183.904 180.254 183.904 180.608H181.887C181.887 180.116 182.05 179.657 182.377 179.23C182.703 178.799 183.146 178.461 183.705 178.218C184.27 177.974 184.898 177.853 185.589 177.853C186.641 177.853 187.479 178.118 188.104 178.649C188.73 179.175 189.051 179.917 189.067 180.874V184.925C189.067 185.733 189.181 186.377 189.408 186.859V187H187.349ZM185.133 185.547C185.531 185.547 185.905 185.451 186.253 185.257C186.608 185.063 186.873 184.803 187.05 184.477V182.783H185.963C185.216 182.783 184.654 182.913 184.278 183.173C183.902 183.433 183.713 183.801 183.713 184.277C183.713 184.665 183.841 184.975 184.095 185.207C184.355 185.434 184.701 185.547 185.133 185.547ZM193.708 175.835V178.019H195.293V179.513H193.708V184.526C193.708 184.869 193.774 185.118 193.907 185.273C194.045 185.423 194.289 185.498 194.637 185.498C194.87 185.498 195.105 185.47 195.343 185.415V186.975C194.883 187.102 194.441 187.166 194.015 187.166C192.465 187.166 191.69 186.311 191.69 184.601V179.513H190.213V178.019H191.69V175.835H193.708ZM196.214 182.426C196.214 181.546 196.389 180.755 196.737 180.052C197.086 179.344 197.576 178.802 198.207 178.425C198.837 178.043 199.562 177.853 200.381 177.853C201.593 177.853 202.576 178.243 203.328 179.023C204.086 179.803 204.496 180.838 204.557 182.127L204.565 182.601C204.565 183.486 204.393 184.277 204.05 184.975C203.713 185.672 203.226 186.211 202.589 186.593C201.958 186.975 201.228 187.166 200.398 187.166C199.131 187.166 198.115 186.745 197.352 185.904C196.593 185.058 196.214 183.931 196.214 182.526V182.426ZM198.231 182.601C198.231 183.525 198.422 184.25 198.804 184.775C199.186 185.296 199.717 185.556 200.398 185.556C201.079 185.556 201.607 185.29 201.983 184.759C202.365 184.228 202.556 183.45 202.556 182.426C202.556 181.519 202.36 180.799 201.967 180.268C201.579 179.737 201.051 179.471 200.381 179.471C199.723 179.471 199.2 179.734 198.812 180.26C198.425 180.78 198.231 181.56 198.231 182.601ZM210.973 179.861C210.708 179.817 210.434 179.795 210.151 179.795C209.227 179.795 208.605 180.149 208.284 180.857V187H206.267V178.019H208.192L208.242 179.023C208.729 178.243 209.404 177.853 210.268 177.853C210.555 177.853 210.793 177.891 210.981 177.969L210.973 179.861Z" fill="#5B5B5B"/>
<path d="M138.698 262.779L137.329 264.231V268H135.229V255.914H137.329V261.583L138.491 260.147L142.027 255.914H144.567L140.076 261.268L144.824 268H142.334L138.698 262.779ZM151.125 268C151.036 267.828 150.958 267.549 150.892 267.162C150.25 267.831 149.464 268.166 148.535 268.166C147.633 268.166 146.897 267.909 146.327 267.394C145.757 266.879 145.472 266.243 145.472 265.485C145.472 264.528 145.826 263.794 146.534 263.285C147.248 262.771 148.266 262.513 149.589 262.513H150.826V261.924C150.826 261.459 150.696 261.088 150.436 260.812C150.175 260.529 149.78 260.388 149.249 260.388C148.789 260.388 148.413 260.504 148.12 260.737C147.826 260.964 147.68 261.254 147.68 261.608H145.663C145.663 261.116 145.826 260.657 146.152 260.23C146.479 259.799 146.922 259.461 147.48 259.218C148.045 258.974 148.673 258.853 149.365 258.853C150.416 258.853 151.255 259.118 151.88 259.649C152.505 260.175 152.826 260.917 152.843 261.874V265.925C152.843 266.733 152.956 267.377 153.183 267.859V268H151.125ZM148.908 266.547C149.307 266.547 149.68 266.451 150.029 266.257C150.383 266.063 150.649 265.803 150.826 265.477V263.783H149.738C148.991 263.783 148.43 263.913 148.053 264.173C147.677 264.433 147.489 264.801 147.489 265.277C147.489 265.665 147.616 265.975 147.871 266.207C148.131 266.434 148.477 266.547 148.908 266.547ZM157.101 268H155.084V255.25H157.101V268ZM162.223 264.148L161.326 265.07V268H159.309V255.25H161.326V262.604L161.957 261.816L164.439 259.019H166.863L163.526 262.762L167.22 268H164.887L162.223 264.148ZM173.628 267.12C173.036 267.817 172.195 268.166 171.104 268.166C170.131 268.166 169.392 267.881 168.888 267.311C168.39 266.741 168.141 265.917 168.141 264.837V259.019H170.158V264.812C170.158 265.952 170.631 266.522 171.578 266.522C172.557 266.522 173.218 266.171 173.562 265.468V259.019H175.579V268H173.678L173.628 267.12ZM179.779 268H177.762V255.25H179.779V268ZM187.349 268C187.261 267.828 187.183 267.549 187.117 267.162C186.475 267.831 185.689 268.166 184.759 268.166C183.857 268.166 183.121 267.909 182.551 267.394C181.981 266.879 181.696 266.243 181.696 265.485C181.696 264.528 182.05 263.794 182.759 263.285C183.473 262.771 184.491 262.513 185.813 262.513H187.05V261.924C187.05 261.459 186.92 261.088 186.66 260.812C186.4 260.529 186.004 260.388 185.473 260.388C185.014 260.388 184.638 260.504 184.344 260.737C184.051 260.964 183.904 261.254 183.904 261.608H181.887C181.887 261.116 182.05 260.657 182.377 260.23C182.703 259.799 183.146 259.461 183.705 259.218C184.27 258.974 184.898 258.853 185.589 258.853C186.641 258.853 187.479 259.118 188.104 259.649C188.73 260.175 189.051 260.917 189.067 261.874V265.925C189.067 266.733 189.181 267.377 189.408 267.859V268H187.349ZM185.133 266.547C185.531 266.547 185.905 266.451 186.253 266.257C186.608 266.063 186.873 265.803 187.05 265.477V263.783H185.963C185.216 263.783 184.654 263.913 184.278 264.173C183.902 264.433 183.713 264.801 183.713 265.277C183.713 265.665 183.841 265.975 184.095 266.207C184.355 266.434 184.701 266.547 185.133 266.547ZM193.708 256.835V259.019H195.293V260.513H193.708V265.526C193.708 265.869 193.774 266.118 193.907 266.273C194.045 266.423 194.289 266.498 194.637 266.498C194.87 266.498 195.105 266.47 195.343 266.415V267.975C194.883 268.102 194.441 268.166 194.015 268.166C192.465 268.166 191.69 267.311 191.69 265.601V260.513H190.213V259.019H191.69V256.835H193.708ZM196.214 263.426C196.214 262.546 196.389 261.755 196.737 261.052C197.086 260.344 197.576 259.802 198.207 259.425C198.837 259.043 199.562 258.853 200.381 258.853C201.593 258.853 202.576 259.243 203.328 260.023C204.086 260.803 204.496 261.838 204.557 263.127L204.565 263.601C204.565 264.486 204.393 265.277 204.05 265.975C203.713 266.672 203.226 267.211 202.589 267.593C201.958 267.975 201.228 268.166 200.398 268.166C199.131 268.166 198.115 267.745 197.352 266.904C196.593 266.058 196.214 264.931 196.214 263.526V263.426ZM198.231 263.601C198.231 264.525 198.422 265.25 198.804 265.775C199.186 266.296 199.717 266.556 200.398 266.556C201.079 266.556 201.607 266.29 201.983 265.759C202.365 265.228 202.556 264.45 202.556 263.426C202.556 262.519 202.36 261.799 201.967 261.268C201.579 260.737 201.051 260.471 200.381 260.471C199.723 260.471 199.2 260.734 198.812 261.26C198.425 261.78 198.231 262.56 198.231 263.601ZM210.973 260.861C210.708 260.817 210.434 260.795 210.151 260.795C209.227 260.795 208.605 261.149 208.284 261.857V268H206.267V259.019H208.192L208.242 260.023C208.729 259.243 209.404 258.853 210.268 258.853C210.555 258.853 210.793 258.891 210.981 258.969L210.973 260.861ZM222.993 264.887C222.993 264.356 222.805 263.946 222.428 263.659C222.057 263.371 221.385 263.08 220.411 262.787C219.437 262.494 218.662 262.167 218.087 261.808C216.986 261.116 216.435 260.214 216.435 259.102C216.435 258.128 216.831 257.325 217.622 256.694C218.419 256.063 219.451 255.748 220.718 255.748C221.559 255.748 222.309 255.903 222.968 256.213C223.626 256.523 224.144 256.965 224.52 257.541C224.896 258.111 225.084 258.745 225.084 259.442H222.993C222.993 258.811 222.793 258.319 222.395 257.964C222.002 257.605 221.438 257.425 220.702 257.425C220.015 257.425 219.481 257.571 219.1 257.865C218.723 258.158 218.535 258.568 218.535 259.093C218.535 259.536 218.74 259.907 219.149 260.206C219.559 260.499 220.234 260.787 221.175 261.069C222.116 261.346 222.871 261.664 223.441 262.023C224.011 262.378 224.429 262.787 224.694 263.252C224.96 263.711 225.093 264.251 225.093 264.871C225.093 265.878 224.705 266.68 223.931 267.278C223.161 267.87 222.116 268.166 220.793 268.166C219.919 268.166 219.113 268.006 218.377 267.685C217.647 267.358 217.077 266.91 216.667 266.34C216.264 265.77 216.062 265.106 216.062 264.348H218.162C218.162 265.034 218.389 265.565 218.842 265.941C219.296 266.318 219.946 266.506 220.793 266.506C221.523 266.506 222.071 266.359 222.437 266.066C222.807 265.767 222.993 265.374 222.993 264.887ZM232.107 268C232.018 267.828 231.941 267.549 231.875 267.162C231.233 267.831 230.447 268.166 229.517 268.166C228.615 268.166 227.879 267.909 227.309 267.394C226.739 266.879 226.454 266.243 226.454 265.485C226.454 264.528 226.808 263.794 227.517 263.285C228.23 262.771 229.249 262.513 230.571 262.513H231.808V261.924C231.808 261.459 231.678 261.088 231.418 260.812C231.158 260.529 230.762 260.388 230.231 260.388C229.772 260.388 229.395 260.504 229.102 260.737C228.809 260.964 228.662 261.254 228.662 261.608H226.645C226.645 261.116 226.808 260.657 227.135 260.23C227.461 259.799 227.904 259.461 228.463 259.218C229.027 258.974 229.655 258.853 230.347 258.853C231.399 258.853 232.237 259.118 232.862 259.649C233.488 260.175 233.809 260.917 233.825 261.874V265.925C233.825 266.733 233.939 267.377 234.166 267.859V268H232.107ZM229.891 266.547C230.289 266.547 230.663 266.451 231.011 266.257C231.365 266.063 231.631 265.803 231.808 265.477V263.783H230.721C229.974 263.783 229.412 263.913 229.036 264.173C228.659 264.433 228.471 264.801 228.471 265.277C228.471 265.665 228.598 265.975 228.853 266.207C229.113 266.434 229.459 266.547 229.891 266.547ZM238.083 268H236.066V259.019H238.083V268ZM235.942 256.686C235.942 256.376 236.039 256.119 236.232 255.914C236.432 255.709 236.714 255.607 237.079 255.607C237.444 255.607 237.727 255.709 237.926 255.914C238.125 256.119 238.225 256.376 238.225 256.686C238.225 256.99 238.125 257.245 237.926 257.45C237.727 257.649 237.444 257.749 237.079 257.749C236.714 257.749 236.432 257.649 236.232 257.45C236.039 257.245 235.942 256.99 235.942 256.686ZM242.159 259.019L242.217 260.056C242.881 259.254 243.753 258.853 244.832 258.853C246.702 258.853 247.654 259.923 247.688 262.065V268H245.67V262.181C245.67 261.611 245.546 261.191 245.297 260.919C245.053 260.643 244.652 260.504 244.093 260.504C243.28 260.504 242.674 260.872 242.275 261.608V268H240.258V259.019H242.159ZM252.278 256.835V259.019H253.863V260.513H252.278V265.526C252.278 265.869 252.344 266.118 252.477 266.273C252.615 266.423 252.859 266.498 253.208 266.498C253.44 266.498 253.675 266.47 253.913 266.415V267.975C253.454 268.102 253.011 268.166 252.585 268.166C251.035 268.166 250.261 267.311 250.261 265.601V260.513H248.783V259.019H250.261V256.835H252.278ZM257.557 268H255.54V259.019H257.557V268ZM255.416 256.686C255.416 256.376 255.512 256.119 255.706 255.914C255.905 255.709 256.188 255.607 256.553 255.607C256.918 255.607 257.2 255.709 257.399 255.914C257.599 256.119 257.698 256.376 257.698 256.686C257.698 256.99 257.599 257.245 257.399 257.45C257.2 257.649 256.918 257.749 256.553 257.749C256.188 257.749 255.905 257.649 255.706 257.45C255.512 257.245 255.416 256.99 255.416 256.686ZM260.296 268V260.513H258.927V259.019H260.296V258.404C260.302 257.701 260.451 257.098 260.745 256.595C261.038 256.091 261.453 255.712 261.99 255.458C262.527 255.203 263.171 255.076 263.924 255.076C264.367 255.076 264.79 255.123 265.194 255.217C265.603 255.311 266.027 255.43 266.464 255.574L266.157 257.242C265.393 256.977 264.696 256.844 264.065 256.844C263.451 256.844 263.005 256.979 262.729 257.25C262.452 257.516 262.313 257.917 262.313 258.454V259.019H264.082V260.513H262.313V268H260.296ZM267.418 268H265.401V259.019H267.418V268ZM272.573 264.148L271.677 265.07V268H269.66V255.25H271.677V262.604L272.308 261.816L274.79 259.019H277.213L273.876 262.762L277.57 268H275.238L272.573 264.148Z" fill="#5B5B5B"/>
<path d="M138.698 343.779L137.329 345.231V349H135.229V336.914H137.329V342.583L138.491 341.147L142.027 336.914H144.567L140.076 342.268L144.824 349H142.334L138.698 343.779ZM151.125 349C151.036 348.828 150.958 348.549 150.892 348.162C150.25 348.831 149.464 349.166 148.535 349.166C147.633 349.166 146.897 348.909 146.327 348.394C145.757 347.879 145.472 347.243 145.472 346.485C145.472 345.528 145.826 344.794 146.534 344.285C147.248 343.771 148.266 343.513 149.589 343.513H150.826V342.924C150.826 342.459 150.696 342.088 150.436 341.812C150.175 341.529 149.78 341.388 149.249 341.388C148.789 341.388 148.413 341.504 148.12 341.737C147.826 341.964 147.68 342.254 147.68 342.608H145.663C145.663 342.116 145.826 341.657 146.152 341.23C146.479 340.799 146.922 340.461 147.48 340.218C148.045 339.974 148.673 339.853 149.365 339.853C150.416 339.853 151.255 340.118 151.88 340.649C152.505 341.175 152.826 341.917 152.843 342.874V346.925C152.843 347.733 152.956 348.377 153.183 348.859V349H151.125ZM148.908 347.547C149.307 347.547 149.68 347.451 150.029 347.257C150.383 347.063 150.649 346.803 150.826 346.477V344.783H149.738C148.991 344.783 148.43 344.913 148.053 345.173C147.677 345.433 147.489 345.801 147.489 346.277C147.489 346.665 147.616 346.975 147.871 347.207C148.131 347.434 148.477 347.547 148.908 347.547ZM157.101 349H155.084V336.25H157.101V349ZM162.223 345.148L161.326 346.07V349H159.309V336.25H161.326V343.604L161.957 342.816L164.439 340.019H166.863L163.526 343.762L167.22 349H164.887L162.223 345.148ZM173.628 348.12C173.036 348.817 172.195 349.166 171.104 349.166C170.131 349.166 169.392 348.881 168.888 348.311C168.39 347.741 168.141 346.917 168.141 345.837V340.019H170.158V345.812C170.158 346.952 170.631 347.522 171.578 347.522C172.557 347.522 173.218 347.171 173.562 346.468V340.019H175.579V349H173.678L173.628 348.12ZM179.779 349H177.762V336.25H179.779V349ZM187.349 349C187.261 348.828 187.183 348.549 187.117 348.162C186.475 348.831 185.689 349.166 184.759 349.166C183.857 349.166 183.121 348.909 182.551 348.394C181.981 347.879 181.696 347.243 181.696 346.485C181.696 345.528 182.05 344.794 182.759 344.285C183.473 343.771 184.491 343.513 185.813 343.513H187.05V342.924C187.05 342.459 186.92 342.088 186.66 341.812C186.4 341.529 186.004 341.388 185.473 341.388C185.014 341.388 184.638 341.504 184.344 341.737C184.051 341.964 183.904 342.254 183.904 342.608H181.887C181.887 342.116 182.05 341.657 182.377 341.23C182.703 340.799 183.146 340.461 183.705 340.218C184.27 339.974 184.898 339.853 185.589 339.853C186.641 339.853 187.479 340.118 188.104 340.649C188.73 341.175 189.051 341.917 189.067 342.874V346.925C189.067 347.733 189.181 348.377 189.408 348.859V349H187.349ZM185.133 347.547C185.531 347.547 185.905 347.451 186.253 347.257C186.608 347.063 186.873 346.803 187.05 346.477V344.783H185.963C185.216 344.783 184.654 344.913 184.278 345.173C183.902 345.433 183.713 345.801 183.713 346.277C183.713 346.665 183.841 346.975 184.095 347.207C184.355 347.434 184.701 347.547 185.133 347.547ZM193.708 337.835V340.019H195.293V341.513H193.708V346.526C193.708 346.869 193.774 347.118 193.907 347.273C194.045 347.423 194.289 347.498 194.637 347.498C194.87 347.498 195.105 347.47 195.343 347.415V348.975C194.883 349.102 194.441 349.166 194.015 349.166C192.465 349.166 191.69 348.311 191.69 346.601V341.513H190.213V340.019H191.69V337.835H193.708ZM196.214 344.426C196.214 343.546 196.389 342.755 196.737 342.052C197.086 341.344 197.576 340.802 198.207 340.425C198.837 340.043 199.562 339.853 200.381 339.853C201.593 339.853 202.576 340.243 203.328 341.023C204.086 341.803 204.496 342.838 204.557 344.127L204.565 344.601C204.565 345.486 204.393 346.277 204.05 346.975C203.713 347.672 203.226 348.211 202.589 348.593C201.958 348.975 201.228 349.166 200.398 349.166C199.131 349.166 198.115 348.745 197.352 347.904C196.593 347.058 196.214 345.931 196.214 344.526V344.426ZM198.231 344.601C198.231 345.525 198.422 346.25 198.804 346.775C199.186 347.296 199.717 347.556 200.398 347.556C201.079 347.556 201.607 347.29 201.983 346.759C202.365 346.228 202.556 345.45 202.556 344.426C202.556 343.519 202.36 342.799 201.967 342.268C201.579 341.737 201.051 341.471 200.381 341.471C199.723 341.471 199.2 341.734 198.812 342.26C198.425 342.78 198.231 343.56 198.231 344.601ZM210.973 341.861C210.708 341.817 210.434 341.795 210.151 341.795C209.227 341.795 208.605 342.149 208.284 342.857V349H206.267V340.019H208.192L208.242 341.023C208.729 340.243 209.404 339.853 210.268 339.853C210.555 339.853 210.793 339.891 210.981 339.969L210.973 341.861ZM221.117 344.343H218.776V349H216.676V336.914H220.926C222.32 336.914 223.397 337.227 224.155 337.852C224.913 338.477 225.292 339.382 225.292 340.566C225.292 341.374 225.096 342.052 224.703 342.6C224.315 343.142 223.773 343.56 223.076 343.854L225.79 348.892V349H223.541L221.117 344.343ZM218.776 342.658H220.934C221.642 342.658 222.196 342.481 222.594 342.127C222.993 341.767 223.192 341.278 223.192 340.658C223.192 340.01 223.007 339.509 222.636 339.155C222.271 338.801 221.723 338.618 220.992 338.607H218.776V342.658ZM232.53 348.12C231.938 348.817 231.097 349.166 230.007 349.166C229.033 349.166 228.294 348.881 227.791 348.311C227.292 347.741 227.043 346.917 227.043 345.837V340.019H229.061V345.812C229.061 346.952 229.534 347.522 230.48 347.522C231.459 347.522 232.121 347.171 232.464 346.468V340.019H234.481V349H232.58L232.53 348.12ZM238.432 340.019L238.49 340.957C239.121 340.221 239.984 339.853 241.08 339.853C242.281 339.853 243.103 340.312 243.545 341.23C244.198 340.312 245.117 339.853 246.301 339.853C247.292 339.853 248.028 340.126 248.509 340.674C248.996 341.222 249.245 342.03 249.256 343.098V349H247.239V343.156C247.239 342.586 247.115 342.168 246.866 341.903C246.617 341.637 246.204 341.504 245.629 341.504C245.17 341.504 244.793 341.629 244.5 341.878C244.212 342.121 244.01 342.442 243.894 342.841L243.902 349H241.885V343.09C241.858 342.033 241.318 341.504 240.267 341.504C239.459 341.504 238.886 341.834 238.548 342.492V349H236.531V340.019H238.432ZM256.769 348.12C256.176 348.817 255.335 349.166 254.245 349.166C253.271 349.166 252.532 348.881 252.029 348.311C251.531 347.741 251.282 346.917 251.282 345.837V340.019H253.299V345.812C253.299 346.952 253.772 347.522 254.718 347.522C255.698 347.522 256.359 347.171 256.702 346.468V340.019H258.719V349H256.818L256.769 348.12ZM265.808 346.56C265.808 346.2 265.659 345.926 265.36 345.738C265.067 345.55 264.577 345.384 263.891 345.24C263.204 345.096 262.632 344.913 262.172 344.692C261.165 344.205 260.662 343.499 260.662 342.575C260.662 341.8 260.988 341.153 261.641 340.633C262.294 340.113 263.124 339.853 264.131 339.853C265.205 339.853 266.071 340.118 266.729 340.649C267.394 341.181 267.726 341.87 267.726 342.716H265.708C265.708 342.329 265.565 342.008 265.277 341.753C264.989 341.493 264.607 341.363 264.131 341.363C263.689 341.363 263.326 341.466 263.044 341.67C262.767 341.875 262.629 342.149 262.629 342.492C262.629 342.802 262.759 343.043 263.019 343.214C263.279 343.386 263.805 343.56 264.596 343.737C265.388 343.909 266.007 344.116 266.456 344.36C266.909 344.598 267.244 344.886 267.46 345.223C267.681 345.561 267.792 345.97 267.792 346.452C267.792 347.26 267.457 347.915 266.788 348.419C266.118 348.917 265.241 349.166 264.156 349.166C263.42 349.166 262.764 349.033 262.189 348.768C261.613 348.502 261.165 348.137 260.844 347.672C260.523 347.207 260.363 346.706 260.363 346.169H262.322C262.349 346.645 262.529 347.013 262.861 347.273C263.193 347.528 263.633 347.655 264.181 347.655C264.712 347.655 265.116 347.556 265.393 347.356C265.67 347.152 265.808 346.886 265.808 346.56Z" fill="#5B5B5B"/>
<rect x="134.1" y="272.1" width="276.8" height="45.8" rx="4.9" fill="#E5E5E5" stroke="#161616" stroke-width="0.2"/>
<line x1="134" y1="287.9" x2="411" y2="287.9" stroke="black" stroke-width="0.2"/>
<line x1="134" y1="303.9" x2="411" y2="303.9" stroke="black" stroke-width="0.2"/>
<line x1="150.1" y1="272" x2="150.1" y2="318" stroke="black" stroke-width="0.2"/>
<line x1="166.1" y1="272" x2="166.1" y2="318" stroke="black" stroke-width="0.2"/>
<line x1="183.1" y1="272" x2="183.1" y2="318" stroke="black" stroke-width="0.2"/>
<line x1="199.1" y1="272" x2="199.1" y2="318" stroke="black" stroke-width="0.2"/>
<line x1="215.1" y1="272" x2="215.1" y2="318" stroke="black" stroke-width="0.2"/>
<line x1="232.1" y1="272" x2="232.1" y2="318" stroke="black" stroke-width="0.2"/>
<line x1="248.1" y1="272" x2="248.1" y2="318" stroke="black" stroke-width="0.2"/>
<line x1="264.1" y1="272" x2="264.1" y2="318" stroke="black" stroke-width="0.2"/>
<line x1="281.1" y1="272" x2="281.1" y2="318" stroke="black" stroke-width="0.2"/>
<line x1="297.1" y1="272" x2="297.1" y2="318" stroke="black" stroke-width="0.2"/>
<line x1="313.1" y1="272" x2="313.1" y2="318" stroke="black" stroke-width="0.2"/>
<line x1="330.1" y1="272" x2="330.1" y2="318" stroke="black" stroke-width="0.2"/>
<line x1="346.1" y1="272" x2="346.1" y2="318" stroke="black" stroke-width="0.2"/>
<line x1="362.1" y1="272" x2="362.1" y2="318" stroke="black" stroke-width="0.2"/>
<line x1="379.1" y1="272" x2="379.1" y2="318" stroke="black" stroke-width="0.2"/>
<line x1="395.1" y1="272" x2="395.1" y2="318" stroke="black" stroke-width="0.2"/>
<path d="M139 353.1H406C408.706 353.1 410.9 355.294 410.9 358V386.9H134.1V358C134.1 355.294 136.294 353.1 139 353.1Z" fill="#E5E5E5" stroke="#161616" stroke-width="0.2"/>
<line x1="134" y1="368.9" x2="411" y2="368.9" stroke="black" stroke-width="0.2"/>
<line x1="150.1" y1="353" x2="150.1" y2="387" stroke="black" stroke-width="0.2"/>
<line x1="166.1" y1="353" x2="166.1" y2="387" stroke="black" stroke-width="0.2"/>
<line x1="183.1" y1="353" x2="183.1" y2="387" stroke="black" stroke-width="0.2"/>
<line x1="199.1" y1="353" x2="199.1" y2="387" stroke="black" stroke-width="0.2"/>
<line x1="215.1" y1="353" x2="215.1" y2="387" stroke="black" stroke-width="0.2"/>
<line x1="232.1" y1="353" x2="232.1" y2="387" stroke="black" stroke-width="0.2"/>
<line x1="248.1" y1="353" x2="248.1" y2="387" stroke="black" stroke-width="0.2"/>
<line x1="264.1" y1="353" x2="264.1" y2="387" stroke="black" stroke-width="0.2"/>
<line x1="281.1" y1="353" x2="281.1" y2="387" stroke="black" stroke-width="0.2"/>
<line x1="297.1" y1="353" x2="297.1" y2="387" stroke="black" stroke-width="0.2"/>
<line x1="313.1" y1="353" x2="313.1" y2="387" stroke="black" stroke-width="0.2"/>
<line x1="330.1" y1="353" x2="330.1" y2="387" stroke="black" stroke-width="0.2"/>
<line x1="346.1" y1="353" x2="346.1" y2="387" stroke="black" stroke-width="0.2"/>
<line x1="362.1" y1="353" x2="362.1" y2="387" stroke="black" stroke-width="0.2"/>
<line x1="379.1" y1="353" x2="379.1" y2="387" stroke="black" stroke-width="0.2"/>
<line x1="395.1" y1="353" x2="395.1" y2="387" stroke="black" stroke-width="0.2"/>
<rect x="134.1" y="191.1" width="276.8" height="45.8" rx="4.9" fill="#E5E5E5" stroke="#161616" stroke-width="0.2"/>
<line x1="134" y1="206.9" x2="411" y2="206.9" stroke="black" stroke-width="0.2"/>
<line x1="134" y1="222.9" x2="411" y2="222.9" stroke="black" stroke-width="0.2"/>
<line x1="150.1" y1="191" x2="150.1" y2="237" stroke="black" stroke-width="0.2"/>
<line x1="166.1" y1="191" x2="166.1" y2="237" stroke="black" stroke-width="0.2"/>
<line x1="183.1" y1="191" x2="183.1" y2="237" stroke="black" stroke-width="0.2"/>
<line x1="199.1" y1="191" x2="199.1" y2="237" stroke="black" stroke-width="0.2"/>
<line x1="215.1" y1="191" x2="215.1" y2="237" stroke="black" stroke-width="0.2"/>
<line x1="232.1" y1="191" x2="232.1" y2="237" stroke="black" stroke-width="0.2"/>
<line x1="248.1" y1="191" x2="248.1" y2="237" stroke="black" stroke-width="0.2"/>
<line x1="264.1" y1="191" x2="264.1" y2="237" stroke="black" stroke-width="0.2"/>
<line x1="281.1" y1="191" x2="281.1" y2="237" stroke="black" stroke-width="0.2"/>
<line x1="297.1" y1="191" x2="297.1" y2="237" stroke="black" stroke-width="0.2"/>
<line x1="313.1" y1="191" x2="313.1" y2="237" stroke="black" stroke-width="0.2"/>
<line x1="330.1" y1="191" x2="330.1" y2="237" stroke="black" stroke-width="0.2"/>
<line x1="346.1" y1="191" x2="346.1" y2="237" stroke="black" stroke-width="0.2"/>
<line x1="362.1" y1="191" x2="362.1" y2="237" stroke="black" stroke-width="0.2"/>
<line x1="379.1" y1="191" x2="379.1" y2="237" stroke="black" stroke-width="0.2"/>
<line x1="395.1" y1="191" x2="395.1" y2="237" stroke="black" stroke-width="0.2"/>
<g filter="url(#filter2_d)">
<path d="M237 221C237 215.477 241.477 211 247 211H545C550.523 211 555 215.477 555 221V473C555 478.523 550.523 483 545 483H247C241.477 483 237 478.523 237 473V221Z" fill="#F5F5F7"/>
<path d="M247 211.5H545C550.247 211.5 554.5 215.753 554.5 221V473C554.5 478.247 550.247 482.5 545 482.5H247C241.753 482.5 237.5 478.247 237.5 473V221C237.5 215.753 241.753 211.5 247 211.5Z" stroke="#808080"/>
</g>
<path d="M362.621 246.338H356.2L354.979 250H351.085L357.702 232.227H361.095L367.748 250H363.854L362.621 246.338ZM357.189 243.372H361.632L359.398 236.719L357.189 243.372ZM371.837 236.792L371.947 238.318C372.891 237.138 374.157 236.548 375.744 236.548C377.143 236.548 378.185 236.959 378.869 237.781C379.552 238.603 379.902 239.832 379.918 241.467V250H376.391V241.553C376.391 240.804 376.228 240.263 375.902 239.929C375.577 239.587 375.036 239.417 374.279 239.417C373.286 239.417 372.541 239.84 372.045 240.686V250H368.517V236.792H371.837ZM386.327 250H382.787V236.792H386.327V250ZM382.58 233.374C382.58 232.845 382.755 232.41 383.104 232.068C383.463 231.726 383.947 231.555 384.557 231.555C385.159 231.555 385.639 231.726 385.998 232.068C386.356 232.41 386.535 232.845 386.535 233.374C386.535 233.911 386.352 234.351 385.985 234.692C385.627 235.034 385.151 235.205 384.557 235.205C383.963 235.205 383.483 235.034 383.117 234.692C382.759 234.351 382.58 233.911 382.58 233.374ZM392.553 236.792L392.663 238.269C393.598 237.122 394.864 236.548 396.459 236.548C398.16 236.548 399.328 237.219 399.962 238.562C400.89 237.219 402.213 236.548 403.93 236.548C405.362 236.548 406.428 236.967 407.128 237.805C407.828 238.635 408.178 239.889 408.178 241.565V250H404.638V241.577C404.638 240.828 404.491 240.283 404.198 239.941C403.905 239.591 403.389 239.417 402.648 239.417C401.59 239.417 400.858 239.921 400.451 240.93L400.463 250H396.935V241.589C396.935 240.824 396.785 240.271 396.483 239.929C396.182 239.587 395.67 239.417 394.945 239.417C393.944 239.417 393.22 239.832 392.772 240.662V250H389.245V236.792H392.553ZM418.554 250C418.391 249.683 418.273 249.288 418.2 248.816C417.345 249.768 416.234 250.244 414.867 250.244C413.573 250.244 412.499 249.87 411.645 249.121C410.798 248.372 410.375 247.428 410.375 246.289C410.375 244.889 410.892 243.815 411.925 243.066C412.967 242.318 414.468 241.939 416.43 241.931H418.053V241.174C418.053 240.564 417.895 240.076 417.577 239.709C417.268 239.343 416.776 239.16 416.1 239.16C415.506 239.16 415.038 239.303 414.696 239.587C414.363 239.872 414.196 240.263 414.196 240.759H410.668C410.668 239.994 410.904 239.286 411.376 238.635C411.848 237.984 412.515 237.476 413.378 237.109C414.241 236.735 415.209 236.548 416.283 236.548C417.911 236.548 419.201 236.959 420.153 237.781C421.113 238.595 421.593 239.742 421.593 241.223V246.948C421.601 248.201 421.776 249.15 422.118 249.792V250H418.554ZM415.636 247.546C416.157 247.546 416.637 247.432 417.077 247.205C417.516 246.969 417.842 246.655 418.053 246.265V243.994H416.735C414.969 243.994 414.029 244.604 413.915 245.825L413.903 246.033C413.903 246.472 414.057 246.834 414.367 247.119C414.676 247.404 415.099 247.546 415.636 247.546ZM431.457 246.35C431.457 245.919 431.241 245.581 430.81 245.337C430.386 245.085 429.703 244.861 428.759 244.666C425.618 244.006 424.047 242.672 424.047 240.662C424.047 239.49 424.531 238.513 425.5 237.732C426.476 236.943 427.75 236.548 429.32 236.548C430.997 236.548 432.335 236.943 433.336 237.732C434.346 238.521 434.85 239.547 434.85 240.808H431.322C431.322 240.304 431.16 239.889 430.834 239.563C430.508 239.229 430 239.062 429.308 239.062C428.714 239.062 428.254 239.197 427.929 239.465C427.603 239.734 427.44 240.076 427.44 240.491C427.44 240.881 427.624 241.199 427.99 241.443C428.364 241.679 428.991 241.886 429.87 242.065C430.749 242.236 431.489 242.432 432.091 242.651C433.955 243.335 434.887 244.519 434.887 246.204C434.887 247.408 434.37 248.385 433.336 249.133C432.303 249.874 430.968 250.244 429.333 250.244C428.226 250.244 427.241 250.049 426.378 249.658C425.524 249.259 424.853 248.718 424.364 248.035C423.876 247.343 423.632 246.598 423.632 245.801H426.977C427.009 246.427 427.241 246.908 427.672 247.241C428.104 247.575 428.681 247.742 429.406 247.742C430.081 247.742 430.59 247.616 430.932 247.363C431.282 247.103 431.457 246.765 431.457 246.35ZM440.893 250H437.353V236.792H440.893V250ZM437.145 233.374C437.145 232.845 437.32 232.41 437.67 232.068C438.028 231.726 438.512 231.555 439.123 231.555C439.725 231.555 440.205 231.726 440.563 232.068C440.921 232.41 441.1 232.845 441.1 233.374C441.1 233.911 440.917 234.351 440.551 234.692C440.193 235.034 439.717 235.205 439.123 235.205C438.528 235.205 438.048 235.034 437.682 234.692C437.324 234.351 437.145 233.911 437.145 233.374Z" fill="#5B5B5B"/>
<rect x="262.1" y="294.1" width="272.8" height="109.8" rx="4.9" fill="#E5E5E5" stroke="#808080" stroke-width="0.2"/>
<rect x="332.1" y="414.1" width="55.8" height="55.8" rx="4.9" fill="#EAEAEA" stroke="#3B3B3B" stroke-width="0.2"/>
<rect x="345" y="425" width="11" height="35" rx="1" fill="#AAAAAA"/>
<rect x="364" y="425" width="11" height="35" rx="1" fill="#AAAAAA"/>
<rect x="262.1" y="414.1" width="55.8" height="55.8" rx="4.9" fill="#EAEAEA" stroke="#3B3B3B" stroke-width="0.2"/>
<path d="M303.689 440.466C304.645 441.265 304.645 442.735 303.689 443.534L282.914 460.906C281.612 461.994 279.631 461.069 279.631 459.371V424.629C279.631 422.931 281.612 422.006 282.914 423.094L303.689 440.466Z" fill="#AAAAAA"/>
<rect x="402.1" y="414.1" width="55.8" height="55.8" rx="4.9" fill="#EAEAEA" stroke="#3B3B3B" stroke-width="0.2"/>
<rect x="472.1" y="414.1" width="55.8" height="55.8" rx="4.9" fill="#EAEAEA" stroke="#3B3B3B" stroke-width="0.2"/>
<path d="M426.51 425.994C427.398 422.335 432.602 422.335 433.49 425.994C433.623 426.543 433.884 427.054 434.251 427.483C434.619 427.913 435.083 428.25 435.606 428.466C436.128 428.683 436.694 428.773 437.258 428.729C437.822 428.685 438.367 428.509 438.85 428.215C442.065 426.256 445.746 429.935 443.787 433.152C443.494 433.635 443.318 434.18 443.274 434.743C443.23 435.307 443.32 435.872 443.537 436.395C443.753 436.917 444.089 437.38 444.518 437.748C444.947 438.116 445.457 438.377 446.006 438.51C449.665 439.398 449.665 444.602 446.006 445.49C445.457 445.623 444.946 445.884 444.517 446.251C444.087 446.619 443.75 447.083 443.534 447.606C443.317 448.128 443.227 448.694 443.271 449.258C443.315 449.822 443.491 450.367 443.785 450.85C445.744 454.065 442.065 457.746 438.848 455.787C438.365 455.494 437.82 455.318 437.257 455.274C436.693 455.23 436.128 455.32 435.605 455.537C435.083 455.753 434.62 456.089 434.252 456.518C433.884 456.947 433.623 457.457 433.49 458.006C432.602 461.665 427.398 461.665 426.51 458.006C426.377 457.457 426.116 456.946 425.749 456.517C425.381 456.087 424.917 455.75 424.394 455.534C423.872 455.317 423.306 455.227 422.742 455.271C422.178 455.315 421.633 455.491 421.15 455.785C417.935 457.744 414.254 454.065 416.212 450.848C416.506 450.365 416.682 449.82 416.726 449.257C416.77 448.693 416.68 448.128 416.463 447.605C416.247 447.083 415.911 446.62 415.482 446.252C415.053 445.884 414.543 445.623 413.994 445.49C410.335 444.602 410.335 439.398 413.994 438.51C414.543 438.377 415.054 438.116 415.483 437.749C415.913 437.381 416.25 436.917 416.466 436.394C416.683 435.872 416.773 435.306 416.729 434.742C416.685 434.178 416.509 433.633 416.215 433.15C414.256 429.935 417.935 426.254 421.152 428.212C423.227 429.479 425.935 428.358 426.51 425.994Z" stroke="#AAAAAA" stroke-width="3" stroke-linecap="round" stroke-linejoin="round"/>
<path d="M436.25 442C436.25 443.658 435.592 445.247 434.419 446.419C433.247 447.592 431.658 448.25 430 448.25C428.342 448.25 426.753 447.592 425.581 446.419C424.408 445.247 423.75 443.658 423.75 442C423.75 440.342 424.408 438.753 425.581 437.581C426.753 436.408 428.342 435.75 430 435.75C431.658 435.75 433.247 436.408 434.419 437.581C435.592 438.753 436.25 440.342 436.25 442V442Z" stroke="#AAAAAA" stroke-width="3" stroke-linecap="round" stroke-linejoin="round"/>
<path d="M487.5 427C487.5 426.337 487.236 425.701 486.768 425.232C486.299 424.763 485.663 424.5 485 424.5C484.337 424.5 483.701 424.763 483.232 425.232C482.763 425.701 482.5 426.337 482.5 427V445.17C481.74 445.609 481.109 446.24 480.67 447C480.231 447.76 480 448.622 480 449.5C480 450.378 480.231 451.24 480.67 452C481.109 452.76 481.74 453.391 482.5 453.83V457C482.5 457.663 482.763 458.299 483.232 458.768C483.701 459.237 484.337 459.5 485 459.5C485.663 459.5 486.299 459.237 486.768 458.768C487.236 458.299 487.5 457.663 487.5 457V453.83C488.26 453.391 488.891 452.76 489.33 452C489.769 451.24 490 450.378 490 449.5C490 448.622 489.769 447.76 489.33 447C488.891 446.24 488.26 445.609 487.5 445.17V427ZM502.5 427C502.5 426.337 502.236 425.701 501.768 425.232C501.299 424.763 500.663 424.5 500 424.5C499.337 424.5 498.701 424.763 498.232 425.232C497.763 425.701 497.5 426.337 497.5 427V430.17C496.74 430.609 496.109 431.24 495.67 432C495.231 432.76 495 433.622 495 434.5C495 435.378 495.231 436.24 495.67 437C496.109 437.76 496.74 438.391 497.5 438.83V457C497.5 457.663 497.763 458.299 498.232 458.768C498.701 459.237 499.337 459.5 500 459.5C500.663 459.5 501.299 459.237 501.768 458.768C502.236 458.299 502.5 457.663 502.5 457V438.83C503.26 438.391 503.891 437.76 504.33 437C504.769 436.24 505 435.378 505 434.5C505 433.622 504.769 432.76 504.33 432C503.891 431.24 503.26 430.609 502.5 430.17V427ZM515 424.5C515.663 424.5 516.299 424.763 516.768 425.232C517.236 425.701 517.5 426.337 517.5 427V445.17C518.26 445.609 518.891 446.24 519.33 447C519.769 447.76 520 448.622 520 449.5C520 450.378 519.769 451.24 519.33 452C518.891 452.76 518.26 453.391 517.5 453.83V457C517.5 457.663 517.236 458.299 516.768 458.768C516.299 459.237 515.663 459.5 515 459.5C514.337 459.5 513.701 459.237 513.232 458.768C512.763 458.299 512.5 457.663 512.5 457V453.83C511.74 453.391 511.109 452.76 510.67 452C510.231 451.24 510 450.378 510 449.5C510 448.622 510.231 447.76 510.67 447C511.109 446.24 511.74 445.609 512.5 445.17V427C512.5 426.337 512.763 425.701 513.232 425.232C513.701 424.763 514.337 424.5 515 424.5V424.5Z" fill="#AFAFAF"/>
<circle cx="310.5" cy="365.5" r="7.5" fill="#959595"/>
<circle cx="479.5" cy="333.5" r="7.5" fill="#959595"/>
<line x1="310.293" y1="365.293" x2="352.293" y2="323.293" stroke="#959595" stroke-width="2"/>
<line x1="433.45" y1="377.835" x2="351.45" y2="323.835" stroke="#959595" stroke-width="2"/>
<line x1="432.308" y1="377.278" x2="479.308" y2="332.278" stroke="#959595" stroke-width="2"/>
<path d="M266.698 282.779L265.329 284.231V288H263.229V275.914H265.329V281.583L266.491 280.147L270.027 275.914H272.567L268.076 281.268L272.824 288H270.334L266.698 282.779ZM279.125 288C279.036 287.828 278.958 287.549 278.892 287.162C278.25 287.831 277.464 288.166 276.535 288.166C275.633 288.166 274.897 287.909 274.327 287.394C273.757 286.879 273.472 286.243 273.472 285.485C273.472 284.528 273.826 283.794 274.534 283.285C275.248 282.771 276.266 282.513 277.589 282.513H278.826V281.924C278.826 281.459 278.696 281.088 278.436 280.812C278.175 280.529 277.78 280.388 277.249 280.388C276.789 280.388 276.413 280.504 276.12 280.737C275.826 280.964 275.68 281.254 275.68 281.608H273.663C273.663 281.116 273.826 280.657 274.152 280.23C274.479 279.799 274.922 279.461 275.48 279.218C276.045 278.974 276.673 278.853 277.365 278.853C278.416 278.853 279.255 279.118 279.88 279.649C280.505 280.175 280.826 280.917 280.843 281.874V285.925C280.843 286.733 280.956 287.377 281.183 287.859V288H279.125ZM276.908 286.547C277.307 286.547 277.68 286.451 278.029 286.257C278.383 286.063 278.649 285.803 278.826 285.477V283.783H277.738C276.991 283.783 276.43 283.913 276.053 284.173C275.677 284.433 275.489 284.801 275.489 285.277C275.489 285.665 275.616 285.975 275.871 286.207C276.131 286.434 276.477 286.547 276.908 286.547ZM285.101 288H283.084V275.25H285.101V288ZM290.223 284.148L289.326 285.07V288H287.309V275.25H289.326V282.604L289.957 281.816L292.439 279.019H294.863L291.526 282.762L295.22 288H292.887L290.223 284.148ZM301.628 287.12C301.036 287.817 300.195 288.166 299.104 288.166C298.131 288.166 297.392 287.881 296.888 287.311C296.39 286.741 296.141 285.917 296.141 284.837V279.019H298.158V284.812C298.158 285.952 298.631 286.522 299.578 286.522C300.557 286.522 301.218 286.171 301.562 285.468V279.019H303.579V288H301.678L301.628 287.12ZM307.779 288H305.762V275.25H307.779V288ZM315.349 288C315.261 287.828 315.183 287.549 315.117 287.162C314.475 287.831 313.689 288.166 312.759 288.166C311.857 288.166 311.121 287.909 310.551 287.394C309.981 286.879 309.696 286.243 309.696 285.485C309.696 284.528 310.05 283.794 310.759 283.285C311.473 282.771 312.491 282.513 313.813 282.513H315.05V281.924C315.05 281.459 314.92 281.088 314.66 280.812C314.4 280.529 314.004 280.388 313.473 280.388C313.014 280.388 312.638 280.504 312.344 280.737C312.051 280.964 311.904 281.254 311.904 281.608H309.887C309.887 281.116 310.05 280.657 310.377 280.23C310.703 279.799 311.146 279.461 311.705 279.218C312.27 278.974 312.898 278.853 313.589 278.853C314.641 278.853 315.479 279.118 316.104 279.649C316.73 280.175 317.051 280.917 317.067 281.874V285.925C317.067 286.733 317.181 287.377 317.408 287.859V288H315.349ZM313.133 286.547C313.531 286.547 313.905 286.451 314.253 286.257C314.608 286.063 314.873 285.803 315.05 285.477V283.783H313.963C313.216 283.783 312.654 283.913 312.278 284.173C311.902 284.433 311.713 284.801 311.713 285.277C311.713 285.665 311.841 285.975 312.095 286.207C312.355 286.434 312.701 286.547 313.133 286.547ZM321.708 276.835V279.019H323.293V280.513H321.708V285.526C321.708 285.869 321.774 286.118 321.907 286.273C322.045 286.423 322.289 286.498 322.637 286.498C322.87 286.498 323.105 286.47 323.343 286.415V287.975C322.883 288.102 322.441 288.166 322.015 288.166C320.465 288.166 319.69 287.311 319.69 285.601V280.513H318.213V279.019H319.69V276.835H321.708ZM324.214 283.426C324.214 282.546 324.389 281.755 324.737 281.052C325.086 280.344 325.576 279.802 326.207 279.425C326.837 279.043 327.562 278.853 328.381 278.853C329.593 278.853 330.576 279.243 331.328 280.023C332.086 280.803 332.496 281.838 332.557 283.127L332.565 283.601C332.565 284.486 332.393 285.277 332.05 285.975C331.713 286.672 331.226 287.211 330.589 287.593C329.958 287.975 329.228 288.166 328.398 288.166C327.131 288.166 326.115 287.745 325.352 286.904C324.593 286.058 324.214 284.931 324.214 283.526V283.426ZM326.231 283.601C326.231 284.525 326.422 285.25 326.804 285.775C327.186 286.296 327.717 286.556 328.398 286.556C329.079 286.556 329.607 286.29 329.983 285.759C330.365 285.228 330.556 284.45 330.556 283.426C330.556 282.519 330.36 281.799 329.967 281.268C329.579 280.737 329.051 280.471 328.381 280.471C327.723 280.471 327.2 280.734 326.812 281.26C326.425 281.78 326.231 282.56 326.231 283.601ZM338.973 280.861C338.708 280.817 338.434 280.795 338.151 280.795C337.227 280.795 336.605 281.149 336.284 281.857V288H334.267V279.019H336.192L336.242 280.023C336.729 279.243 337.404 278.853 338.268 278.853C338.555 278.853 338.793 278.891 338.981 278.969L338.973 280.861ZM350.993 284.887C350.993 284.356 350.805 283.946 350.428 283.659C350.057 283.371 349.385 283.08 348.411 282.787C347.437 282.494 346.662 282.167 346.087 281.808C344.986 281.116 344.435 280.214 344.435 279.102C344.435 278.128 344.831 277.325 345.622 276.694C346.419 276.063 347.451 275.748 348.718 275.748C349.559 275.748 350.309 275.903 350.968 276.213C351.626 276.523 352.144 276.965 352.52 277.541C352.896 278.111 353.084 278.745 353.084 279.442H350.993C350.993 278.811 350.793 278.319 350.395 277.964C350.002 277.605 349.438 277.425 348.702 277.425C348.015 277.425 347.481 277.571 347.1 277.865C346.723 278.158 346.535 278.568 346.535 279.093C346.535 279.536 346.74 279.907 347.149 280.206C347.559 280.499 348.234 280.787 349.175 281.069C350.116 281.346 350.871 281.664 351.441 282.023C352.011 282.378 352.429 282.787 352.694 283.252C352.96 283.711 353.093 284.251 353.093 284.871C353.093 285.878 352.705 286.68 351.931 287.278C351.161 287.87 350.116 288.166 348.793 288.166C347.919 288.166 347.113 288.006 346.377 287.685C345.647 287.358 345.077 286.91 344.667 286.34C344.264 285.77 344.062 285.106 344.062 284.348H346.162C346.162 285.034 346.389 285.565 346.842 285.941C347.296 286.318 347.946 286.506 348.793 286.506C349.523 286.506 350.071 286.359 350.437 286.066C350.807 285.767 350.993 285.374 350.993 284.887ZM360.107 288C360.018 287.828 359.941 287.549 359.875 287.162C359.233 287.831 358.447 288.166 357.517 288.166C356.615 288.166 355.879 287.909 355.309 287.394C354.739 286.879 354.454 286.243 354.454 285.485C354.454 284.528 354.808 283.794 355.517 283.285C356.23 282.771 357.249 282.513 358.571 282.513H359.808V281.924C359.808 281.459 359.678 281.088 359.418 280.812C359.158 280.529 358.762 280.388 358.231 280.388C357.772 280.388 357.395 280.504 357.102 280.737C356.809 280.964 356.662 281.254 356.662 281.608H354.645C354.645 281.116 354.808 280.657 355.135 280.23C355.461 279.799 355.904 279.461 356.463 279.218C357.027 278.974 357.655 278.853 358.347 278.853C359.399 278.853 360.237 279.118 360.862 279.649C361.488 280.175 361.809 280.917 361.825 281.874V285.925C361.825 286.733 361.939 287.377 362.166 287.859V288H360.107ZM357.891 286.547C358.289 286.547 358.663 286.451 359.011 286.257C359.365 286.063 359.631 285.803 359.808 285.477V283.783H358.721C357.974 283.783 357.412 283.913 357.036 284.173C356.659 284.433 356.471 284.801 356.471 285.277C356.471 285.665 356.598 285.975 356.853 286.207C357.113 286.434 357.459 286.547 357.891 286.547ZM366.083 288H364.066V279.019H366.083V288ZM363.942 276.686C363.942 276.376 364.039 276.119 364.232 275.914C364.432 275.709 364.714 275.607 365.079 275.607C365.444 275.607 365.727 275.709 365.926 275.914C366.125 276.119 366.225 276.376 366.225 276.686C366.225 276.99 366.125 277.245 365.926 277.45C365.727 277.649 365.444 277.749 365.079 277.749C364.714 277.749 364.432 277.649 364.232 277.45C364.039 277.245 363.942 276.99 363.942 276.686ZM370.159 279.019L370.217 280.056C370.881 279.254 371.753 278.853 372.832 278.853C374.702 278.853 375.654 279.923 375.688 282.065V288H373.67V282.181C373.67 281.611 373.546 281.191 373.297 280.919C373.053 280.643 372.652 280.504 372.093 280.504C371.28 280.504 370.674 280.872 370.275 281.608V288H368.258V279.019H370.159ZM380.278 276.835V279.019H381.863V280.513H380.278V285.526C380.278 285.869 380.344 286.118 380.477 286.273C380.615 286.423 380.859 286.498 381.208 286.498C381.44 286.498 381.675 286.47 381.913 286.415V287.975C381.454 288.102 381.011 288.166 380.585 288.166C379.035 288.166 378.261 287.311 378.261 285.601V280.513H376.783V279.019H378.261V276.835H380.278ZM385.557 288H383.54V279.019H385.557V288ZM383.416 276.686C383.416 276.376 383.512 276.119 383.706 275.914C383.905 275.709 384.188 275.607 384.553 275.607C384.918 275.607 385.2 275.709 385.399 275.914C385.599 276.119 385.698 276.376 385.698 276.686C385.698 276.99 385.599 277.245 385.399 277.45C385.2 277.649 384.918 277.749 384.553 277.749C384.188 277.749 383.905 277.649 383.706 277.45C383.512 277.245 383.416 276.99 383.416 276.686ZM388.296 288V280.513H386.927V279.019H388.296V278.404C388.302 277.701 388.451 277.098 388.745 276.595C389.038 276.091 389.453 275.712 389.99 275.458C390.527 275.203 391.171 275.076 391.924 275.076C392.367 275.076 392.79 275.123 393.194 275.217C393.603 275.311 394.027 275.43 394.464 275.574L394.157 277.242C393.393 276.977 392.696 276.844 392.065 276.844C391.451 276.844 391.005 276.979 390.729 277.25C390.452 277.516 390.313 277.917 390.313 278.454V279.019H392.082V280.513H390.313V288H388.296ZM395.418 288H393.401V279.019H395.418V288ZM400.573 284.148L399.677 285.07V288H397.66V275.25H399.677V282.604L400.308 281.816L402.79 279.019H405.213L401.876 282.762L405.57 288H403.238L400.573 284.148Z" fill="#5B5B5B"/>
<defs>
<filter id="filter0_d" x="0" y="0" width="366" height="320" filterUnits="userSpaceOnUse" color-interpolation-filters="sRGB">
<feFlood flood-opacity="0" result="BackgroundImageFix"/>
<feColorMatrix in="SourceAlpha" type="matrix" values="0 0 0 0 0 0 0 0 0 0 0 0 0 0 0 0 0 0 127 0" result="hardAlpha"/>
<feMorphology radius="9" operator="dilate" in="SourceAlpha" result="effect1_dropShadow"/>
<feOffset dy="22"/>
<feGaussianBlur stdDeviation="7.5"/>
<feComposite in2="hardAlpha" operator="out"/>
<feColorMatrix type="matrix" values="0 0 0 0 0 0 0 0 0 0 0 0 0 0 0 0 0 0 0.06 0"/>
<feBlend mode="normal" in2="BackgroundImageFix" result="effect1_dropShadow"/>
<feBlend mode="normal" in="SourceGraphic" in2="effect1_dropShadow" result="shape"/>
</filter>
<filter id="filter1_d" x="88" y="114" width="366" height="320" filterUnits="userSpaceOnUse" color-interpolation-filters="sRGB">
<feFlood flood-opacity="0" result="BackgroundImageFix"/>
<feColorMatrix in="SourceAlpha" type="matrix" values="0 0 0 0 0 0 0 0 0 0 0 0 0 0 0 0 0 0 127 0" result="hardAlpha"/>
<feMorphology radius="9" operator="dilate" in="SourceAlpha" result="effect1_dropShadow"/>
<feOffset dy="22"/>
<feGaussianBlur stdDeviation="7.5"/>
<feComposite in2="hardAlpha" operator="out"/>
<feColorMatrix type="matrix" values="0 0 0 0 0 0 0 0 0 0 0 0 0 0 0 0 0 0 0.06 0"/>
<feBlend mode="normal" in2="BackgroundImageFix" result="effect1_dropShadow"/>
<feBlend mode="normal" in="SourceGraphic" in2="effect1_dropShadow" result="shape"/>
</filter>
<filter id="filter2_d" x="213" y="209" width="366" height="320" filterUnits="userSpaceOnUse" color-interpolation-filters="sRGB">
<feFlood flood-opacity="0" result="BackgroundImageFix"/>
<feColorMatrix in="SourceAlpha" type="matrix" values="0 0 0 0 0 0 0 0 0 0 0 0 0 0 0 0 0 0 127 0" result="hardAlpha"/>
<feMorphology radius="9" operator="dilate" in="SourceAlpha" result="effect1_dropShadow"/>
<feOffset dy="22"/>
<feGaussianBlur stdDeviation="7.5"/>
<feComposite in2="hardAlpha" operator="out"/>
<feColorMatrix type="matrix" values="0 0 0 0 0 0 0 0 0 0 0 0 0 0 0 0 0 0 0.06 0"/>
<feBlend mode="normal" in2="BackgroundImageFix" result="effect1_dropShadow"/>
<feBlend mode="normal" in="SourceGraphic" in2="effect1_dropShadow" result="shape"/>
</filter>
</defs>
</svg>
