<svg width="700" height="700" viewBox="0 0 700 700" fill="none" xmlns="http://www.w3.org/2000/svg">
<rect width="700" height="700" fill="white"/>
<path d="M208.522 286.909H188.76V396H208.522V286.909ZM229.07 396H248.352V368.514L255.384 361.004L280.419 396H303.484L269.926 349.498L301.619 314.182H279.088L249.684 347.048H248.352V286.909H229.07V396ZM333.753 286.909H314.47V396H333.753V286.909ZM377.126 397.651C389.963 397.651 397.633 391.632 401.149 384.761H401.788V396H420.325V341.241C420.325 319.615 402.694 313.116 387.086 313.116C369.881 313.116 356.671 320.787 352.41 335.702L370.414 338.259C372.331 332.665 377.765 327.871 387.193 327.871C396.142 327.871 401.042 332.452 401.042 340.496V340.815C401.042 346.355 395.236 346.621 380.801 348.166C364.927 349.871 349.746 354.612 349.746 373.042C349.746 389.129 361.518 397.651 377.126 397.651ZM382.133 383.482C374.089 383.482 368.336 379.807 368.336 372.722C368.336 365.318 374.782 362.229 383.411 361.004C388.471 360.311 398.592 359.033 401.096 357.009V366.65C401.096 375.759 393.745 383.482 382.133 383.482ZM458.997 348.06C458.997 336.234 466.135 329.416 476.309 329.416C486.27 329.416 492.236 335.968 492.236 346.888V396H511.518V343.905C511.572 324.303 500.385 313.116 483.5 313.116C471.248 313.116 462.832 318.976 459.104 328.085H458.145V314.182H439.714V396H458.997V348.06Z" fill="black"/>
<path d="M509.101 509.1C551.297 466.904 575.003 409.674 575.003 350C575.003 290.326 551.297 233.096 509.101 190.9C466.906 148.704 409.675 124.998 350.001 124.998C290.327 124.998 233.097 148.704 190.901 190.9M509.101 509.1L190.901 190.9M509.101 509.1C466.906 551.296 409.675 575.001 350.001 575.001C290.327 575.001 233.097 551.296 190.901 509.1C148.705 466.904 125 409.674 125 350C125 290.326 148.705 233.096 190.901 190.9" stroke="#DF3C64" stroke-width="27" stroke-linecap="round" stroke-linejoin="round"/>
</svg>
