<svg width="700" height="700" viewBox="0 0 700 700" fill="none" xmlns="http://www.w3.org/2000/svg">
<rect width="700" height="700" fill="white"/>
<g filter="url(#filter0_d)">
<rect x="253" y="300" width="193" height="160" fill="#AF52DE"/>
</g>
<rect x="318" y="357" width="174" height="133" fill="#C4C4C4"/>
<rect x="553" y="354" width="98" height="63" fill="#C4C4C4"/>
<rect x="318" y="267" width="174" height="90" fill="#9B9B9B"/>
<rect x="207" y="356" width="111" height="133" fill="#606060"/>
<rect x="207" y="357" width="111" height="133" fill="#606060"/>
<rect x="207" y="525" width="111" height="102" fill="#606060"/>
<path d="M262.5 267L318.359 357H206.641L262.5 267Z" fill="#2F2F2F"/>
<path d="M238.727 302.711C239.117 302.32 239.117 301.687 238.727 301.296L232.363 294.933C231.972 294.542 231.339 294.542 230.949 294.933C230.558 295.323 230.558 295.956 230.949 296.347L236.606 302.004L230.949 307.66C230.558 308.051 230.558 308.684 230.949 309.075C231.339 309.465 231.972 309.465 232.363 309.075L238.727 302.711ZM158.987 303.004H238.02V301.004H158.987V303.004Z" fill="#AF52DE"/>
<path d="M263.707 488.293C263.317 487.902 262.683 487.902 262.293 488.293L255.929 494.657C255.538 495.047 255.538 495.681 255.929 496.071C256.319 496.462 256.953 496.462 257.343 496.071L263 490.414L268.657 496.071C269.047 496.462 269.681 496.462 270.071 496.071C270.462 495.681 270.462 495.047 270.071 494.657L263.707 488.293ZM264 525L264 489L262 489L262 525L264 525Z" fill="#AF52DE"/>
<path d="M135 251L190.426 341.75H79.5744L135 251Z" fill="#2F2F2F"/>
<path d="M262 267L318 356V354.022V267H262Z" fill="#9B9B9B"/>
<rect x="305" y="145" width="141" height="60" fill="#9B9B9B"/>
<path d="M269 145L305 205V203.667V145H269Z" fill="#9B9B9B"/>
<path d="M364.815 265.716C365.208 266.103 365.842 266.097 366.229 265.703L372.538 259.285C372.925 258.891 372.92 258.258 372.526 257.871C372.132 257.484 371.499 257.489 371.112 257.883L365.503 263.588L359.798 257.98C359.404 257.593 358.771 257.598 358.384 257.992C357.997 258.386 358.002 259.019 358.396 259.406L364.815 265.716ZM364 205.009L364.516 265.011L366.516 264.994L366 204.991L364 205.009Z" fill="#AF52DE"/>
<path d="M491.293 385.293C490.902 385.683 490.902 386.317 491.293 386.707L497.657 393.071C498.047 393.462 498.681 393.462 499.071 393.071C499.462 392.681 499.462 392.047 499.071 391.657L493.414 386L499.071 380.343C499.462 379.953 499.462 379.319 499.071 378.929C498.681 378.538 498.047 378.538 497.657 378.929L491.293 385.293ZM553 385H492V387H553V385Z" fill="#AF52DE"/>
<defs>
<filter id="filter0_d" x="83" y="134" width="533" height="500" filterUnits="userSpaceOnUse" color-interpolation-filters="sRGB">
<feFlood flood-opacity="0" result="BackgroundImageFix"/>
<feColorMatrix in="SourceAlpha" type="matrix" values="0 0 0 0 0 0 0 0 0 0 0 0 0 0 0 0 0 0 127 0"/>
<feMorphology radius="70" operator="dilate" in="SourceAlpha" result="effect1_dropShadow"/>
<feOffset dy="4"/>
<feGaussianBlur stdDeviation="50"/>
<feColorMatrix type="matrix" values="0 0 0 0 0.686275 0 0 0 0 0.321569 0 0 0 0 0.870588 0 0 0 0.5 0"/>
<feBlend mode="normal" in2="BackgroundImageFix" result="effect1_dropShadow"/>
<feBlend mode="normal" in="SourceGraphic" in2="effect1_dropShadow" result="shape"/>
</filter>
</defs>
</svg>
