<svg width="700" height="700" viewBox="0 0 700 700" fill="none" xmlns="http://www.w3.org/2000/svg">
<rect width="700" height="700" fill="white"/>
<g filter="url(#filter0_d)">
<rect x="318" y="357" width="174" height="133" fill="#C4C4C4"/>
</g>
<rect x="553" y="344" width="121" height="78" fill="#C4C4C4"/>
<g filter="url(#filter1_d)">
<rect x="318" y="267" width="174" height="90" fill="#9B9B9B"/>
</g>
<rect x="207" y="356" width="111" height="133" fill="#606060"/>
<g filter="url(#filter2_d)">
<rect x="207" y="357" width="111" height="133" fill="#606060"/>
</g>
<rect x="207" y="535" width="111" height="102" fill="#606060"/>
<g filter="url(#filter3_d)">
<path d="M263 265L318.426 355.75H207.574L263 265Z" fill="#2F2F2F"/>
</g>
<path d="M238.714 301.714C239.105 301.324 239.105 300.691 238.714 300.3L232.351 293.936C231.96 293.545 231.327 293.545 230.937 293.936C230.546 294.326 230.546 294.959 230.936 295.35L236.593 301.007L230.936 306.664C230.545 307.054 230.545 307.687 230.936 308.078C231.326 308.468 231.959 308.468 232.35 308.078L238.714 301.714ZM126 302L238.007 302.007L238.007 300.007L126 300L126 302Z" fill="#C13FFF"/>
<path d="M263.707 488.293C263.317 487.902 262.683 487.902 262.293 488.293L255.929 494.657C255.538 495.047 255.538 495.681 255.929 496.071C256.319 496.462 256.953 496.462 257.343 496.071L263 490.414L268.657 496.071C269.047 496.462 269.681 496.462 270.071 496.071C270.462 495.681 270.462 495.047 270.071 494.657L263.707 488.293ZM264 539L264 489L262 489L262 539L264 539Z" fill="#C13FFF"/>
<path d="M108 223L163.426 313.75H52.5744L108 223Z" fill="#2F2F2F"/>
<g filter="url(#filter4_d)">
<path d="M264 266L318 355V353.022V266H264Z" fill="#9B9B9B"/>
</g>
<rect x="305" y="106" width="141" height="60" fill="#9B9B9B"/>
<path d="M272 106L305 165V163.689V106H272Z" fill="#9B9B9B"/>
<path d="M364.809 265.709C365.199 266.1 365.832 266.1 366.223 265.709L372.587 259.346C372.977 258.955 372.977 258.322 372.587 257.931C372.196 257.541 371.563 257.541 371.172 257.931L365.516 263.588L359.859 257.931C359.468 257.541 358.835 257.541 358.445 257.931C358.054 258.322 358.054 258.955 358.445 259.346L364.809 265.709ZM364.516 165.997V265.002H366.516V165.997H364.516Z" fill="#C13FFF"/>
<path d="M491.293 385.293C490.902 385.683 490.902 386.317 491.293 386.707L497.657 393.071C498.047 393.462 498.681 393.462 499.071 393.071C499.462 392.681 499.462 392.047 499.071 391.657L493.414 386L499.071 380.343C499.462 379.953 499.462 379.319 499.071 378.929C498.681 378.538 498.047 378.538 497.657 378.929L491.293 385.293ZM553 385H492V387H553V385Z" fill="#C13FFF"/>
<path d="M85.517 273.981H88.4393V282H90.1381V273.981H93.0604V272.545H85.517V273.981ZM93.7044 282H95.3755V277.831C95.3755 276.931 96.0542 276.294 96.9728 276.294C97.2544 276.294 97.6053 276.345 97.7484 276.391V274.854C97.5961 274.826 97.3329 274.808 97.1483 274.808C96.3358 274.808 95.6571 275.269 95.3986 276.091H95.3248V274.909H93.7044V282ZM98.8587 282H100.53V274.909H98.8587V282ZM99.6989 273.903C100.23 273.903 100.664 273.496 100.664 272.998C100.664 272.495 100.23 272.088 99.6989 272.088C99.1634 272.088 98.7294 272.495 98.7294 272.998C98.7294 273.496 99.1634 273.903 99.6989 273.903ZM105.332 284.807C107.248 284.807 108.661 283.93 108.661 282.115V274.909H107.013V276.082H106.92C106.666 275.569 106.135 274.817 104.884 274.817C103.245 274.817 101.957 276.1 101.957 278.431C101.957 280.744 103.245 281.898 104.88 281.898C106.094 281.898 106.662 281.248 106.92 280.726H107.003V282.069C107.003 283.113 106.311 283.542 105.36 283.542C104.353 283.542 103.91 283.066 103.707 282.651L102.202 283.016C102.507 284.008 103.527 284.807 105.332 284.807ZM105.346 280.587C104.243 280.587 103.661 279.729 103.661 278.422C103.661 277.134 104.233 276.188 105.346 276.188C106.422 276.188 107.013 277.079 107.013 278.422C107.013 279.775 106.412 280.587 105.346 280.587ZM113.466 282.138C115.544 282.138 116.864 280.675 116.864 278.482C116.864 276.285 115.544 274.817 113.466 274.817C111.389 274.817 110.069 276.285 110.069 278.482C110.069 280.675 111.389 282.138 113.466 282.138ZM113.476 280.8C112.326 280.8 111.763 279.775 111.763 278.478C111.763 277.18 112.326 276.142 113.476 276.142C114.607 276.142 115.17 277.18 115.17 278.478C115.17 279.775 114.607 280.8 113.476 280.8ZM119.954 277.845C119.954 276.82 120.572 276.229 121.454 276.229C122.317 276.229 122.834 276.797 122.834 277.744V282H124.506V277.485C124.51 275.786 123.541 274.817 122.077 274.817C121.015 274.817 120.286 275.325 119.963 276.114H119.88V274.909H118.282V282H119.954V277.845ZM129.297 282.138C131.375 282.138 132.695 280.675 132.695 278.482C132.695 276.285 131.375 274.817 129.297 274.817C127.22 274.817 125.9 276.285 125.9 278.482C125.9 280.675 127.22 282.138 129.297 282.138ZM129.307 280.8C128.157 280.8 127.594 279.775 127.594 278.478C127.594 277.18 128.157 276.142 129.307 276.142C130.438 276.142 131.001 277.18 131.001 278.478C131.001 279.775 130.438 280.8 129.307 280.8ZM85.8587 298H87.5298V293.688C87.5298 292.816 88.1115 292.225 88.8317 292.225C89.538 292.225 90.0227 292.7 90.0227 293.43V298H91.6616V293.577C91.6616 292.779 92.1371 292.225 92.945 292.225C93.619 292.225 94.1545 292.622 94.1545 293.499V298H95.8303V293.24C95.8303 291.657 94.9162 290.817 93.6143 290.817C92.5849 290.817 91.8001 291.325 91.4862 292.114H91.4123C91.1399 291.311 90.4521 290.817 89.4964 290.817C88.5455 290.817 87.8345 291.306 87.5391 292.114H87.456V290.909H85.8587V298ZM100.665 298.138C102.318 298.138 103.453 297.331 103.749 296.098L102.188 295.923C101.962 296.523 101.408 296.837 100.688 296.837C99.6077 296.837 98.8921 296.126 98.8783 294.912H103.818V294.399C103.818 291.911 102.322 290.817 100.577 290.817C98.5459 290.817 97.221 292.308 97.221 294.496C97.221 296.721 98.5274 298.138 100.665 298.138ZM98.8829 293.785C98.9337 292.88 99.6031 292.119 100.6 292.119C101.56 292.119 102.207 292.82 102.216 293.785H98.8829ZM108.773 290.909H107.374V289.21H105.703V290.909H104.696V292.202H105.703V296.144C105.693 297.478 106.663 298.134 107.919 298.097C108.394 298.083 108.722 297.991 108.902 297.931L108.62 296.624C108.528 296.647 108.339 296.689 108.131 296.689C107.711 296.689 107.374 296.541 107.374 295.867V292.202H108.773V290.909ZM110.17 298H111.841V293.831C111.841 292.931 112.52 292.294 113.439 292.294C113.72 292.294 114.071 292.345 114.214 292.391V290.854C114.062 290.826 113.799 290.808 113.614 290.808C112.802 290.808 112.123 291.269 111.864 292.091H111.791V290.909H110.17V298ZM115.324 298H116.996V290.909H115.324V298ZM116.165 289.903C116.696 289.903 117.13 289.496 117.13 288.998C117.13 288.495 116.696 288.088 116.165 288.088C115.629 288.088 115.195 288.495 115.195 288.998C115.195 289.496 115.629 289.903 116.165 289.903Z" fill="white"/>
<path d="M317.295 123.727V147H321.341V130.977H321.557L327.989 146.932H331.011L337.443 131.011H337.659V147H341.705V123.727H336.545L329.636 140.591H329.364L322.455 123.727H317.295ZM351.136 147.352C353.875 147.352 355.511 146.068 356.261 144.602H356.398V147H360.352V135.318C360.352 130.705 356.591 129.318 353.261 129.318C349.591 129.318 346.773 130.955 345.864 134.136L349.705 134.682C350.114 133.489 351.273 132.466 353.284 132.466C355.193 132.466 356.239 133.443 356.239 135.159V135.227C356.239 136.409 355 136.466 351.92 136.795C348.534 137.159 345.295 138.17 345.295 142.102C345.295 145.534 347.807 147.352 351.136 147.352ZM352.205 144.33C350.489 144.33 349.261 143.545 349.261 142.034C349.261 140.455 350.636 139.795 352.477 139.534C353.557 139.386 355.716 139.114 356.25 138.682V140.739C356.25 142.682 354.682 144.33 352.205 144.33ZM373.205 129.545H369.761V125.364H365.648V129.545H363.17V132.727H365.648V142.432C365.625 145.716 368.011 147.33 371.102 147.239C372.273 147.205 373.08 146.977 373.523 146.83L372.83 143.614C372.602 143.67 372.136 143.773 371.625 143.773C370.591 143.773 369.761 143.409 369.761 141.75V132.727H373.205V129.545ZM376.645 147H380.759V136.739C380.759 134.523 382.429 132.955 384.69 132.955C385.384 132.955 386.247 133.08 386.599 133.193V129.409C386.224 129.341 385.577 129.295 385.122 129.295C383.122 129.295 381.452 130.432 380.815 132.455H380.634V129.545H376.645V147ZM389.332 147H393.446V129.545H389.332V147ZM391.401 127.068C392.707 127.068 393.776 126.068 393.776 124.841C393.776 123.602 392.707 122.602 391.401 122.602C390.082 122.602 389.014 123.602 389.014 124.841C389.014 126.068 390.082 127.068 391.401 127.068ZM397.676 147H401.79V141.136L403.29 139.534L408.631 147H413.551L406.392 137.08L413.153 129.545H408.347L402.074 136.557H401.79V123.727H397.676V147ZM429.69 134.159C429.122 131.205 426.759 129.318 422.668 129.318C418.463 129.318 415.599 131.386 415.611 134.614C415.599 137.159 417.168 138.841 420.52 139.534L423.497 140.159C425.099 140.511 425.849 141.159 425.849 142.148C425.849 143.341 424.554 144.239 422.599 144.239C420.713 144.239 419.486 143.42 419.134 141.852L415.122 142.239C415.634 145.443 418.327 147.341 422.611 147.341C426.974 147.341 430.054 145.08 430.065 141.773C430.054 139.284 428.452 137.761 425.156 137.045L422.179 136.409C420.406 136.011 419.702 135.398 419.713 134.386C419.702 133.205 421.009 132.386 422.724 132.386C424.622 132.386 425.622 133.42 425.94 134.568L429.69 134.159Z" fill="white"/>
<path d="M560.074 379.346H566.143V396H569.672V379.346H575.741V376.364H560.074V379.346ZM585.99 389.806C585.99 392.05 584.389 393.162 582.855 393.162C581.187 393.162 580.075 391.983 580.075 390.113V381.273H576.604V390.65C576.604 394.188 578.617 396.192 581.513 396.192C583.718 396.192 585.271 395.032 585.942 393.382H586.096V396H589.461V381.273H585.99V389.806ZM593.03 396H596.501V387.342C596.501 385.472 597.911 384.149 599.819 384.149C600.404 384.149 601.132 384.255 601.43 384.35V381.158C601.113 381.1 600.567 381.062 600.183 381.062C598.496 381.062 597.086 382.021 596.549 383.727H596.396V381.273H593.03V396ZM613.122 389.806C613.122 392.05 611.521 393.162 609.987 393.162C608.319 393.162 607.206 391.983 607.206 390.113V381.273H603.736V390.65C603.736 394.188 605.749 396.192 608.645 396.192C610.85 396.192 612.403 395.032 613.074 393.382H613.228V396H616.593V381.273H613.122V389.806ZM623.633 387.371C623.633 385.242 624.918 384.015 626.749 384.015C628.542 384.015 629.616 385.194 629.616 387.16V396H633.087V386.623C633.097 383.094 631.083 381.081 628.044 381.081C625.838 381.081 624.324 382.136 623.652 383.775H623.48V381.273H620.162V396H623.633V387.371ZM640.853 396.297C643.164 396.297 644.545 395.214 645.178 393.977H645.293V396H648.629V386.143C648.629 382.251 645.456 381.081 642.646 381.081C639.549 381.081 637.172 382.462 636.404 385.146L639.645 385.607C639.99 384.6 640.968 383.737 642.665 383.737C644.276 383.737 645.158 384.561 645.158 386.009V386.067C645.158 387.064 644.113 387.112 641.515 387.39C638.658 387.697 635.925 388.55 635.925 391.868C635.925 394.763 638.044 396.297 640.853 396.297ZM641.755 393.747C640.307 393.747 639.271 393.085 639.271 391.81C639.271 390.477 640.431 389.921 641.985 389.701C642.896 389.576 644.717 389.346 645.168 388.982V390.717C645.168 392.357 643.845 393.747 641.755 393.747ZM655.59 387.371C655.59 385.242 656.875 384.015 658.706 384.015C660.499 384.015 661.573 385.194 661.573 387.16V396H665.044V386.623C665.054 383.094 663.04 381.081 660.001 381.081C657.795 381.081 656.281 382.136 655.609 383.775H655.437V381.273H652.119V396H655.59V387.371Z" fill="black"/>
<path d="M218.087 576.818H214.793V595H218.087V576.818ZM224.725 587.01C224.725 585.039 225.915 583.903 227.611 583.903C229.271 583.903 230.265 584.995 230.265 586.815V595H233.479V586.317C233.488 583.05 231.623 581.186 228.809 581.186C226.767 581.186 225.365 582.163 224.743 583.681H224.583V581.364H221.512V595H224.725V587.01ZM243.555 581.364H240.865V578.097H237.652V581.364H235.716V583.849H237.652V591.431C237.634 593.997 239.498 595.257 241.913 595.186C242.827 595.16 243.458 594.982 243.804 594.867L243.262 592.354C243.085 592.399 242.721 592.479 242.321 592.479C241.513 592.479 240.865 592.195 240.865 590.898V583.849H243.555V581.364ZM252.134 595.266C255.312 595.266 257.496 593.713 258.064 591.342L255.063 591.005C254.628 592.159 253.563 592.763 252.178 592.763C250.1 592.763 248.724 591.396 248.698 589.061H258.197V588.075C258.197 583.29 255.321 581.186 251.965 581.186C248.059 581.186 245.511 584.054 245.511 588.262C245.511 592.541 248.023 595.266 252.134 595.266ZM248.707 586.895C248.804 585.154 250.092 583.69 252.009 583.69C253.856 583.69 255.099 585.039 255.116 586.895H248.707ZM266.846 600.398C270.531 600.398 273.247 598.711 273.247 595.222V581.364H270.078V583.619H269.9C269.412 582.633 268.391 581.186 265.985 581.186C262.834 581.186 260.357 583.654 260.357 588.137C260.357 592.585 262.834 594.805 265.976 594.805C268.311 594.805 269.403 593.553 269.9 592.55H270.06V595.133C270.06 597.14 268.728 597.965 266.9 597.965C264.964 597.965 264.112 597.051 263.721 596.252L260.827 596.953C261.413 598.862 263.375 600.398 266.846 600.398ZM266.873 592.283C264.751 592.283 263.633 590.632 263.633 588.12C263.633 585.643 264.733 583.823 266.873 583.823C268.941 583.823 270.078 585.536 270.078 588.12C270.078 590.721 268.924 592.283 266.873 592.283ZM276.541 595H279.755V586.983C279.755 585.252 281.06 584.027 282.826 584.027C283.368 584.027 284.043 584.125 284.318 584.213V581.257C284.025 581.204 283.519 581.168 283.164 581.168C281.601 581.168 280.296 582.056 279.799 583.636H279.657V581.364H276.541V595ZM290.108 595.275C292.248 595.275 293.526 594.272 294.112 593.127H294.219V595H297.308V585.874C297.308 582.269 294.37 581.186 291.769 581.186C288.901 581.186 286.699 582.464 285.989 584.95L288.99 585.376C289.309 584.444 290.215 583.645 291.786 583.645C293.278 583.645 294.095 584.409 294.095 585.749V585.803C294.095 586.726 293.127 586.77 290.721 587.028C288.075 587.312 285.545 588.102 285.545 591.174C285.545 593.855 287.507 595.275 290.108 595.275ZM290.943 592.914C289.602 592.914 288.644 592.301 288.644 591.12C288.644 589.886 289.718 589.371 291.156 589.167C291.999 589.052 293.686 588.839 294.104 588.501V590.108C294.104 591.626 292.878 592.914 290.943 592.914ZM303.754 576.818H300.54V595H303.754V576.818Z" fill="white"/>
<path d="M271.61 339.818V366H276.979V348.895H277.196L283.972 365.872H287.628L294.404 348.959H294.621V366H299.99V339.818H293.164L285.953 357.409H285.646L278.436 339.818H271.61ZM313.398 366.384C318.256 366.384 321.528 364.018 322.295 360.375L317.258 360.043C316.709 361.538 315.302 362.318 313.487 362.318C310.764 362.318 309.038 360.516 309.038 357.588V357.575H322.41V356.08C322.41 349.406 318.371 346.108 313.18 346.108C307.402 346.108 303.656 350.212 303.656 356.271C303.656 362.497 307.351 366.384 313.398 366.384ZM309.038 354.2C309.153 351.963 310.854 350.173 313.27 350.173C315.635 350.173 317.271 351.861 317.284 354.2H309.038ZM325.964 366H331.41V359.761L332.881 358.087L338.237 366H344.616L336.959 354.865L344.246 346.364H337.994L331.704 353.817H331.41V339.818H325.964V366ZM352.517 366.371C355.419 366.371 357.298 365.105 358.257 363.277H358.41V366H363.575V352.756C363.575 348.077 359.612 346.108 355.24 346.108C350.535 346.108 347.442 348.358 346.687 351.937L351.724 352.347C352.095 351.043 353.258 350.084 355.214 350.084C357.068 350.084 358.129 351.017 358.129 352.628V352.705C358.129 353.97 356.787 354.136 353.373 354.469C349.487 354.827 345.997 356.131 345.997 360.516C345.997 364.402 348.771 366.371 352.517 366.371ZM354.077 362.612C352.402 362.612 351.2 361.832 351.2 360.337C351.2 358.803 352.466 358.048 354.383 357.78C355.572 357.614 357.515 357.332 358.167 356.898V358.982C358.167 361.04 356.467 362.612 354.077 362.612ZM373.246 354.648C373.259 352.116 374.768 350.634 376.966 350.634C379.153 350.634 380.469 352.065 380.456 354.469V366H385.903V353.497C385.903 348.92 383.218 346.108 379.127 346.108C376.212 346.108 374.103 347.54 373.221 349.828H372.991V346.364H367.8V366H373.246V354.648ZM390.195 366H395.641V346.364H390.195V366ZM392.931 343.832C394.554 343.832 395.884 342.592 395.884 341.071C395.884 339.562 394.554 338.322 392.931 338.322C391.32 338.322 389.99 339.562 389.99 341.071C389.99 342.592 391.32 343.832 392.931 343.832ZM400.003 366H405.449V359.761L406.92 358.087L412.276 366H418.655L410.998 354.865L418.285 346.364H412.033L405.743 353.817H405.449V339.818H400.003V366ZM426.556 366.371C429.458 366.371 431.337 365.105 432.296 363.277H432.449V366H437.614V352.756C437.614 348.077 433.651 346.108 429.279 346.108C424.574 346.108 421.481 348.358 420.726 351.937L425.763 352.347C426.134 351.043 427.297 350.084 429.253 350.084C431.107 350.084 432.168 351.017 432.168 352.628V352.705C432.168 353.97 430.826 354.136 427.412 354.469C423.526 354.827 420.036 356.131 420.036 360.516C420.036 364.402 422.81 366.371 426.556 366.371ZM428.116 362.612C426.441 362.612 425.239 361.832 425.239 360.337C425.239 358.803 426.505 358.048 428.422 357.78C429.611 357.614 431.554 357.332 432.206 356.898V358.982C432.206 361.04 430.506 362.612 428.116 362.612ZM277.533 410H283.069V402.56L285.792 399.236L292.964 410H299.586L289.755 395.541L299.471 383.818H292.836L283.414 395.362H283.069V383.818H277.533V410ZM313.613 401.639C313.626 404.273 311.824 405.653 309.868 405.653C307.809 405.653 306.48 404.209 306.467 401.895V390.364H301.021V402.866C301.034 407.456 303.718 410.256 307.669 410.256C310.622 410.256 312.744 408.734 313.626 406.433H313.831V410H319.059V390.364H313.613V401.639ZM329.015 410.371C331.917 410.371 333.796 409.105 334.755 407.277H334.908V410H340.073V396.756C340.073 392.077 336.11 390.108 331.738 390.108C327.033 390.108 323.94 392.358 323.185 395.937L328.222 396.347C328.593 395.043 329.756 394.084 331.712 394.084C333.566 394.084 334.627 395.017 334.627 396.628V396.705C334.627 397.97 333.285 398.136 329.871 398.469C325.985 398.827 322.495 400.131 322.495 404.516C322.495 408.402 325.269 410.371 329.015 410.371ZM330.575 406.612C328.9 406.612 327.698 405.832 327.698 404.337C327.698 402.803 328.964 402.048 330.881 401.78C332.07 401.614 334.013 401.332 334.665 400.898V402.982C334.665 405.04 332.965 406.612 330.575 406.612ZM349.744 398.648C349.757 396.116 351.266 394.634 353.464 394.634C355.651 394.634 356.967 396.065 356.955 398.469V410H362.401V397.497C362.401 392.92 359.716 390.108 355.625 390.108C352.71 390.108 350.601 391.54 349.719 393.828H349.489V390.364H344.298V410H349.744V398.648ZM377.137 390.364H373.443V385.659H367.997V390.364H365.312V394.455H367.997V404.682C367.971 408.53 370.592 410.435 374.542 410.268C375.949 410.217 376.946 409.936 377.495 409.757L376.639 405.705C376.37 405.756 375.795 405.884 375.284 405.884C374.197 405.884 373.443 405.474 373.443 403.966V394.455H377.137V390.364ZM393.277 401.639C393.29 404.273 391.488 405.653 389.532 405.653C387.473 405.653 386.144 404.209 386.131 401.895V390.364H380.685V402.866C380.698 407.456 383.382 410.256 387.333 410.256C390.286 410.256 392.408 408.734 393.29 406.433H393.495V410H398.723V390.364H393.277V401.639ZM403.08 410H408.526V398.213C408.526 396.04 409.906 394.595 411.722 394.595C413.511 394.595 414.713 395.822 414.713 397.753V410H419.993V398.009C419.993 395.976 421.156 394.595 423.138 394.595C424.876 394.595 426.18 395.682 426.18 397.868V410H431.614V396.794C431.614 392.537 429.082 390.108 425.426 390.108C422.55 390.108 420.312 391.578 419.507 393.828H419.303C418.676 391.553 416.669 390.108 413.972 390.108C411.325 390.108 409.318 391.514 408.5 393.828H408.27V390.364H403.08V410Z" fill="white"/>
<defs>
<filter id="filter0_d" x="214" y="261" width="382" height="341" filterUnits="userSpaceOnUse" color-interpolation-filters="sRGB">
<feFlood flood-opacity="0" result="BackgroundImageFix"/>
<feColorMatrix in="SourceAlpha" type="matrix" values="0 0 0 0 0 0 0 0 0 0 0 0 0 0 0 0 0 0 127 0"/>
<feMorphology radius="5" operator="dilate" in="SourceAlpha" result="effect1_dropShadow"/>
<feOffset dy="8"/>
<feGaussianBlur stdDeviation="49.5"/>
<feColorMatrix type="matrix" values="0 0 0 0 0.537255 0 0 0 0 0.364706 0 0 0 0 0.964706 0 0 0 1 0"/>
<feBlend mode="normal" in2="BackgroundImageFix" result="effect1_dropShadow"/>
<feBlend mode="normal" in="SourceGraphic" in2="effect1_dropShadow" result="shape"/>
</filter>
<filter id="filter1_d" x="214" y="171" width="382" height="298" filterUnits="userSpaceOnUse" color-interpolation-filters="sRGB">
<feFlood flood-opacity="0" result="BackgroundImageFix"/>
<feColorMatrix in="SourceAlpha" type="matrix" values="0 0 0 0 0 0 0 0 0 0 0 0 0 0 0 0 0 0 127 0"/>
<feMorphology radius="5" operator="dilate" in="SourceAlpha" result="effect1_dropShadow"/>
<feOffset dy="8"/>
<feGaussianBlur stdDeviation="49.5"/>
<feColorMatrix type="matrix" values="0 0 0 0 0.537255 0 0 0 0 0.364706 0 0 0 0 0.964706 0 0 0 1 0"/>
<feBlend mode="normal" in2="BackgroundImageFix" result="effect1_dropShadow"/>
<feBlend mode="normal" in="SourceGraphic" in2="effect1_dropShadow" result="shape"/>
</filter>
<filter id="filter2_d" x="103" y="261" width="319" height="341" filterUnits="userSpaceOnUse" color-interpolation-filters="sRGB">
<feFlood flood-opacity="0" result="BackgroundImageFix"/>
<feColorMatrix in="SourceAlpha" type="matrix" values="0 0 0 0 0 0 0 0 0 0 0 0 0 0 0 0 0 0 127 0"/>
<feMorphology radius="5" operator="dilate" in="SourceAlpha" result="effect1_dropShadow"/>
<feOffset dy="8"/>
<feGaussianBlur stdDeviation="49.5"/>
<feColorMatrix type="matrix" values="0 0 0 0 0.537255 0 0 0 0 0.364706 0 0 0 0 0.964706 0 0 0 1 0"/>
<feBlend mode="normal" in2="BackgroundImageFix" result="effect1_dropShadow"/>
<feBlend mode="normal" in="SourceGraphic" in2="effect1_dropShadow" result="shape"/>
</filter>
<filter id="filter3_d" x="203.574" y="265" width="118.851" height="98.75" filterUnits="userSpaceOnUse" color-interpolation-filters="sRGB">
<feFlood flood-opacity="0" result="BackgroundImageFix"/>
<feColorMatrix in="SourceAlpha" type="matrix" values="0 0 0 0 0 0 0 0 0 0 0 0 0 0 0 0 0 0 127 0"/>
<feOffset dy="4"/>
<feGaussianBlur stdDeviation="2"/>
<feColorMatrix type="matrix" values="0 0 0 0 0 0 0 0 0 0 0 0 0 0 0 0 0 0 0.25 0"/>
<feBlend mode="normal" in2="BackgroundImageFix" result="effect1_dropShadow"/>
<feBlend mode="normal" in="SourceGraphic" in2="effect1_dropShadow" result="shape"/>
</filter>
<filter id="filter4_d" x="260" y="266" width="62" height="97" filterUnits="userSpaceOnUse" color-interpolation-filters="sRGB">
<feFlood flood-opacity="0" result="BackgroundImageFix"/>
<feColorMatrix in="SourceAlpha" type="matrix" values="0 0 0 0 0 0 0 0 0 0 0 0 0 0 0 0 0 0 127 0"/>
<feOffset dy="4"/>
<feGaussianBlur stdDeviation="2"/>
<feColorMatrix type="matrix" values="0 0 0 0 0 0 0 0 0 0 0 0 0 0 0 0 0 0 0.25 0"/>
<feBlend mode="normal" in2="BackgroundImageFix" result="effect1_dropShadow"/>
<feBlend mode="normal" in="SourceGraphic" in2="effect1_dropShadow" result="shape"/>
</filter>
</defs>
</svg>
